<svg xmlns="http://www.w3.org/2000/svg" width="1920" height="1080"><path d="M308,1293L215,1303L386,1288Z" fill="#ffd39a" stroke="#ffd39a" stroke-width="1.51"/><path d="M392,-196L659,-159L892,-164Z" fill="#ffffff" stroke="#ffffff" stroke-width="1.51"/><path d="M658,1282L386,1288L905,1297Z" fill="#ffd39a" stroke="#ffd39a" stroke-width="1.51"/><path d="M386,1288L215,1303L905,1297Z" fill="#ffd39a" stroke="#ffd39a" stroke-width="1.51"/><path d="M392,-196L892,-164L1106,-196Z" fill="#ffffff" stroke="#ffffff" stroke-width="1.51"/><path d="M270,-227L392,-196L1106,-196Z" fill="#ffffff" stroke="#ffffff" stroke-width="1.51"/><path d="M270,-227L1106,-196L1385,-210Z" fill="#ffffff" stroke="#ffffff" stroke-width="1.51"/><path d="M270,-227L1385,-210L1595,-228Z" fill="#fffaf4" stroke="#fffaf4" stroke-width="1.51"/><path d="M1641,1282L1279,1289L1743,1301Z" fill="#fdbd66" stroke="#fdbd66" stroke-width="1.51"/><path d="M1279,1289L1101,1297L1743,1301Z" fill="#fec475" stroke="#fec475" stroke-width="1.51"/><path d="M1595,-228L1783,-168L1981,-202Z" fill="#ffe0b7" stroke="#ffe0b7" stroke-width="1.51"/><path d="M2080,-98L1990,-63L2081,106Z" fill="#ffd6a0" stroke="#ffd6a0" stroke-width="1.51"/><path d="M2079,384L1985,512L2108,542Z" fill="#ffd59f" stroke="#ffd59f" stroke-width="1.51"/><path d="M1992,1141L2021,1294L2109,1112Z" fill="#fab249" stroke="#fab249" stroke-width="1.51"/><path d="M2021,1294L1843,1295L2115,1304Z" fill="#f8ad3b" stroke="#f8ad3b" stroke-width="1.51"/><path d="M1843,1295L1743,1301L2115,1304Z" fill="#fab044" stroke="#fab044" stroke-width="1.51"/><path d="M2109,1112L2021,1294L2115,1304Z" fill="#f9ad3c" stroke="#f9ad3c" stroke-width="1.51"/><path d="M2109,1112L2115,1304L2128,906Z" fill="#fab34c" stroke="#fab34c" stroke-width="1.51"/><path d="M2107,989L2109,1112L2128,906Z" fill="#fcb95c" stroke="#fcb95c" stroke-width="1.51"/><path d="M2081,106L2082,194L2132,308Z" fill="#ffd49c" stroke="#ffd49c" stroke-width="1.51"/><path d="M2080,-98L2081,106L2132,308Z" fill="#ffd49c" stroke="#ffd49c" stroke-width="1.51"/><path d="M2079,384L2108,542L2132,308Z" fill="#ffd49b" stroke="#ffd49b" stroke-width="1.51"/><path d="M2108,542L2121,660L2132,308Z" fill="#ffd39a" stroke="#ffd39a" stroke-width="1.51"/><path d="M2121,660L1987,689L2147,768Z" fill="#ffcb87" stroke="#ffcb87" stroke-width="1.51"/><path d="M1987,689L2007,811L2147,768Z" fill="#ffca84" stroke="#ffca84" stroke-width="1.51"/><path d="M2007,811L2128,906L2147,768Z" fill="#fec475" stroke="#fec475" stroke-width="1.51"/><path d="M2128,906L2115,1304L2147,768Z" fill="#fcb95c" stroke="#fcb95c" stroke-width="1.51"/><path d="M2132,308L2121,660L2147,768Z" fill="#ffd093" stroke="#ffd093" stroke-width="1.51"/><path d="M2107,989L1999,1020L2109,1112Z" fill="#fcb85b" stroke="#fcb85b" stroke-width="1.51"/><path d="M2108,542L1987,689L2121,660Z" fill="#ffcf92" stroke="#ffcf92" stroke-width="1.51"/><path d="M1974,936L2107,989L2128,906Z" fill="#fdbe68" stroke="#fdbe68" stroke-width="1.51"/><path d="M2082,194L1942,345L2132,308Z" fill="#ffd6a0" stroke="#ffd6a0" stroke-width="1.51"/><path d="M1942,345L2079,384L2132,308Z" fill="#ffd6a0" stroke="#ffd6a0" stroke-width="1.51"/><path d="M2007,811L1974,936L2128,906Z" fill="#fec373" stroke="#fec373" stroke-width="1.51"/><path d="M1990,-63L1952,88L2081,106Z" fill="#ffd7a3" stroke="#ffd7a3" stroke-width="1.51"/><path d="M1985,512L1987,689L2108,542Z" fill="#ffd49c" stroke="#ffd49c" stroke-width="1.51"/><path d="M1948,188L1942,345L2082,194Z" fill="#ffd8a5" stroke="#ffd8a5" stroke-width="1.51"/><path d="M1974,936L1999,1020L2107,989Z" fill="#fdbe67" stroke="#fdbe67" stroke-width="1.51"/><path d="M1999,1020L1992,1141L2109,1112Z" fill="#fcb757" stroke="#fcb757" stroke-width="1.51"/><path d="M1933,462L1985,512L2079,384Z" fill="#ffd8a4" stroke="#ffd8a4" stroke-width="1.51"/><path d="M1942,345L1933,462L2079,384Z" fill="#ffd8a6" stroke="#ffd8a6" stroke-width="1.51"/><path d="M2067,-188L1981,-202L2080,-98Z" fill="#ffd6a0" stroke="#ffd6a0" stroke-width="1.51"/><path d="M1981,-202L1990,-63L2080,-98Z" fill="#ffd7a3" stroke="#ffd7a3" stroke-width="1.51"/><path d="M1952,88L1948,188L2081,106Z" fill="#ffd8a5" stroke="#ffd8a5" stroke-width="1.51"/><path d="M2081,106L1948,188L2082,194Z" fill="#ffd6a1" stroke="#ffd6a1" stroke-width="1.51"/><path d="M1397,1262L1279,1289L1641,1282Z" fill="#fdc372" stroke="#fdc372" stroke-width="1.51"/><path d="M1893,227L1942,345L1948,188Z" fill="#ffdaaa" stroke="#ffdaaa" stroke-width="1.51"/><path d="M1837,533L1841,671L1985,512Z" fill="#ffdaaa" stroke="#ffdaaa" stroke-width="1.51"/><path d="M1985,512L1841,671L1987,689Z" fill="#ffd59e" stroke="#ffd59e" stroke-width="1.51"/><path d="M1856,-21L1952,88L1990,-63Z" fill="#ffdaaa" stroke="#ffdaaa" stroke-width="1.51"/><path d="M1861,1121L1843,1295L1992,1141Z" fill="#fcb756" stroke="#fcb756" stroke-width="1.51"/><path d="M1882,892L1974,936L2007,811Z" fill="#fec67b" stroke="#fec67b" stroke-width="1.51"/><path d="M1992,1141L1843,1295L2021,1294Z" fill="#fab148" stroke="#fab148" stroke-width="1.51"/><path d="M1981,-202L1821,-140L1990,-63Z" fill="#ffdaaa" stroke="#ffdaaa" stroke-width="1.51"/><path d="M1861,1121L1992,1141L1999,1020Z" fill="#fdba5e" stroke="#fdba5e" stroke-width="1.51"/><path d="M1987,689L1845,828L2007,811Z" fill="#ffcc89" stroke="#ffcc89" stroke-width="1.51"/><path d="M1845,828L1882,892L2007,811Z" fill="#ffc983" stroke="#ffc983" stroke-width="1.51"/><path d="M1893,227L1877,309L1942,345Z" fill="#ffdbac" stroke="#ffdbac" stroke-width="1.51"/><path d="M1841,671L1845,828L1987,689Z" fill="#ffd194" stroke="#ffd194" stroke-width="1.51"/><path d="M1974,936L1811,1044L1999,1020Z" fill="#fec06d" stroke="#fec06d" stroke-width="1.51"/><path d="M1811,1044L1861,1121L1999,1020Z" fill="#febe68" stroke="#febe68" stroke-width="1.51"/><path d="M1821,-140L1856,-21L1990,-63Z" fill="#ffdbae" stroke="#ffdbae" stroke-width="1.51"/><path d="M1783,-168L1821,-140L1981,-202Z" fill="#ffdcb0" stroke="#ffdcb0" stroke-width="1.51"/><path d="M1869,405L1933,462L1942,345Z" fill="#ffdbac" stroke="#ffdbac" stroke-width="1.51"/><path d="M1882,892L1811,1044L1974,936Z" fill="#fec376" stroke="#fec376" stroke-width="1.51"/><path d="M1933,462L1837,533L1985,512Z" fill="#ffdaab" stroke="#ffdaab" stroke-width="1.51"/><path d="M1815,92L1893,227L1948,188Z" fill="#ffdcae" stroke="#ffdcae" stroke-width="1.51"/><path d="M1815,92L1948,188L1952,88Z" fill="#ffdbac" stroke="#ffdbac" stroke-width="1.51"/><path d="M1856,-21L1815,92L1952,88Z" fill="#ffdcaf" stroke="#ffdcaf" stroke-width="1.51"/><path d="M1877,309L1869,405L1942,345Z" fill="#ffdbad" stroke="#ffdbad" stroke-width="1.51"/><path d="M1869,405L1837,533L1933,462Z" fill="#ffdcae" stroke="#ffdcae" stroke-width="1.51"/><path d="M1841,671L1765,781L1845,828Z" fill="#ffd297" stroke="#ffd297" stroke-width="1.51"/><path d="M1821,-140L1779,-54L1856,-21Z" fill="#ffdfb4" stroke="#ffdfb4" stroke-width="1.51"/><path d="M1704,1163L1843,1295L1861,1121Z" fill="#fdba5d" stroke="#fdba5d" stroke-width="1.51"/><path d="M1780,388L1869,405L1877,309Z" fill="#ffddb2" stroke="#ffddb2" stroke-width="1.51"/><path d="M1762,974L1811,1044L1882,892Z" fill="#ffc67b" stroke="#ffc67b" stroke-width="1.51"/><path d="M1815,92L1754,137L1893,227Z" fill="#ffdeb4" stroke="#ffdeb4" stroke-width="1.51"/><path d="M1714,254L1877,309L1893,227Z" fill="#ffdeb3" stroke="#ffdeb3" stroke-width="1.51"/><path d="M1754,137L1714,254L1893,227Z" fill="#ffe0b7" stroke="#ffe0b7" stroke-width="1.51"/><path d="M1837,533L1759,565L1841,671Z" fill="#ffdcad" stroke="#ffdcad" stroke-width="1.51"/><path d="M1704,1163L1743,1301L1843,1295Z" fill="#fcb859" stroke="#fcb859" stroke-width="1.51"/><path d="M1780,388L1837,533L1869,405Z" fill="#ffdeb3" stroke="#ffdeb3" stroke-width="1.51"/><path d="M1845,828L1762,974L1882,892Z" fill="#ffc983" stroke="#ffc983" stroke-width="1.51"/><path d="M1714,911L1762,974L1845,828Z" fill="#ffcb87" stroke="#ffcb87" stroke-width="1.51"/><path d="M1714,254L1780,388L1877,309Z" fill="#ffe0b6" stroke="#ffe0b6" stroke-width="1.51"/><path d="M1761,678L1765,781L1841,671Z" fill="#ffd6a0" stroke="#ffd6a0" stroke-width="1.51"/><path d="M1727,29L1815,92L1856,-21Z" fill="#ffdfb6" stroke="#ffdfb6" stroke-width="1.51"/><path d="M1759,565L1761,678L1841,671Z" fill="#ffdaa9" stroke="#ffdaa9" stroke-width="1.51"/><path d="M1779,-54L1727,29L1856,-21Z" fill="#ffe0b7" stroke="#ffe0b7" stroke-width="1.51"/><path d="M1811,1044L1704,1163L1861,1121Z" fill="#ffbe6a" stroke="#ffbe6a" stroke-width="1.51"/><path d="M1780,388L1759,565L1837,533Z" fill="#ffdfb6" stroke="#ffdfb6" stroke-width="1.51"/><path d="M1765,781L1714,911L1845,828Z" fill="#ffcf90" stroke="#ffcf90" stroke-width="1.51"/><path d="M1484,1249L1397,1262L1641,1282Z" fill="#fdc06e" stroke="#fdc06e" stroke-width="1.51"/><path d="M1636,464L1759,565L1780,388Z" fill="#ffe2bc" stroke="#ffe2bc" stroke-width="1.51"/><path d="M1783,-168L1779,-54L1821,-140Z" fill="#ffdfb6" stroke="#ffdfb6" stroke-width="1.51"/><path d="M1659,1047L1704,1163L1811,1044Z" fill="#ffc274" stroke="#ffc274" stroke-width="1.51"/><path d="M1727,29L1754,137L1815,92Z" fill="#ffe0b9" stroke="#ffe0b9" stroke-width="1.51"/><path d="M1762,974L1659,1047L1811,1044Z" fill="#ffc57a" stroke="#ffc57a" stroke-width="1.51"/><path d="M1636,464L1661,551L1759,565Z" fill="#ffe3bf" stroke="#ffe3bf" stroke-width="1.51"/><path d="M1761,678L1647,707L1765,781Z" fill="#ffd7a4" stroke="#ffd7a4" stroke-width="1.51"/><path d="M1714,254L1626,303L1780,388Z" fill="#ffe3be" stroke="#ffe3be" stroke-width="1.51"/><path d="M1621,-57L1779,-54L1783,-168Z" fill="#ffe2bc" stroke="#ffe2bc" stroke-width="1.51"/><path d="M1595,-228L1621,-57L1783,-168Z" fill="#ffe4c1" stroke="#ffe4c1" stroke-width="1.51"/><path d="M1663,154L1714,254L1754,137Z" fill="#ffe2bd" stroke="#ffe2bd" stroke-width="1.51"/><path d="M1759,565L1661,551L1761,678Z" fill="#ffdeb4" stroke="#ffdeb4" stroke-width="1.51"/><path d="M1626,303L1636,464L1780,388Z" fill="#ffe4c0" stroke="#ffe4c0" stroke-width="1.51"/><path d="M1621,-57L1727,29L1779,-54Z" fill="#ffe3bd" stroke="#ffe3bd" stroke-width="1.51"/><path d="M1704,1163L1641,1282L1743,1301Z" fill="#fdbb5f" stroke="#fdbb5f" stroke-width="1.51"/><path d="M1727,29L1663,154L1754,137Z" fill="#ffe2bd" stroke="#ffe2bd" stroke-width="1.51"/><path d="M1661,551L1647,707L1761,678Z" fill="#ffddb1" stroke="#ffddb1" stroke-width="1.51"/><path d="M1604,811L1714,911L1765,781Z" fill="#ffd298" stroke="#ffd298" stroke-width="1.51"/><path d="M1647,707L1604,811L1765,781Z" fill="#ffd6a2" stroke="#ffd6a2" stroke-width="1.51"/><path d="M1659,1047L1655,1147L1704,1163Z" fill="#ffc273" stroke="#ffc273" stroke-width="1.51"/><path d="M1714,911L1659,1047L1762,974Z" fill="#ffc983" stroke="#ffc983" stroke-width="1.51"/><path d="M1655,1147L1641,1282L1704,1163Z" fill="#febe69" stroke="#febe69" stroke-width="1.51"/><path d="M1604,811L1604,901L1714,911Z" fill="#ffd297" stroke="#ffd297" stroke-width="1.51"/><path d="M1604,901L1659,1047L1714,911Z" fill="#ffcc8b" stroke="#ffcc8b" stroke-width="1.51"/><path d="M1571,23L1663,154L1727,29Z" fill="#ffe5c2" stroke="#ffe5c2" stroke-width="1.51"/><path d="M1621,-57L1571,23L1727,29Z" fill="#ffe5c3" stroke="#ffe5c3" stroke-width="1.51"/><path d="M1663,154L1626,303L1714,254Z" fill="#ffe4c1" stroke="#ffe4c1" stroke-width="1.51"/><path d="M892,-164L986,-171L1106,-196Z" fill="#fffdfc" stroke="#fffdfc" stroke-width="1.51"/><path d="M1595,-228L1513,-133L1621,-57Z" fill="#ffe7c9" stroke="#ffe7c9" stroke-width="1.51"/><path d="M1626,303L1541,457L1636,464Z" fill="#ffe7c7" stroke="#ffe7c7" stroke-width="1.51"/><path d="M1484,1249L1641,1282L1655,1147Z" fill="#febf6c" stroke="#febf6c" stroke-width="1.51"/><path d="M1512,1053L1655,1147L1659,1047Z" fill="#ffc77e" stroke="#ffc77e" stroke-width="1.51"/><path d="M1604,901L1512,1053L1659,1047Z" fill="#ffcc8b" stroke="#ffcc8b" stroke-width="1.51"/><path d="M1636,464L1541,457L1661,551Z" fill="#ffe6c6" stroke="#ffe6c6" stroke-width="1.51"/><path d="M1522,621L1647,707L1661,551Z" fill="#ffe1ba" stroke="#ffe1ba" stroke-width="1.51"/><path d="M1546,161L1626,303L1663,154Z" fill="#ffe6c6" stroke="#ffe6c6" stroke-width="1.51"/><path d="M1571,23L1546,161L1663,154Z" fill="#ffe7c8" stroke="#ffe7c8" stroke-width="1.51"/><path d="M1541,457L1522,621L1661,551Z" fill="#ffe7c9" stroke="#ffe7c9" stroke-width="1.51"/><path d="M1512,1053L1451,1162L1655,1147Z" fill="#ffc77f" stroke="#ffc77f" stroke-width="1.51"/><path d="M1451,1162L1484,1249L1655,1147Z" fill="#fec476" stroke="#fec476" stroke-width="1.51"/><path d="M1467,743L1604,811L1647,707Z" fill="#ffdbac" stroke="#ffdbac" stroke-width="1.51"/><path d="M1522,621L1467,743L1647,707Z" fill="#ffe0b7" stroke="#ffe0b7" stroke-width="1.51"/><path d="M1546,161L1453,288L1626,303Z" fill="#ffe9cc" stroke="#ffe9cc" stroke-width="1.51"/><path d="M1453,288L1541,457L1626,303Z" fill="#ffe9cc" stroke="#ffe9cc" stroke-width="1.51"/><path d="M1467,561L1522,621L1541,457Z" fill="#ffe9ce" stroke="#ffe9ce" stroke-width="1.51"/><path d="M1482,90L1546,161L1571,23Z" fill="#ffe9cd" stroke="#ffe9cd" stroke-width="1.51"/><path d="M1467,-46L1571,23L1621,-57Z" fill="#ffe8cb" stroke="#ffe8cb" stroke-width="1.51"/><path d="M1513,-133L1467,-46L1621,-57Z" fill="#ffe9cd" stroke="#ffe9cd" stroke-width="1.51"/><path d="M1468,852L1512,1053L1604,901Z" fill="#ffd299" stroke="#ffd299" stroke-width="1.51"/><path d="M1468,852L1604,901L1604,811Z" fill="#ffd6a0" stroke="#ffd6a0" stroke-width="1.51"/><path d="M1467,743L1468,852L1604,811Z" fill="#ffdaab" stroke="#ffdaab" stroke-width="1.51"/><path d="M1385,-210L1513,-133L1595,-228Z" fill="#ffead0" stroke="#ffead0" stroke-width="1.51"/><path d="M1453,288L1414,313L1541,457Z" fill="#ffebd2" stroke="#ffebd2" stroke-width="1.51"/><path d="M1467,-46L1482,90L1571,23Z" fill="#ffeacf" stroke="#ffeacf" stroke-width="1.51"/><path d="M1468,852L1356,899L1512,1053Z" fill="#ffd59f" stroke="#ffd59f" stroke-width="1.51"/><path d="M1420,670L1467,743L1522,621Z" fill="#ffe3c0" stroke="#ffe3c0" stroke-width="1.51"/><path d="M1414,313L1400,459L1541,457Z" fill="#ffecd4" stroke="#ffecd4" stroke-width="1.51"/><path d="M1406,515L1467,561L1541,457Z" fill="#ffebd2" stroke="#ffebd2" stroke-width="1.51"/><path d="M1482,90L1411,187L1546,161Z" fill="#ffebd1" stroke="#ffebd1" stroke-width="1.51"/><path d="M1411,187L1453,288L1546,161Z" fill="#ffebd2" stroke="#ffebd2" stroke-width="1.51"/><path d="M1356,899L1338,1029L1512,1053Z" fill="#ffd39c" stroke="#ffd39c" stroke-width="1.51"/><path d="M1400,459L1406,515L1541,457Z" fill="#ffecd4" stroke="#ffecd4" stroke-width="1.51"/><path d="M1388,1126L1451,1162L1512,1053Z" fill="#ffcb87" stroke="#ffcb87" stroke-width="1.51"/><path d="M1467,561L1420,670L1522,621Z" fill="#ffe7c8" stroke="#ffe7c8" stroke-width="1.51"/><path d="M1467,-46L1378,71L1482,90Z" fill="#ffecd5" stroke="#ffecd5" stroke-width="1.51"/><path d="M1367,-88L1467,-46L1513,-133Z" fill="#ffecd4" stroke="#ffecd4" stroke-width="1.51"/><path d="M1385,-210L1367,-88L1513,-133Z" fill="#ffedd6" stroke="#ffedd6" stroke-width="1.51"/><path d="M1338,1029L1388,1126L1512,1053Z" fill="#ffcf91" stroke="#ffcf91" stroke-width="1.51"/><path d="M-175,-161L-54,-167L270,-227Z" fill="#ffffff" stroke="#ffffff" stroke-width="1.51"/><path d="M1106,-196L1226,-161L1385,-210Z" fill="#fff4e6" stroke="#fff4e6" stroke-width="1.51"/><path d="M1467,743L1343,747L1468,852Z" fill="#ffdfb5" stroke="#ffdfb5" stroke-width="1.51"/><path d="M1378,71L1411,187L1482,90Z" fill="#ffedd6" stroke="#ffedd6" stroke-width="1.51"/><path d="M1451,1162L1397,1262L1484,1249Z" fill="#fec579" stroke="#fec579" stroke-width="1.51"/><path d="M1367,-88L1378,71L1467,-46Z" fill="#ffeed8" stroke="#ffeed8" stroke-width="1.51"/><path d="M1406,515L1420,670L1467,561Z" fill="#ffead0" stroke="#ffead0" stroke-width="1.51"/><path d="M1420,670L1343,747L1467,743Z" fill="#ffe3bf" stroke="#ffe3bf" stroke-width="1.51"/><path d="M1343,747L1356,899L1468,852Z" fill="#ffddb2" stroke="#ffddb2" stroke-width="1.51"/><path d="M1367,-88L1303,28L1378,71Z" fill="#fff0dd" stroke="#fff0dd" stroke-width="1.51"/><path d="M1388,1126L1397,1262L1451,1162Z" fill="#ffc981" stroke="#ffc981" stroke-width="1.51"/><path d="M1411,187L1414,313L1453,288Z" fill="#ffedd6" stroke="#ffedd6" stroke-width="1.51"/><path d="M1378,71L1265,162L1411,187Z" fill="#fff0dc" stroke="#fff0dc" stroke-width="1.51"/><path d="M1411,187L1265,162L1414,313Z" fill="#ffefdb" stroke="#ffefdb" stroke-width="1.51"/><path d="M1265,162L1244,341L1414,313Z" fill="#fff1e0" stroke="#fff1e0" stroke-width="1.51"/><path d="M1255,374L1400,459L1414,313Z" fill="#fff0dc" stroke="#fff0dc" stroke-width="1.51"/><path d="M1216,698L1343,747L1420,670Z" fill="#ffe7c8" stroke="#ffe7c8" stroke-width="1.51"/><path d="M1406,515L1216,528L1420,670Z" fill="#ffeed9" stroke="#ffeed9" stroke-width="1.51"/><path d="M1216,528L1216,698L1420,670Z" fill="#ffedd6" stroke="#ffedd6" stroke-width="1.51"/><path d="M1232,1152L1279,1289L1388,1126Z" fill="#ffcc8a" stroke="#ffcc8a" stroke-width="1.51"/><path d="M1388,1126L1279,1289L1397,1262Z" fill="#ffc881" stroke="#ffc881" stroke-width="1.51"/><path d="M1244,341L1255,374L1414,313Z" fill="#fff2e0" stroke="#fff2e0" stroke-width="1.51"/><path d="M1400,459L1216,528L1406,515Z" fill="#fff0dd" stroke="#fff0dd" stroke-width="1.51"/><path d="M1343,747L1246,812L1356,899Z" fill="#ffe1ba" stroke="#ffe1ba" stroke-width="1.51"/><path d="M1226,-161L1367,-88L1385,-210Z" fill="#fff1df" stroke="#fff1df" stroke-width="1.51"/><path d="M1255,374L1216,528L1400,459Z" fill="#fff2e2" stroke="#fff2e2" stroke-width="1.51"/><path d="M1265,1031L1232,1152L1338,1029Z" fill="#ffd49c" stroke="#ffd49c" stroke-width="1.51"/><path d="M1246,812L1260,887L1356,899Z" fill="#ffdfb6" stroke="#ffdfb6" stroke-width="1.51"/><path d="M1226,-161L1242,-99L1367,-88Z" fill="#fff3e3" stroke="#fff3e3" stroke-width="1.51"/><path d="M1338,1029L1232,1152L1388,1126Z" fill="#ffd194" stroke="#ffd194" stroke-width="1.51"/><path d="M1260,887L1265,1031L1338,1029Z" fill="#ffd9a6" stroke="#ffd9a6" stroke-width="1.51"/><path d="M1260,887L1338,1029L1356,899Z" fill="#ffdaaa" stroke="#ffdaaa" stroke-width="1.51"/><path d="M1303,28L1265,162L1378,71Z" fill="#fff1e0" stroke="#fff1e0" stroke-width="1.51"/><path d="M1173,641L1216,698L1216,528Z" fill="#fff0de" stroke="#fff0de" stroke-width="1.51"/><path d="M1242,-99L1303,28L1367,-88Z" fill="#fff2e1" stroke="#fff2e1" stroke-width="1.51"/><path d="M1188,435L1216,528L1255,374Z" fill="#fff5e8" stroke="#fff5e8" stroke-width="1.51"/><path d="M1216,698L1246,812L1343,747Z" fill="#ffe6c7" stroke="#ffe6c7" stroke-width="1.51"/><path d="M1110,251L1244,341L1265,162Z" fill="#fff5e9" stroke="#fff5e9" stroke-width="1.51"/><path d="M1260,887L1172,899L1265,1031Z" fill="#ffddb1" stroke="#ffddb1" stroke-width="1.51"/><path d="M1164,57L1265,162L1303,28Z" fill="#fff4e6" stroke="#fff4e6" stroke-width="1.51"/><path d="M1242,-99L1164,57L1303,28Z" fill="#fff4e6" stroke="#fff4e6" stroke-width="1.51"/><path d="M1132,-53L1164,57L1242,-99Z" fill="#fff6eb" stroke="#fff6eb" stroke-width="1.51"/><path d="M1128,146L1110,251L1265,162Z" fill="#fff7ec" stroke="#fff7ec" stroke-width="1.51"/><path d="M1151,1055L1232,1152L1265,1031Z" fill="#ffd6a0" stroke="#ffd6a0" stroke-width="1.51"/><path d="M1172,899L1151,1055L1265,1031Z" fill="#ffdbad" stroke="#ffdbad" stroke-width="1.51"/><path d="M1232,1152L1101,1297L1279,1289Z" fill="#ffcd8b" stroke="#ffcd8b" stroke-width="1.51"/><path d="M1153,1135L1101,1297L1232,1152Z" fill="#ffd195" stroke="#ffd195" stroke-width="1.51"/><path d="M1151,1055L1153,1135L1232,1152Z" fill="#ffd59f" stroke="#ffd59f" stroke-width="1.51"/><path d="M1216,698L1139,798L1246,812Z" fill="#ffe8cb" stroke="#ffe8cb" stroke-width="1.51"/><path d="M1246,812L1172,899L1260,887Z" fill="#ffe2bb" stroke="#ffe2bb" stroke-width="1.51"/><path d="M1164,57L1128,146L1265,162Z" fill="#fff6eb" stroke="#fff6eb" stroke-width="1.51"/><path d="M1244,341L1188,435L1255,374Z" fill="#fff4e7" stroke="#fff4e7" stroke-width="1.51"/><path d="M1139,798L1172,899L1246,812Z" fill="#ffe5c3" stroke="#ffe5c3" stroke-width="1.51"/><path d="M1110,251L1188,435L1244,341Z" fill="#fff6eb" stroke="#fff6eb" stroke-width="1.51"/><path d="M1226,-161L1132,-53L1242,-99Z" fill="#fff6ea" stroke="#fff6ea" stroke-width="1.51"/><path d="M1188,435L1145,520L1216,528Z" fill="#fff6eb" stroke="#fff6eb" stroke-width="1.51"/><path d="M1145,520L1173,641L1216,528Z" fill="#fff5e9" stroke="#fff5e9" stroke-width="1.51"/><path d="M1106,-196L1132,-53L1226,-161Z" fill="#fff7ee" stroke="#fff7ee" stroke-width="1.51"/><path d="M1173,641L1139,798L1216,698Z" fill="#ffecd4" stroke="#ffecd4" stroke-width="1.51"/><path d="M520,1271L386,1288L658,1282Z" fill="#ffd49c" stroke="#ffd49c" stroke-width="1.51"/><path d="M659,-159L770,-146L892,-164Z" fill="#ffffff" stroke="#ffffff" stroke-width="1.51"/><path d="M1052,1263L1101,1297L1153,1135Z" fill="#ffd196" stroke="#ffd196" stroke-width="1.51"/><path d="M1015,1032L1151,1055L1172,899Z" fill="#ffdeb4" stroke="#ffdeb4" stroke-width="1.51"/><path d="M1009,689L1139,798L1173,641Z" fill="#ffefdb" stroke="#ffefdb" stroke-width="1.51"/><path d="M1002,440L1145,520L1188,435Z" fill="#fff9f1" stroke="#fff9f1" stroke-width="1.51"/><path d="M1110,251L1002,440L1188,435Z" fill="#fff9f2" stroke="#fff9f2" stroke-width="1.51"/><path d="M1027,1155L1052,1263L1153,1135Z" fill="#ffd59e" stroke="#ffd59e" stroke-width="1.51"/><path d="M1132,-53L1043,-49L1164,57Z" fill="#fff9f1" stroke="#fff9f1" stroke-width="1.51"/><path d="M986,885L1015,1032L1172,899Z" fill="#ffe4c1" stroke="#ffe4c1" stroke-width="1.51"/><path d="M1139,798L1048,816L1172,899Z" fill="#ffe7c9" stroke="#ffe7c9" stroke-width="1.51"/><path d="M1145,520L1009,689L1173,641Z" fill="#fff5e7" stroke="#fff5e7" stroke-width="1.51"/><path d="M1053,102L1128,146L1164,57Z" fill="#fff9f1" stroke="#fff9f1" stroke-width="1.51"/><path d="M1048,816L986,885L1172,899Z" fill="#ffe8c9" stroke="#ffe8c9" stroke-width="1.51"/><path d="M1106,-196L1043,-49L1132,-53Z" fill="#fffaf3" stroke="#fffaf3" stroke-width="1.51"/><path d="M1009,689L1048,816L1139,798Z" fill="#ffedd6" stroke="#ffedd6" stroke-width="1.51"/><path d="M972,521L1009,689L1145,520Z" fill="#fffaf2" stroke="#fffaf2" stroke-width="1.51"/><path d="M1043,-49L1053,102L1164,57Z" fill="#fffaf4" stroke="#fffaf4" stroke-width="1.51"/><path d="M977,257L1002,440L1110,251Z" fill="#fffcf9" stroke="#fffcf9" stroke-width="1.51"/><path d="M1041,206L1110,251L1128,146Z" fill="#fffaf3" stroke="#fffaf3" stroke-width="1.51"/><path d="M1015,1032L1027,1155L1151,1055Z" fill="#ffdbad" stroke="#ffdbad" stroke-width="1.51"/><path d="M1151,1055L1027,1155L1153,1135Z" fill="#ffd8a5" stroke="#ffd8a5" stroke-width="1.51"/><path d="M972,521L944,614L1009,689Z" fill="#fffaf4" stroke="#fffaf4" stroke-width="1.51"/><path d="M1002,440L972,521L1145,520Z" fill="#fffcf8" stroke="#fffcf8" stroke-width="1.51"/><path d="M986,-171L1043,-49L1106,-196Z" fill="#fffbf7" stroke="#fffbf7" stroke-width="1.51"/><path d="M1052,1263L905,1297L1101,1297Z" fill="#ffd196" stroke="#ffd196" stroke-width="1.51"/><path d="M1053,102L1041,206L1128,146Z" fill="#fffaf5" stroke="#fffaf5" stroke-width="1.51"/><path d="M1041,206L977,257L1110,251Z" fill="#fffcf7" stroke="#fffcf7" stroke-width="1.51"/><path d="M977,257L908,413L1002,440Z" fill="#ffffff" stroke="#ffffff" stroke-width="1.51"/><path d="M1015,1032L944,1114L1027,1155Z" fill="#ffddb1" stroke="#ffddb1" stroke-width="1.51"/><path d="M934,-100L891,92L1043,-49Z" fill="#ffffff" stroke="#ffffff" stroke-width="1.51"/><path d="M986,-171L934,-100L1043,-49Z" fill="#fffefc" stroke="#fffefc" stroke-width="1.51"/><path d="M1009,689L880,801L1048,816Z" fill="#fff1de" stroke="#fff1de" stroke-width="1.51"/><path d="M1027,1155L905,1297L1052,1263Z" fill="#ffd59e" stroke="#ffd59e" stroke-width="1.51"/><path d="M933,194L1041,206L1053,102Z" fill="#fffdfa" stroke="#fffdfa" stroke-width="1.51"/><path d="M891,92L933,194L1053,102Z" fill="#ffffff" stroke="#ffffff" stroke-width="1.51"/><path d="M1043,-49L891,92L1053,102Z" fill="#fffdfc" stroke="#fffdfc" stroke-width="1.51"/><path d="M880,801L986,885L1048,816Z" fill="#ffedd6" stroke="#ffedd6" stroke-width="1.51"/><path d="M791,1261L658,1282L905,1297Z" fill="#ffd49c" stroke="#ffd49c" stroke-width="1.51"/><path d="M944,1114L905,1297L1027,1155Z" fill="#ffd9a8" stroke="#ffd9a8" stroke-width="1.51"/><path d="M933,194L977,257L1041,206Z" fill="#fffefd" stroke="#fffefd" stroke-width="1.51"/><path d="M986,885L853,1039L1015,1032Z" fill="#ffe5c3" stroke="#ffe5c3" stroke-width="1.51"/><path d="M852,328L908,413L977,257Z" fill="#ffffff" stroke="#ffffff" stroke-width="1.51"/><path d="M875,864L853,1039L986,885Z" fill="#ffe8ca" stroke="#ffe8ca" stroke-width="1.51"/><path d="M945,507L972,521L1002,440Z" fill="#fffefe" stroke="#fffefe" stroke-width="1.51"/><path d="M853,1039L944,1114L1015,1032Z" fill="#ffe1b9" stroke="#ffe1b9" stroke-width="1.51"/><path d="M944,614L880,801L1009,689Z" fill="#fff5e9" stroke="#fff5e9" stroke-width="1.51"/><path d="M880,801L875,864L986,885Z" fill="#ffedd5" stroke="#ffedd5" stroke-width="1.51"/><path d="M908,413L945,507L1002,440Z" fill="#ffffff" stroke="#ffffff" stroke-width="1.51"/><path d="M787,678L880,801L944,614Z" fill="#fff5e9" stroke="#fff5e9" stroke-width="1.51"/><path d="M945,507L944,614L972,521Z" fill="#fffefe" stroke="#fffefe" stroke-width="1.51"/><path d="M892,-164L934,-100L986,-171Z" fill="#ffffff" stroke="#ffffff" stroke-width="1.51"/><path d="M816,-90L891,92L934,-100Z" fill="#ffffff" stroke="#ffffff" stroke-width="1.51"/><path d="M791,1261L905,1297L944,1114Z" fill="#ffd7a3" stroke="#ffd7a3" stroke-width="1.51"/><path d="M933,194L852,328L977,257Z" fill="#ffffff" stroke="#ffffff" stroke-width="1.51"/><path d="M816,-90L794,54L891,92Z" fill="#ffffff" stroke="#ffffff" stroke-width="1.51"/><path d="M785,1001L853,1039L875,864Z" fill="#ffe6c5" stroke="#ffe6c5" stroke-width="1.51"/><path d="M743,513L787,678L944,614Z" fill="#fffbf6" stroke="#fffbf6" stroke-width="1.51"/><path d="M853,1039L761,1166L944,1114Z" fill="#ffdeb3" stroke="#ffdeb3" stroke-width="1.51"/><path d="M761,1166L791,1261L944,1114Z" fill="#ffd9a9" stroke="#ffd9a9" stroke-width="1.51"/><path d="M908,413L768,426L945,507Z" fill="#ffffff" stroke="#ffffff" stroke-width="1.51"/><path d="M768,426L743,513L945,507Z" fill="#ffffff" stroke="#ffffff" stroke-width="1.51"/><path d="M743,513L944,614L945,507Z" fill="#fffefe" stroke="#fffefe" stroke-width="1.51"/><path d="M787,678L773,734L880,801Z" fill="#fff3e4" stroke="#fff3e4" stroke-width="1.51"/><path d="M785,299L852,328L933,194Z" fill="#ffffff" stroke="#ffffff" stroke-width="1.51"/><path d="M776,173L785,299L933,194Z" fill="#ffffff" stroke="#ffffff" stroke-width="1.51"/><path d="M891,92L776,173L933,194Z" fill="#ffffff" stroke="#ffffff" stroke-width="1.51"/><path d="M892,-164L816,-90L934,-100Z" fill="#ffffff" stroke="#ffffff" stroke-width="1.51"/><path d="M852,328L768,426L908,413Z" fill="#ffffff" stroke="#ffffff" stroke-width="1.51"/><path d="M745,948L785,1001L875,864Z" fill="#ffe8c9" stroke="#ffe8c9" stroke-width="1.51"/><path d="M794,54L776,173L891,92Z" fill="#ffffff" stroke="#ffffff" stroke-width="1.51"/><path d="M770,-146L816,-90L892,-164Z" fill="#ffffff" stroke="#ffffff" stroke-width="1.51"/><path d="M743,513L703,583L787,678Z" fill="#fffcf8" stroke="#fffcf8" stroke-width="1.51"/><path d="M773,734L875,864L880,801Z" fill="#fff0dc" stroke="#fff0dc" stroke-width="1.51"/><path d="M773,734L745,948L875,864Z" fill="#ffedd5" stroke="#ffedd5" stroke-width="1.51"/><path d="M785,299L768,426L852,328Z" fill="#ffffff" stroke="#ffffff" stroke-width="1.51"/><path d="M785,1001L761,1166L853,1039Z" fill="#ffe0b8" stroke="#ffe0b8" stroke-width="1.51"/><path d="M645,909L745,948L773,734Z" fill="#ffecd3" stroke="#ffecd3" stroke-width="1.51"/><path d="M664,742L645,909L773,734Z" fill="#fff0dc" stroke="#fff0dc" stroke-width="1.51"/><path d="M707,316L768,426L785,299Z" fill="#ffffff" stroke="#ffffff" stroke-width="1.51"/><path d="M667,1046L761,1166L785,1001Z" fill="#ffe0b8" stroke="#ffe0b8" stroke-width="1.51"/><path d="M703,583L700,626L787,678Z" fill="#fff9f3" stroke="#fff9f3" stroke-width="1.51"/><path d="M770,-146L623,-47L816,-90Z" fill="#ffffff" stroke="#ffffff" stroke-width="1.51"/><path d="M623,-47L677,31L816,-90Z" fill="#ffffff" stroke="#ffffff" stroke-width="1.51"/><path d="M677,31L794,54L816,-90Z" fill="#ffffff" stroke="#ffffff" stroke-width="1.51"/><path d="M659,-159L623,-47L770,-146Z" fill="#ffffff" stroke="#ffffff" stroke-width="1.51"/><path d="M626,202L707,316L776,173Z" fill="#ffffff" stroke="#ffffff" stroke-width="1.51"/><path d="M776,173L707,316L785,299Z" fill="#ffffff" stroke="#ffffff" stroke-width="1.51"/><path d="M761,1166L658,1282L791,1261Z" fill="#ffd6a1" stroke="#ffd6a1" stroke-width="1.51"/><path d="M677,31L776,173L794,54Z" fill="#ffffff" stroke="#ffffff" stroke-width="1.51"/><path d="M677,31L626,202L776,173Z" fill="#ffffff" stroke="#ffffff" stroke-width="1.51"/><path d="M700,626L773,734L787,678Z" fill="#fff7ec" stroke="#fff7ec" stroke-width="1.51"/><path d="M700,626L664,742L773,734Z" fill="#fff5e9" stroke="#fff5e9" stroke-width="1.51"/><path d="M745,948L667,1046L785,1001Z" fill="#ffe4c1" stroke="#ffe4c1" stroke-width="1.51"/><path d="M667,1046L636,1143L761,1166Z" fill="#ffddb1" stroke="#ffddb1" stroke-width="1.51"/><path d="M684,464L743,513L768,426Z" fill="#ffffff" stroke="#ffffff" stroke-width="1.51"/><path d="M707,316L684,464L768,426Z" fill="#ffffff" stroke="#ffffff" stroke-width="1.51"/><path d="M636,1143L658,1282L761,1166Z" fill="#ffd9a7" stroke="#ffd9a7" stroke-width="1.51"/><path d="M392,-196L589,-133L659,-159Z" fill="#ffffff" stroke="#ffffff" stroke-width="1.51"/><path d="M645,909L667,1046L745,948Z" fill="#ffe6c5" stroke="#ffe6c5" stroke-width="1.51"/><path d="M684,464L703,583L743,513Z" fill="#ffffff" stroke="#ffffff" stroke-width="1.51"/><path d="M86,1267L-37,1254L215,1303Z" fill="#ffd49c" stroke="#ffd49c" stroke-width="1.51"/><path d="M568,859L645,909L664,742Z" fill="#ffedd7" stroke="#ffedd7" stroke-width="1.51"/><path d="M507,547L582,627L684,464Z" fill="#fffefe" stroke="#fffefe" stroke-width="1.51"/><path d="M582,627L664,742L700,626Z" fill="#fff7ee" stroke="#fff7ee" stroke-width="1.51"/><path d="M684,464L582,627L703,583Z" fill="#fffefc" stroke="#fffefc" stroke-width="1.51"/><path d="M626,202L566,258L707,316Z" fill="#ffffff" stroke="#ffffff" stroke-width="1.51"/><path d="M565,434L684,464L707,316Z" fill="#ffffff" stroke="#ffffff" stroke-width="1.51"/><path d="M566,258L565,434L707,316Z" fill="#ffffff" stroke="#ffffff" stroke-width="1.51"/><path d="M534,30L626,202L677,31Z" fill="#ffffff" stroke="#ffffff" stroke-width="1.51"/><path d="M565,434L507,547L684,464Z" fill="#ffffff" stroke="#ffffff" stroke-width="1.51"/><path d="M582,627L700,626L703,583Z" fill="#fffaf5" stroke="#fffaf5" stroke-width="1.51"/><path d="M589,-133L623,-47L659,-159Z" fill="#ffffff" stroke="#ffffff" stroke-width="1.51"/><path d="M645,909L531,977L667,1046Z" fill="#ffe5c4" stroke="#ffe5c4" stroke-width="1.51"/><path d="M534,30L510,177L626,202Z" fill="#ffffff" stroke="#ffffff" stroke-width="1.51"/><path d="M636,1143L520,1271L658,1282Z" fill="#ffd7a2" stroke="#ffd7a2" stroke-width="1.51"/><path d="M623,-47L534,30L677,31Z" fill="#ffffff" stroke="#ffffff" stroke-width="1.51"/><path d="M582,627L528,744L664,742Z" fill="#fff5e8" stroke="#fff5e8" stroke-width="1.51"/><path d="M528,744L568,859L664,742Z" fill="#fff1de" stroke="#fff1de" stroke-width="1.51"/><path d="M542,1115L636,1143L667,1046Z" fill="#ffdeb3" stroke="#ffdeb3" stroke-width="1.51"/><path d="M531,977L542,1115L667,1046Z" fill="#ffe1bb" stroke="#ffe1bb" stroke-width="1.51"/><path d="M589,-133L563,-58L623,-47Z" fill="#ffffff" stroke="#ffffff" stroke-width="1.51"/><path d="M542,1115L520,1271L636,1143Z" fill="#ffdaa9" stroke="#ffdaa9" stroke-width="1.51"/><path d="M568,859L531,977L645,909Z" fill="#ffe9cc" stroke="#ffe9cc" stroke-width="1.51"/><path d="M563,-58L534,30L623,-47Z" fill="#ffffff" stroke="#ffffff" stroke-width="1.51"/><path d="M510,177L566,258L626,202Z" fill="#ffffff" stroke="#ffffff" stroke-width="1.51"/><path d="M437,323L565,434L566,258Z" fill="#ffffff" stroke="#ffffff" stroke-width="1.51"/><path d="M437,323L444,416L565,434Z" fill="#ffffff" stroke="#ffffff" stroke-width="1.51"/><path d="M463,876L531,977L568,859Z" fill="#ffeace" stroke="#ffeace" stroke-width="1.51"/><path d="M456,-81L563,-58L589,-133Z" fill="#ffffff" stroke="#ffffff" stroke-width="1.51"/><path d="M392,-196L456,-81L589,-133Z" fill="#ffffff" stroke="#ffffff" stroke-width="1.51"/><path d="M428,1146L520,1271L542,1115Z" fill="#ffdaa9" stroke="#ffdaa9" stroke-width="1.51"/><path d="M531,977L443,1057L542,1115Z" fill="#ffe1ba" stroke="#ffe1ba" stroke-width="1.51"/><path d="M528,744L458,766L568,859Z" fill="#fff0dd" stroke="#fff0dd" stroke-width="1.51"/><path d="M377,619L528,744L582,627Z" fill="#fff7ee" stroke="#fff7ee" stroke-width="1.51"/><path d="M507,547L377,619L582,627Z" fill="#fffbf7" stroke="#fffbf7" stroke-width="1.51"/><path d="M456,-81L534,30L563,-58Z" fill="#ffffff" stroke="#ffffff" stroke-width="1.51"/><path d="M444,416L507,547L565,434Z" fill="#ffffff" stroke="#ffffff" stroke-width="1.51"/><path d="M458,766L463,876L568,859Z" fill="#ffeed7" stroke="#ffeed7" stroke-width="1.51"/><path d="M510,177L437,323L566,258Z" fill="#ffffff" stroke="#ffffff" stroke-width="1.51"/><path d="M377,619L458,766L528,744Z" fill="#fff5e8" stroke="#fff5e8" stroke-width="1.51"/><path d="M441,543L377,619L507,547Z" fill="#fffdfb" stroke="#fffdfb" stroke-width="1.51"/><path d="M444,416L441,543L507,547Z" fill="#ffffff" stroke="#ffffff" stroke-width="1.51"/><path d="M376,49L510,177L534,30Z" fill="#ffffff" stroke="#ffffff" stroke-width="1.51"/><path d="M443,1057L428,1146L542,1115Z" fill="#ffdeb3" stroke="#ffdeb3" stroke-width="1.51"/><path d="M388,198L437,323L510,177Z" fill="#ffffff" stroke="#ffffff" stroke-width="1.51"/><path d="M456,-81L376,49L534,30Z" fill="#ffffff" stroke="#ffffff" stroke-width="1.51"/><path d="M428,1146L386,1288L520,1271Z" fill="#ffd6a2" stroke="#ffd6a2" stroke-width="1.51"/><path d="M463,876L443,1057L531,977Z" fill="#ffe6c5" stroke="#ffe6c5" stroke-width="1.51"/><path d="M376,49L388,198L510,177Z" fill="#ffffff" stroke="#ffffff" stroke-width="1.51"/><path d="M388,198L346,290L437,323Z" fill="#ffffff" stroke="#ffffff" stroke-width="1.51"/><path d="M278,917L275,1002L443,1057Z" fill="#ffe4c2" stroke="#ffe4c2" stroke-width="1.51"/><path d="M345,446L441,543L444,416Z" fill="#ffffff" stroke="#ffffff" stroke-width="1.51"/><path d="M295,-30L376,49L456,-81Z" fill="#ffffff" stroke="#ffffff" stroke-width="1.51"/><path d="M377,619L333,733L458,766Z" fill="#fff5e8" stroke="#fff5e8" stroke-width="1.51"/><path d="M278,917L443,1057L463,876Z" fill="#ffe7c8" stroke="#ffe7c8" stroke-width="1.51"/><path d="M458,766L333,733L463,876Z" fill="#fff0dd" stroke="#fff0dd" stroke-width="1.51"/><path d="M333,733L278,917L463,876Z" fill="#ffedd6" stroke="#ffedd6" stroke-width="1.51"/><path d="M392,-196L295,-30L456,-81Z" fill="#ffffff" stroke="#ffffff" stroke-width="1.51"/><path d="M295,-30L343,43L376,49Z" fill="#ffffff" stroke="#ffffff" stroke-width="1.51"/><path d="M271,1147L386,1288L428,1146Z" fill="#ffd9a7" stroke="#ffd9a7" stroke-width="1.51"/><path d="M346,290L345,446L437,323Z" fill="#ffffff" stroke="#ffffff" stroke-width="1.51"/><path d="M271,1147L428,1146L443,1057Z" fill="#ffddb1" stroke="#ffddb1" stroke-width="1.51"/><path d="M275,1002L271,1147L443,1057Z" fill="#ffe0b8" stroke="#ffe0b8" stroke-width="1.51"/><path d="M437,323L345,446L444,416Z" fill="#ffffff" stroke="#ffffff" stroke-width="1.51"/><path d="M345,446L377,619L441,543Z" fill="#ffffff" stroke="#ffffff" stroke-width="1.51"/><path d="M345,446L263,587L377,619Z" fill="#fffefd" stroke="#fffefd" stroke-width="1.51"/><path d="M309,656L333,733L377,619Z" fill="#fff7ed" stroke="#fff7ed" stroke-width="1.51"/><path d="M271,1147L308,1293L386,1288Z" fill="#ffd6a0" stroke="#ffd6a0" stroke-width="1.51"/><path d="M376,49L343,43L388,198Z" fill="#ffffff" stroke="#ffffff" stroke-width="1.51"/><path d="M270,-227L213,-168L295,-30Z" fill="#ffffff" stroke="#ffffff" stroke-width="1.51"/><path d="M295,196L346,290L388,198Z" fill="#ffffff" stroke="#ffffff" stroke-width="1.51"/><path d="M343,43L295,196L388,198Z" fill="#ffffff" stroke="#ffffff" stroke-width="1.51"/><path d="M270,-227L295,-30L392,-196Z" fill="#ffffff" stroke="#ffffff" stroke-width="1.51"/><path d="M177,381L345,446L346,290Z" fill="#ffffff" stroke="#ffffff" stroke-width="1.51"/><path d="M263,587L309,656L377,619Z" fill="#fffaf4" stroke="#fffaf4" stroke-width="1.51"/><path d="M213,-168L208,-69L295,-30Z" fill="#ffffff" stroke="#ffffff" stroke-width="1.51"/><path d="M271,1147L218,1167L308,1293Z" fill="#ffd8a6" stroke="#ffd8a6" stroke-width="1.51"/><path d="M161,761L278,917L333,733Z" fill="#ffefdb" stroke="#ffefdb" stroke-width="1.51"/><path d="M198,59L295,196L343,43Z" fill="#ffffff" stroke="#ffffff" stroke-width="1.51"/><path d="M195,524L263,587L345,446Z" fill="#ffffff" stroke="#ffffff" stroke-width="1.51"/><path d="M295,196L221,203L346,290Z" fill="#ffffff" stroke="#ffffff" stroke-width="1.51"/><path d="M221,203L180,253L346,290Z" fill="#ffffff" stroke="#ffffff" stroke-width="1.51"/><path d="M180,253L177,381L346,290Z" fill="#ffffff" stroke="#ffffff" stroke-width="1.51"/><path d="M177,381L195,524L345,446Z" fill="#ffffff" stroke="#ffffff" stroke-width="1.51"/><path d="M295,-30L198,59L343,43Z" fill="#ffffff" stroke="#ffffff" stroke-width="1.51"/><path d="M161,761L192,911L278,917Z" fill="#ffecd3" stroke="#ffecd3" stroke-width="1.51"/><path d="M198,59L221,203L295,196Z" fill="#ffffff" stroke="#ffffff" stroke-width="1.51"/><path d="M309,656L182,705L333,733Z" fill="#fff5e9" stroke="#fff5e9" stroke-width="1.51"/><path d="M182,705L161,761L333,733Z" fill="#fff3e5" stroke="#fff3e5" stroke-width="1.51"/><path d="M-54,-167L73,-132L270,-227Z" fill="#ffffff" stroke="#ffffff" stroke-width="1.51"/><path d="M220,1009L271,1147L275,1002Z" fill="#ffe1ba" stroke="#ffe1ba" stroke-width="1.51"/><path d="M218,1167L215,1303L308,1293Z" fill="#ffd59f" stroke="#ffd59f" stroke-width="1.51"/><path d="M263,587L182,705L309,656Z" fill="#fff8f0" stroke="#fff8f0" stroke-width="1.51"/><path d="M73,-132L213,-168L270,-227Z" fill="#ffffff" stroke="#ffffff" stroke-width="1.51"/><path d="M220,1009L218,1167L271,1147Z" fill="#ffddb3" stroke="#ffddb3" stroke-width="1.51"/><path d="M220,1009L275,1002L278,917Z" fill="#ffe5c4" stroke="#ffe5c4" stroke-width="1.51"/><path d="M208,-69L198,59L295,-30Z" fill="#ffffff" stroke="#ffffff" stroke-width="1.51"/><path d="M192,911L220,1009L278,917Z" fill="#ffe7c8" stroke="#ffe7c8" stroke-width="1.51"/><path d="M195,524L182,705L263,587Z" fill="#fffbf6" stroke="#fffbf6" stroke-width="1.51"/><path d="M65,584L65,650L182,705Z" fill="#fff8f0" stroke="#fff8f0" stroke-width="1.51"/><path d="M161,761L85,894L192,911Z" fill="#ffecd4" stroke="#ffecd4" stroke-width="1.51"/><path d="M85,894L58,1053L192,911Z" fill="#ffe7c7" stroke="#ffe7c7" stroke-width="1.51"/><path d="M177,381L81,389L195,524Z" fill="#ffffff" stroke="#ffffff" stroke-width="1.51"/><path d="M65,584L182,705L195,524Z" fill="#fffbf6" stroke="#fffbf6" stroke-width="1.51"/><path d="M31,-42L198,59L208,-69Z" fill="#ffffff" stroke="#ffffff" stroke-width="1.51"/><path d="M73,-132L208,-69L213,-168Z" fill="#ffffff" stroke="#ffffff" stroke-width="1.51"/><path d="M58,1053L62,1147L218,1167Z" fill="#ffddb1" stroke="#ffddb1" stroke-width="1.51"/><path d="M86,1267L215,1303L218,1167Z" fill="#ffd6a0" stroke="#ffd6a0" stroke-width="1.51"/><path d="M62,1147L86,1267L218,1167Z" fill="#ffd9a7" stroke="#ffd9a7" stroke-width="1.51"/><path d="M58,1053L218,1167L220,1009Z" fill="#ffe0b7" stroke="#ffe0b7" stroke-width="1.51"/><path d="M192,911L58,1053L220,1009Z" fill="#ffe5c2" stroke="#ffe5c2" stroke-width="1.51"/><path d="M198,59L105,154L221,203Z" fill="#ffffff" stroke="#ffffff" stroke-width="1.51"/><path d="M105,154L180,253L221,203Z" fill="#ffffff" stroke="#ffffff" stroke-width="1.51"/><path d="M31,-42L42,62L198,59Z" fill="#ffffff" stroke="#ffffff" stroke-width="1.51"/><path d="M73,-132L31,-42L208,-69Z" fill="#ffffff" stroke="#ffffff" stroke-width="1.51"/><path d="M76,768L85,894L161,761Z" fill="#ffefdb" stroke="#ffefdb" stroke-width="1.51"/><path d="M81,389L177,381L180,253Z" fill="#ffffff" stroke="#ffffff" stroke-width="1.51"/><path d="M33,327L81,389L180,253Z" fill="#ffffff" stroke="#ffffff" stroke-width="1.51"/><path d="M81,389L65,584L195,524Z" fill="#ffffff" stroke="#ffffff" stroke-width="1.51"/><path d="M42,62L105,154L198,59Z" fill="#ffffff" stroke="#ffffff" stroke-width="1.51"/><path d="M76,768L161,761L182,705Z" fill="#fff3e3" stroke="#fff3e3" stroke-width="1.51"/><path d="M65,650L76,768L182,705Z" fill="#fff5e8" stroke="#fff5e8" stroke-width="1.51"/><path d="M105,154L33,327L180,253Z" fill="#ffffff" stroke="#ffffff" stroke-width="1.51"/><path d="M-17,526L65,584L81,389Z" fill="#ffffff" stroke="#ffffff" stroke-width="1.51"/><path d="M-76,982L58,1053L85,894Z" fill="#ffe5c4" stroke="#ffe5c4" stroke-width="1.51"/><path d="M62,1147L-37,1254L86,1267Z" fill="#ffd7a3" stroke="#ffd7a3" stroke-width="1.51"/><path d="M42,62L-65,217L105,154Z" fill="#ffffff" stroke="#ffffff" stroke-width="1.51"/><path d="M-65,217L33,327L105,154Z" fill="#ffffff" stroke="#ffffff" stroke-width="1.51"/><path d="M-65,217L-50,300L33,327Z" fill="#ffffff" stroke="#ffffff" stroke-width="1.51"/><path d="M65,650L-71,666L76,768Z" fill="#fff6ea" stroke="#fff6ea" stroke-width="1.51"/><path d="M-95,428L-17,526L81,389Z" fill="#ffffff" stroke="#ffffff" stroke-width="1.51"/><path d="M-82,938L-76,982L85,894Z" fill="#ffe8c9" stroke="#ffe8c9" stroke-width="1.51"/><path d="M76,768L-108,800L85,894Z" fill="#ffeed9" stroke="#ffeed9" stroke-width="1.51"/><path d="M-108,800L-82,938L85,894Z" fill="#ffebd1" stroke="#ffebd1" stroke-width="1.51"/><path d="M-12,45L-65,217L42,62Z" fill="#ffffff" stroke="#ffffff" stroke-width="1.51"/><path d="M31,-42L-12,45L42,62Z" fill="#ffffff" stroke="#ffffff" stroke-width="1.51"/><path d="M33,327L-95,428L81,389Z" fill="#ffffff" stroke="#ffffff" stroke-width="1.51"/><path d="M-71,666L-108,800L76,768Z" fill="#fff3e3" stroke="#fff3e3" stroke-width="1.51"/><path d="M58,1053L-102,1142L62,1147Z" fill="#ffddb2" stroke="#ffddb2" stroke-width="1.51"/><path d="M-54,-167L31,-42L73,-132Z" fill="#ffffff" stroke="#ffffff" stroke-width="1.51"/><path d="M-54,-167L-70,-60L31,-42Z" fill="#ffffff" stroke="#ffffff" stroke-width="1.51"/><path d="M-102,1142L-37,1254L62,1147Z" fill="#ffd9a9" stroke="#ffd9a9" stroke-width="1.51"/><path d="M-17,526L-71,666L65,584Z" fill="#fffcf8" stroke="#fffcf8" stroke-width="1.51"/><path d="M65,584L-71,666L65,650Z" fill="#fff9f2" stroke="#fff9f2" stroke-width="1.51"/><path d="M-76,982L-102,1142L58,1053Z" fill="#ffe1b9" stroke="#ffe1b9" stroke-width="1.51"/><path d="M-50,300L-95,428L33,327Z" fill="#ffffff" stroke="#ffffff" stroke-width="1.51"/><path d="M-70,-60L-12,45L31,-42Z" fill="#ffffff" stroke="#ffffff" stroke-width="1.51"/><path d="M-141,526L-71,666L-17,526Z" fill="#fffdfa" stroke="#fffdfa" stroke-width="1.51"/><path d="M-95,428L-141,526L-17,526Z" fill="#ffffff" stroke="#ffffff" stroke-width="1.51"/><path d="M-70,-60L-183,59L-12,45Z" fill="#ffffff" stroke="#ffffff" stroke-width="1.51"/><path d="M-169,173L-65,217L-12,45Z" fill="#ffffff" stroke="#ffffff" stroke-width="1.51"/><path d="M-183,59L-169,173L-12,45Z" fill="#ffffff" stroke="#ffffff" stroke-width="1.51"/><path d="M-144,973L-102,1142L-76,982Z" fill="#ffe2bd" stroke="#ffe2bd" stroke-width="1.51"/><path d="M-141,526L-158,650L-71,666Z" fill="#fffaf5" stroke="#fffaf5" stroke-width="1.51"/><path d="M-161,757L-108,800L-71,666Z" fill="#fff3e4" stroke="#fff3e4" stroke-width="1.51"/><path d="M-137,305L-95,428L-50,300Z" fill="#ffffff" stroke="#ffffff" stroke-width="1.51"/><path d="M-102,1142L-158,1225L-37,1254Z" fill="#ffd8a5" stroke="#ffd8a5" stroke-width="1.51"/><path d="M-144,973L-202,1102L-102,1142Z" fill="#ffe0b7" stroke="#ffe0b7" stroke-width="1.51"/><path d="M-137,305L-158,409L-95,428Z" fill="#ffffff" stroke="#ffffff" stroke-width="1.51"/><path d="M-175,-161L-70,-60L-54,-167Z" fill="#ffffff" stroke="#ffffff" stroke-width="1.51"/><path d="M-65,217L-137,305L-50,300Z" fill="#ffffff" stroke="#ffffff" stroke-width="1.51"/><path d="M-175,-161L-196,-87L-70,-60Z" fill="#ffffff" stroke="#ffffff" stroke-width="1.51"/><path d="M-108,800L-222,914L-82,938Z" fill="#ffebd0" stroke="#ffebd0" stroke-width="1.51"/><path d="M-158,650L-161,757L-71,666Z" fill="#fff6ea" stroke="#fff6ea" stroke-width="1.51"/><path d="M-196,-87L-183,59L-70,-60Z" fill="#ffffff" stroke="#ffffff" stroke-width="1.51"/><path d="M-169,173L-137,305L-65,217Z" fill="#ffffff" stroke="#ffffff" stroke-width="1.51"/><path d="M-222,914L-144,973L-82,938Z" fill="#ffe7c9" stroke="#ffe7c9" stroke-width="1.51"/><path d="M-82,938L-144,973L-76,982Z" fill="#ffe6c6" stroke="#ffe6c6" stroke-width="1.51"/><path d="M-158,409L-141,526L-95,428Z" fill="#ffffff" stroke="#ffffff" stroke-width="1.51"/><path d="M-161,757L-222,914L-108,800Z" fill="#ffeed9" stroke="#ffeed9" stroke-width="1.51"/><path d="M-202,1102L-158,1225L-102,1142Z" fill="#ffdbac" stroke="#ffdbac" stroke-width="1.51"/><path d="M-222,914L-202,1102L-144,973Z" fill="#ffe4c1" stroke="#ffe4c1" stroke-width="1.51"/><path d="M-169,173L-158,409L-137,305Z" fill="#ffffff" stroke="#ffffff" stroke-width="1.51"/><path d="M-158,409L-158,650L-141,526Z" fill="#ffffff" stroke="#ffffff" stroke-width="1.51"/><path d="M-222,914L-161,757L-158,650Z" fill="#fff1df" stroke="#fff1df" stroke-width="1.51"/><path d="M-222,914L-158,650L-158,409Z" fill="#fff8ef" stroke="#fff8ef" stroke-width="1.51"/><path d="M-169,173L-222,914L-158,409Z" fill="#ffffff" stroke="#ffffff" stroke-width="1.51"/><path d="M-183,59L-222,914L-169,173Z" fill="#ffffff" stroke="#ffffff" stroke-width="1.51"/><path d="M-196,-87L-222,914L-183,59Z" fill="#ffffff" stroke="#ffffff" stroke-width="1.51"/></svg>