<svg xmlns="http://www.w3.org/2000/svg" width="1920" height="1080"><path d="M831,1340L-162,1418L1208,1411Z" fill="#56c8cd" stroke="#56c8cd" stroke-width="1.51"/><path d="M733,-274L1101,-281L1839,-348Z" fill="#54aad9" stroke="#54aad9" stroke-width="1.51"/><path d="M-239,-336L733,-274L1839,-348Z" fill="#52a3db" stroke="#52a3db" stroke-width="1.51"/><path d="M1101,-281L1419,-241L1839,-348Z" fill="#55add7" stroke="#55add7" stroke-width="1.51"/><path d="M1839,1268L1622,1413L2219,1390Z" fill="#53dac6" stroke="#53dac6" stroke-width="1.51"/><path d="M2019,1196L2081,1274L2230,991Z" fill="#53d9c7" stroke="#53d9c7" stroke-width="1.51"/><path d="M2081,1274L2219,1390L2230,991Z" fill="#53dcc5" stroke="#53dcc5" stroke-width="1.51"/><path d="M2104,187L1998,372L2276,519Z" fill="#57c7cd" stroke="#57c7cd" stroke-width="1.51"/><path d="M2131,-258L2117,-101L2276,519Z" fill="#57c1d0" stroke="#57c1d0" stroke-width="1.51"/><path d="M2117,-101L2104,187L2276,519Z" fill="#57c4cf" stroke="#57c4cf" stroke-width="1.51"/><path d="M2052,749L2230,991L2298,895Z" fill="#54d4c9" stroke="#54d4c9" stroke-width="1.51"/><path d="M2176,681L2052,749L2298,895Z" fill="#56d1ca" stroke="#56d1ca" stroke-width="1.51"/><path d="M2276,519L2176,681L2298,895Z" fill="#56d0ca" stroke="#56d0ca" stroke-width="1.51"/><path d="M2230,991L2219,1390L2298,895Z" fill="#53dac6" stroke="#53dac6" stroke-width="1.51"/><path d="M1998,372L2176,681L2276,519Z" fill="#57cbcc" stroke="#57cbcc" stroke-width="1.51"/><path d="M1839,-348L1872,-304L2131,-258Z" fill="#56b5d5" stroke="#56b5d5" stroke-width="1.51"/><path d="M2081,1274L1839,1268L2219,1390Z" fill="#53dcc6" stroke="#53dcc6" stroke-width="1.51"/><path d="M1980,975L2019,1196L2230,991Z" fill="#54d6c8" stroke="#54d6c8" stroke-width="1.51"/><path d="M2052,749L1980,975L2230,991Z" fill="#55d3c9" stroke="#55d3c9" stroke-width="1.51"/><path d="M1998,372L2052,749L2176,681Z" fill="#56cccc" stroke="#56cccc" stroke-width="1.51"/><path d="M2000,-128L2104,187L2117,-101Z" fill="#57bed1" stroke="#57bed1" stroke-width="1.51"/><path d="M1998,372L1792,659L2052,749Z" fill="#57cacd" stroke="#57cacd" stroke-width="1.51"/><path d="M2000,-128L2117,-101L2131,-258Z" fill="#57bad3" stroke="#57bad3" stroke-width="1.51"/><path d="M1872,-304L2000,-128L2131,-258Z" fill="#56b7d4" stroke="#56b7d4" stroke-width="1.51"/><path d="M1716,242L1865,312L2000,-128Z" fill="#57bed1" stroke="#57bed1" stroke-width="1.51"/><path d="M2000,-128L1865,312L2104,187Z" fill="#57bfd0" stroke="#57bfd0" stroke-width="1.51"/><path d="M1865,312L1998,372L2104,187Z" fill="#57c3cf" stroke="#57c3cf" stroke-width="1.51"/><path d="M1745,489L1792,659L1998,372Z" fill="#57c6ce" stroke="#57c6ce" stroke-width="1.51"/><path d="M1699,-105L1716,242L2000,-128Z" fill="#56bad3" stroke="#56bad3" stroke-width="1.51"/><path d="M1811,840L1980,975L2052,749Z" fill="#56d0ca" stroke="#56d0ca" stroke-width="1.51"/><path d="M2019,1196L1839,1268L2081,1274Z" fill="#54d9c6" stroke="#54d9c6" stroke-width="1.51"/><path d="M1980,975L1777,1140L2019,1196Z" fill="#55d5c8" stroke="#55d5c8" stroke-width="1.51"/><path d="M1792,659L1811,840L2052,749Z" fill="#56cccc" stroke="#56cccc" stroke-width="1.51"/><path d="M1865,312L1745,489L1998,372Z" fill="#57c3cf" stroke="#57c3cf" stroke-width="1.51"/><path d="M1777,1140L1839,1268L2019,1196Z" fill="#54d7c8" stroke="#54d7c8" stroke-width="1.51"/><path d="M1872,-304L1699,-105L2000,-128Z" fill="#56b6d4" stroke="#56b6d4" stroke-width="1.51"/><path d="M1811,840L1777,1140L1980,975Z" fill="#56d1ca" stroke="#56d1ca" stroke-width="1.51"/><path d="M1699,-105L1542,19L1716,242Z" fill="#56b9d3" stroke="#56b9d3" stroke-width="1.51"/><path d="M1618,1095L1777,1140L1811,840Z" fill="#56d0ca" stroke="#56d0ca" stroke-width="1.51"/><path d="M1716,242L1745,489L1865,312Z" fill="#57c1d0" stroke="#57c1d0" stroke-width="1.51"/><path d="M1839,-348L1699,-105L1872,-304Z" fill="#56b4d5" stroke="#56b4d5" stroke-width="1.51"/><path d="M1419,-241L1699,-105L1839,-348Z" fill="#56b2d6" stroke="#56b2d6" stroke-width="1.51"/><path d="M1777,1140L1622,1413L1839,1268Z" fill="#54d6c7" stroke="#54d6c7" stroke-width="1.51"/><path d="M1716,242L1590,400L1745,489Z" fill="#57c0d0" stroke="#57c0d0" stroke-width="1.51"/><path d="M1618,1095L1622,1413L1777,1140Z" fill="#55d4c8" stroke="#55d4c8" stroke-width="1.51"/><path d="M1434,969L1618,1095L1811,840Z" fill="#56cdcb" stroke="#56cdcb" stroke-width="1.51"/><path d="M1548,677L1434,969L1811,840Z" fill="#57c9cd" stroke="#57c9cd" stroke-width="1.51"/><path d="M1792,659L1548,677L1811,840Z" fill="#56c9cd" stroke="#56c9cd" stroke-width="1.51"/><path d="M1745,489L1548,677L1792,659Z" fill="#57c6ce" stroke="#57c6ce" stroke-width="1.51"/><path d="M1590,400L1548,677L1745,489Z" fill="#57c3cf" stroke="#57c3cf" stroke-width="1.51"/><path d="M1441,107L1590,400L1716,242Z" fill="#57bcd2" stroke="#57bcd2" stroke-width="1.51"/><path d="M1542,19L1441,107L1716,242Z" fill="#56b9d3" stroke="#56b9d3" stroke-width="1.51"/><path d="M1419,-241L1542,19L1699,-105Z" fill="#56b3d5" stroke="#56b3d5" stroke-width="1.51"/><path d="M128,1305L-162,1418L831,1340Z" fill="#57c1d0" stroke="#57c1d0" stroke-width="1.51"/><path d="M1441,107L1300,169L1590,400Z" fill="#57b9d3" stroke="#57b9d3" stroke-width="1.51"/><path d="M1265,517L1548,677L1590,400Z" fill="#57c1d0" stroke="#57c1d0" stroke-width="1.51"/><path d="M1618,1095L1324,1061L1622,1413Z" fill="#55d0ca" stroke="#55d0ca" stroke-width="1.51"/><path d="M1324,1061L1208,1411L1622,1413Z" fill="#56d1ca" stroke="#56d1ca" stroke-width="1.51"/><path d="M1434,969L1324,1061L1618,1095Z" fill="#56cccc" stroke="#56cccc" stroke-width="1.51"/><path d="M1258,882L1434,969L1548,677Z" fill="#57c7ce" stroke="#57c7ce" stroke-width="1.51"/><path d="M1300,169L1265,517L1590,400Z" fill="#57bbd2" stroke="#57bbd2" stroke-width="1.51"/><path d="M1419,-241L1298,-186L1542,19Z" fill="#56b0d6" stroke="#56b0d6" stroke-width="1.51"/><path d="M1298,-186L1314,58L1542,19Z" fill="#56b2d6" stroke="#56b2d6" stroke-width="1.51"/><path d="M1314,58L1441,107L1542,19Z" fill="#56b5d4" stroke="#56b5d4" stroke-width="1.51"/><path d="M1265,517L1203,737L1548,677Z" fill="#57c1d0" stroke="#57c1d0" stroke-width="1.51"/><path d="M1203,737L1258,882L1548,677Z" fill="#57c4cf" stroke="#57c4cf" stroke-width="1.51"/><path d="M1143,1194L1208,1411L1324,1061Z" fill="#56cdcb" stroke="#56cdcb" stroke-width="1.51"/><path d="M1101,-281L1298,-186L1419,-241Z" fill="#55acd8" stroke="#55acd8" stroke-width="1.51"/><path d="M1314,58L1300,169L1441,107Z" fill="#56b5d4" stroke="#56b5d4" stroke-width="1.51"/><path d="M1258,882L1324,1061L1434,969Z" fill="#57c9cd" stroke="#57c9cd" stroke-width="1.51"/><path d="M391,1250L128,1305L831,1340Z" fill="#56c3cf" stroke="#56c3cf" stroke-width="1.51"/><path d="M1132,1359L831,1340L1208,1411Z" fill="#56cecb" stroke="#56cecb" stroke-width="1.51"/><path d="M1143,1194L1132,1359L1208,1411Z" fill="#56cecb" stroke="#56cecb" stroke-width="1.51"/><path d="M1064,178L962,368L1265,517Z" fill="#57b7d4" stroke="#57b7d4" stroke-width="1.51"/><path d="M1128,648L1203,737L1265,517Z" fill="#57bed1" stroke="#57bed1" stroke-width="1.51"/><path d="M1101,-281L1015,80L1298,-186Z" fill="#55add8" stroke="#55add8" stroke-width="1.51"/><path d="M1064,178L1265,517L1300,169Z" fill="#56b7d4" stroke="#56b7d4" stroke-width="1.51"/><path d="M1298,-186L1015,80L1314,58Z" fill="#55b0d6" stroke="#55b0d6" stroke-width="1.51"/><path d="M1258,882L1093,976L1324,1061Z" fill="#57c7ce" stroke="#57c7ce" stroke-width="1.51"/><path d="M1093,976L1143,1194L1324,1061Z" fill="#56c9cd" stroke="#56c9cd" stroke-width="1.51"/><path d="M944,0L1015,80L1101,-281Z" fill="#55acd8" stroke="#55acd8" stroke-width="1.51"/><path d="M1064,178L1300,169L1314,58Z" fill="#56b4d5" stroke="#56b4d5" stroke-width="1.51"/><path d="M1015,80L1064,178L1314,58Z" fill="#56b1d6" stroke="#56b1d6" stroke-width="1.51"/><path d="M962,368L1128,648L1265,517Z" fill="#57bbd3" stroke="#57bbd3" stroke-width="1.51"/><path d="M1203,737L1093,976L1258,882Z" fill="#57c4cf" stroke="#57c4cf" stroke-width="1.51"/><path d="M1128,648L930,731L1203,737Z" fill="#57bfd1" stroke="#57bfd1" stroke-width="1.51"/><path d="M930,731L1093,976L1203,737Z" fill="#57c1d0" stroke="#57c1d0" stroke-width="1.51"/><path d="M962,368L930,731L1128,648Z" fill="#57bbd2" stroke="#57bbd2" stroke-width="1.51"/><path d="M1093,976L902,984L1143,1194Z" fill="#57c6ce" stroke="#57c6ce" stroke-width="1.51"/><path d="M902,984L834,1107L1143,1194Z" fill="#57c6ce" stroke="#57c6ce" stroke-width="1.51"/><path d="M831,1340L1132,1359L1143,1194Z" fill="#56cbcc" stroke="#56cbcc" stroke-width="1.51"/><path d="M834,1107L831,1340L1143,1194Z" fill="#57c8cd" stroke="#57c8cd" stroke-width="1.51"/><path d="M930,731L902,984L1093,976Z" fill="#57c2d0" stroke="#57c2d0" stroke-width="1.51"/><path d="M955,161L962,368L1064,178Z" fill="#56b2d6" stroke="#56b2d6" stroke-width="1.51"/><path d="M757,-146L944,0L1101,-281Z" fill="#54a9d9" stroke="#54a9d9" stroke-width="1.51"/><path d="M733,-274L757,-146L1101,-281Z" fill="#53a6da" stroke="#53a6da" stroke-width="1.51"/><path d="M-239,-336L443,-154L733,-274Z" fill="#509ddd" stroke="#509ddd" stroke-width="1.51"/><path d="M743,427L930,731L962,368Z" fill="#56b7d4" stroke="#56b7d4" stroke-width="1.51"/><path d="M1015,80L955,161L1064,178Z" fill="#56b1d6" stroke="#56b1d6" stroke-width="1.51"/><path d="M-239,-336L172,-141L443,-154Z" fill="#509bde" stroke="#509bde" stroke-width="1.51"/><path d="M743,427L678,573L930,731Z" fill="#57b7d4" stroke="#57b7d4" stroke-width="1.51"/><path d="M944,0L955,161L1015,80Z" fill="#56aed7" stroke="#56aed7" stroke-width="1.51"/><path d="M590,773L902,984L930,731Z" fill="#57bdd2" stroke="#57bdd2" stroke-width="1.51"/><path d="M944,0L731,212L955,161Z" fill="#55aed7" stroke="#55aed7" stroke-width="1.51"/><path d="M955,161L731,212L962,368Z" fill="#56b1d6" stroke="#56b1d6" stroke-width="1.51"/><path d="M731,212L743,427L962,368Z" fill="#56b2d6" stroke="#56b2d6" stroke-width="1.51"/><path d="M661,-114L731,212L757,-146Z" fill="#54a9d9" stroke="#54a9d9" stroke-width="1.51"/><path d="M757,-146L731,212L944,0Z" fill="#55abd9" stroke="#55abd9" stroke-width="1.51"/><path d="M678,573L590,773L930,731Z" fill="#57b9d3" stroke="#57b9d3" stroke-width="1.51"/><path d="M597,1215L391,1250L831,1340Z" fill="#57c4ce" stroke="#57c4ce" stroke-width="1.51"/><path d="M523,1028L834,1107L902,984Z" fill="#57c1d0" stroke="#57c1d0" stroke-width="1.51"/><path d="M590,773L523,1028L902,984Z" fill="#57bdd1" stroke="#57bdd1" stroke-width="1.51"/><path d="M597,1215L831,1340L834,1107Z" fill="#57c6ce" stroke="#57c6ce" stroke-width="1.51"/><path d="M523,1028L597,1215L834,1107Z" fill="#57c2d0" stroke="#57c2d0" stroke-width="1.51"/><path d="M443,-154L309,238L661,-114Z" fill="#53a5db" stroke="#53a5db" stroke-width="1.51"/><path d="M661,-114L309,238L731,212Z" fill="#54a9d9" stroke="#54a9d9" stroke-width="1.51"/><path d="M731,212L537,416L743,427Z" fill="#56b0d6" stroke="#56b0d6" stroke-width="1.51"/><path d="M733,-274L661,-114L757,-146Z" fill="#53a5db" stroke="#53a5db" stroke-width="1.51"/><path d="M172,-141L325,-128L443,-154Z" fill="#519fdc" stroke="#519fdc" stroke-width="1.51"/><path d="M537,416L678,573L743,427Z" fill="#56b3d6" stroke="#56b3d6" stroke-width="1.51"/><path d="M475,972L523,1028L590,773Z" fill="#57bbd2" stroke="#57bbd2" stroke-width="1.51"/><path d="M443,-154L661,-114L733,-274Z" fill="#52a3db" stroke="#52a3db" stroke-width="1.51"/><path d="M309,238L537,416L731,212Z" fill="#55add8" stroke="#55add8" stroke-width="1.51"/><path d="M242,17L309,238L443,-154Z" fill="#53a4db" stroke="#53a4db" stroke-width="1.51"/><path d="M446,591L590,773L678,573Z" fill="#56b5d4" stroke="#56b5d4" stroke-width="1.51"/><path d="M537,416L446,591L678,573Z" fill="#56b3d6" stroke="#56b3d6" stroke-width="1.51"/><path d="M523,1028L461,1129L597,1215Z" fill="#57c0d0" stroke="#57c0d0" stroke-width="1.51"/><path d="M325,-128L242,17L443,-154Z" fill="#52a1dc" stroke="#52a1dc" stroke-width="1.51"/><path d="M461,1129L391,1250L597,1215Z" fill="#57c1d0" stroke="#57c1d0" stroke-width="1.51"/><path d="M446,591L475,972L590,773Z" fill="#56b7d4" stroke="#56b7d4" stroke-width="1.51"/><path d="M446,591L61,701L475,972Z" fill="#56b4d5" stroke="#56b4d5" stroke-width="1.51"/><path d="M304,405L446,591L537,416Z" fill="#55afd7" stroke="#55afd7" stroke-width="1.51"/><path d="M309,238L304,405L537,416Z" fill="#55acd8" stroke="#55acd8" stroke-width="1.51"/><path d="M-239,-336L55,-141L172,-141Z" fill="#4f99df" stroke="#4f99df" stroke-width="1.51"/><path d="M61,701L91,975L475,972Z" fill="#56b5d5" stroke="#56b5d5" stroke-width="1.51"/><path d="M475,972L461,1129L523,1028Z" fill="#56bdd1" stroke="#56bdd1" stroke-width="1.51"/><path d="M91,975L201,1070L475,972Z" fill="#56b9d3" stroke="#56b9d3" stroke-width="1.51"/><path d="M201,1070L461,1129L475,972Z" fill="#57bcd2" stroke="#57bcd2" stroke-width="1.51"/><path d="M201,1070L391,1250L461,1129Z" fill="#56bed1" stroke="#56bed1" stroke-width="1.51"/><path d="M304,405L61,701L446,591Z" fill="#56afd7" stroke="#56afd7" stroke-width="1.51"/><path d="M57,457L61,701L304,405Z" fill="#55acd8" stroke="#55acd8" stroke-width="1.51"/><path d="M201,1070L128,1305L391,1250Z" fill="#57bdd1" stroke="#57bdd1" stroke-width="1.51"/><path d="M242,17L77,98L309,238Z" fill="#53a4db" stroke="#53a4db" stroke-width="1.51"/><path d="M61,358L304,405L309,238Z" fill="#54a9d9" stroke="#54a9d9" stroke-width="1.51"/><path d="M172,-141L242,17L325,-128Z" fill="#51a0dd" stroke="#51a0dd" stroke-width="1.51"/><path d="M77,98L61,358L309,238Z" fill="#53a5da" stroke="#53a5da" stroke-width="1.51"/><path d="M61,358L57,457L304,405Z" fill="#54a9d9" stroke="#54a9d9" stroke-width="1.51"/><path d="M61,701L-27,883L91,975Z" fill="#56b2d5" stroke="#56b2d5" stroke-width="1.51"/><path d="M-6,-67L77,98L172,-141Z" fill="#519edd" stroke="#519edd" stroke-width="1.51"/><path d="M34,1057L128,1305L201,1070Z" fill="#56bad3" stroke="#56bad3" stroke-width="1.51"/><path d="M172,-141L77,98L242,17Z" fill="#52a0dc" stroke="#52a0dc" stroke-width="1.51"/><path d="M55,-141L-6,-67L172,-141Z" fill="#509cde" stroke="#509cde" stroke-width="1.51"/><path d="M91,975L34,1057L201,1070Z" fill="#57b7d4" stroke="#57b7d4" stroke-width="1.51"/><path d="M-50,749L-27,883L61,701Z" fill="#56b0d7" stroke="#56b0d7" stroke-width="1.51"/><path d="M-132,133L61,358L77,98Z" fill="#52a2dc" stroke="#52a2dc" stroke-width="1.51"/><path d="M34,1057L-207,1104L128,1305Z" fill="#57b8d3" stroke="#57b8d3" stroke-width="1.51"/><path d="M-207,1104L-162,1418L128,1305Z" fill="#57bad3" stroke="#57bad3" stroke-width="1.51"/><path d="M-277,529L-50,749L57,457Z" fill="#55aad9" stroke="#55aad9" stroke-width="1.51"/><path d="M57,457L-50,749L61,701Z" fill="#55add8" stroke="#55add8" stroke-width="1.51"/><path d="M-27,883L34,1057L91,975Z" fill="#56b5d4" stroke="#56b5d4" stroke-width="1.51"/><path d="M-6,-67L-132,133L77,98Z" fill="#519fdd" stroke="#519fdd" stroke-width="1.51"/><path d="M-239,-336L-6,-67L55,-141Z" fill="#4f99df" stroke="#4f99df" stroke-width="1.51"/><path d="M-277,529L57,457L61,358Z" fill="#53a7da" stroke="#53a7da" stroke-width="1.51"/><path d="M-132,133L-277,529L61,358Z" fill="#52a4db" stroke="#52a4db" stroke-width="1.51"/><path d="M-170,-25L-132,133L-6,-67Z" fill="#509dde" stroke="#509dde" stroke-width="1.51"/><path d="M-239,-336L-170,-25L-6,-67Z" fill="#4f99df" stroke="#4f99df" stroke-width="1.51"/><path d="M-27,883L-214,926L34,1057Z" fill="#56b3d5" stroke="#56b3d5" stroke-width="1.51"/><path d="M-214,926L-207,1104L34,1057Z" fill="#56b4d5" stroke="#56b4d5" stroke-width="1.51"/><path d="M-207,1104L-303,1251L-162,1418Z" fill="#56b7d4" stroke="#56b7d4" stroke-width="1.51"/><path d="M-388,233L-277,529L-132,133Z" fill="#52a1dc" stroke="#52a1dc" stroke-width="1.51"/><path d="M-50,749L-214,926L-27,883Z" fill="#56b0d6" stroke="#56b0d6" stroke-width="1.51"/><path d="M-331,759L-214,926L-50,749Z" fill="#55aed7" stroke="#55aed7" stroke-width="1.51"/><path d="M-277,529L-331,759L-50,749Z" fill="#54aad9" stroke="#54aad9" stroke-width="1.51"/><path d="M-170,-25L-388,233L-132,133Z" fill="#509ddd" stroke="#509ddd" stroke-width="1.51"/><path d="M-239,-336L-388,233L-170,-25Z" fill="#4f99df" stroke="#4f99df" stroke-width="1.51"/><path d="M-331,759L-303,1251L-214,926Z" fill="#56b0d6" stroke="#56b0d6" stroke-width="1.51"/><path d="M-214,926L-303,1251L-207,1104Z" fill="#56b4d5" stroke="#56b4d5" stroke-width="1.51"/><path d="M-388,233L-331,759L-277,529Z" fill="#53a5db" stroke="#53a5db" stroke-width="1.51"/><path d="M-331,759L-388,233L-303,1251Z" fill="#54aad8" stroke="#54aad8" stroke-width="1.51"/></svg>