<svg xmlns="http://www.w3.org/2000/svg" width="1920" height="1080"><path d="M1324,1396L368,1388L1621,1413Z" fill="#6e4640" stroke="#6e4640" stroke-width="1.51"/><path d="M1711,-331L1897,-198L2225,-173Z" fill="#963d32" stroke="#963d32" stroke-width="1.51"/><path d="M2087,179L2230,393L2263,74Z" fill="#80443a" stroke="#80443a" stroke-width="1.51"/><path d="M2230,393L2005,612L2306,558Z" fill="#74463e" stroke="#74463e" stroke-width="1.51"/><path d="M2005,612L2178,866L2306,558Z" fill="#6f4640" stroke="#6f4640" stroke-width="1.51"/><path d="M2178,866L2193,1103L2306,558Z" fill="#674842" stroke="#674842" stroke-width="1.51"/><path d="M2193,1103L2194,1355L2306,558Z" fill="#604844" stroke="#604844" stroke-width="1.51"/><path d="M2263,74L2230,393L2306,558Z" fill="#79453c" stroke="#79453c" stroke-width="1.51"/><path d="M2193,1103L1989,1158L2194,1355Z" fill="#5b4946" stroke="#5b4946" stroke-width="1.51"/><path d="M2225,-173L1944,-36L2263,74Z" fill="#8a4036" stroke="#8a4036" stroke-width="1.51"/><path d="M1944,-36L2087,179L2263,74Z" fill="#874137" stroke="#874137" stroke-width="1.51"/><path d="M2178,866L1917,972L2193,1103Z" fill="#644843" stroke="#644843" stroke-width="1.51"/><path d="M1915,443L2005,612L2230,393Z" fill="#79453c" stroke="#79453c" stroke-width="1.51"/><path d="M1987,283L1915,443L2230,393Z" fill="#7e443b" stroke="#7e443b" stroke-width="1.51"/><path d="M2087,179L1987,283L2230,393Z" fill="#80433a" stroke="#80433a" stroke-width="1.51"/><path d="M1897,-198L1944,-36L2225,-173Z" fill="#913f34" stroke="#913f34" stroke-width="1.51"/><path d="M1917,972L1989,1158L2193,1103Z" fill="#634843" stroke="#634843" stroke-width="1.51"/><path d="M1989,1158L2002,1423L2194,1355Z" fill="#584947" stroke="#584947" stroke-width="1.51"/><path d="M2005,612L1917,972L2178,866Z" fill="#6d4741" stroke="#6d4741" stroke-width="1.51"/><path d="M1840,9L1987,283L2087,179Z" fill="#874237" stroke="#874237" stroke-width="1.51"/><path d="M1944,-36L1840,9L2087,179Z" fill="#8b4036" stroke="#8b4036" stroke-width="1.51"/><path d="M1840,9L1695,293L1987,283Z" fill="#894137" stroke="#894137" stroke-width="1.51"/><path d="M1989,1158L1815,1228L2002,1423Z" fill="#5d4945" stroke="#5d4945" stroke-width="1.51"/><path d="M1915,443L1686,691L2005,612Z" fill="#7a443c" stroke="#7a443c" stroke-width="1.51"/><path d="M1685,808L1917,972L2005,612Z" fill="#72463f" stroke="#72463f" stroke-width="1.51"/><path d="M1686,691L1685,808L2005,612Z" fill="#77453d" stroke="#77453d" stroke-width="1.51"/><path d="M1917,972L1815,1228L1989,1158Z" fill="#644843" stroke="#644843" stroke-width="1.51"/><path d="M1815,1228L1621,1413L2002,1423Z" fill="#5d4945" stroke="#5d4945" stroke-width="1.51"/><path d="M1711,330L1915,443L1987,283Z" fill="#834339" stroke="#834339" stroke-width="1.51"/><path d="M1695,293L1711,330L1987,283Z" fill="#864238" stroke="#864238" stroke-width="1.51"/><path d="M1648,1135L1815,1228L1917,972Z" fill="#684842" stroke="#684842" stroke-width="1.51"/><path d="M1897,-198L1840,9L1944,-36Z" fill="#923e34" stroke="#923e34" stroke-width="1.51"/><path d="M1711,330L1569,563L1915,443Z" fill="#824339" stroke="#824339" stroke-width="1.51"/><path d="M1569,563L1686,691L1915,443Z" fill="#7e443a" stroke="#7e443a" stroke-width="1.51"/><path d="M1685,808L1648,1135L1917,972Z" fill="#6e4740" stroke="#6e4740" stroke-width="1.51"/><path d="M1588,68L1695,293L1840,9Z" fill="#8f3f35" stroke="#8f3f35" stroke-width="1.51"/><path d="M1711,-331L1840,9L1897,-198Z" fill="#973d32" stroke="#973d32" stroke-width="1.51"/><path d="M1550,920L1648,1135L1685,808Z" fill="#72463f" stroke="#72463f" stroke-width="1.51"/><path d="M1711,-331L1588,68L1840,9Z" fill="#963d32" stroke="#963d32" stroke-width="1.51"/><path d="M1547,1205L1621,1413L1648,1135Z" fill="#674842" stroke="#674842" stroke-width="1.51"/><path d="M1531,-343L1588,68L1711,-331Z" fill="#9d3a30" stroke="#9d3a30" stroke-width="1.51"/><path d="M1648,1135L1621,1413L1815,1228Z" fill="#644843" stroke="#644843" stroke-width="1.51"/><path d="M570,-355L1075,-147L1531,-343Z" fill="#ac3329" stroke="#ac3329" stroke-width="1.51"/><path d="M1531,-343L1385,-202L1588,68Z" fill="#9d3a2f" stroke="#9d3a2f" stroke-width="1.51"/><path d="M1588,68L1525,111L1695,293Z" fill="#903f34" stroke="#903f34" stroke-width="1.51"/><path d="M1695,293L1453,327L1711,330Z" fill="#8a4137" stroke="#8a4137" stroke-width="1.51"/><path d="M1453,327L1569,563L1711,330Z" fill="#874237" stroke="#874237" stroke-width="1.51"/><path d="M1550,920L1685,808L1686,691Z" fill="#77453d" stroke="#77453d" stroke-width="1.51"/><path d="M1525,111L1453,327L1695,293Z" fill="#8e4035" stroke="#8e4035" stroke-width="1.51"/><path d="M1569,563L1550,920L1686,691Z" fill="#7b443b" stroke="#7b443b" stroke-width="1.51"/><path d="M603,1276L368,1388L1324,1396Z" fill="#79453c" stroke="#79453c" stroke-width="1.51"/><path d="M1388,957L1547,1205L1550,920Z" fill="#73463f" stroke="#73463f" stroke-width="1.51"/><path d="M1550,920L1547,1205L1648,1135Z" fill="#6e4740" stroke="#6e4740" stroke-width="1.51"/><path d="M1388,957L1337,1116L1547,1205Z" fill="#72463f" stroke="#72463f" stroke-width="1.51"/><path d="M1388,957L1550,920L1569,563Z" fill="#7b453c" stroke="#7b453c" stroke-width="1.51"/><path d="M1199,576L1388,957L1569,563Z" fill="#82433a" stroke="#82433a" stroke-width="1.51"/><path d="M1385,-202L1525,111L1588,68Z" fill="#983c31" stroke="#983c31" stroke-width="1.51"/><path d="M1547,1205L1324,1396L1621,1413Z" fill="#674743" stroke="#674743" stroke-width="1.51"/><path d="M840,1233L603,1276L1324,1396Z" fill="#77453d" stroke="#77453d" stroke-width="1.51"/><path d="M1385,-202L1234,-5L1525,111Z" fill="#9c3b30" stroke="#9c3b30" stroke-width="1.51"/><path d="M1075,-147L1385,-202L1531,-343Z" fill="#a4372d" stroke="#a4372d" stroke-width="1.51"/><path d="M1361,183L1453,327L1525,111Z" fill="#923e34" stroke="#923e34" stroke-width="1.51"/><path d="M1453,327L1199,576L1569,563Z" fill="#894137" stroke="#894137" stroke-width="1.51"/><path d="M1219,380L1199,576L1453,327Z" fill="#8e3f35" stroke="#8e3f35" stroke-width="1.51"/><path d="M1337,1116L1324,1396L1547,1205Z" fill="#6d4740" stroke="#6d4740" stroke-width="1.51"/><path d="M1234,-5L1361,183L1525,111Z" fill="#983d32" stroke="#983d32" stroke-width="1.51"/><path d="M570,-355L781,-179L1075,-147Z" fill="#b03028" stroke="#b03028" stroke-width="1.51"/><path d="M1044,1235L840,1233L1324,1396Z" fill="#73463e" stroke="#73463e" stroke-width="1.51"/><path d="M1199,576L1080,799L1388,957Z" fill="#834339" stroke="#834339" stroke-width="1.51"/><path d="M1361,183L1219,380L1453,327Z" fill="#913e34" stroke="#913e34" stroke-width="1.51"/><path d="M1044,1235L1324,1396L1337,1116Z" fill="#70463f" stroke="#70463f" stroke-width="1.51"/><path d="M1106,1108L1044,1235L1337,1116Z" fill="#77453d" stroke="#77453d" stroke-width="1.51"/><path d="M1075,-147L1234,-5L1385,-202Z" fill="#a2382d" stroke="#a2382d" stroke-width="1.51"/><path d="M1106,1108L1337,1116L1388,957Z" fill="#77453d" stroke="#77453d" stroke-width="1.51"/><path d="M1080,799L1106,1108L1388,957Z" fill="#7d443b" stroke="#7d443b" stroke-width="1.51"/><path d="M1234,-5L1079,292L1361,183Z" fill="#993c31" stroke="#993c31" stroke-width="1.51"/><path d="M1079,292L1219,380L1361,183Z" fill="#953d33" stroke="#953d33" stroke-width="1.51"/><path d="M1075,-147L1122,-34L1234,-5Z" fill="#a3382e" stroke="#a3382e" stroke-width="1.51"/><path d="M1000,710L1080,799L1199,576Z" fill="#894137" stroke="#894137" stroke-width="1.51"/><path d="M997,440L1199,576L1219,380Z" fill="#903f35" stroke="#903f35" stroke-width="1.51"/><path d="M1122,-34L1079,292L1234,-5Z" fill="#9e3a30" stroke="#9e3a30" stroke-width="1.51"/><path d="M1079,292L997,440L1219,380Z" fill="#953d33" stroke="#953d33" stroke-width="1.51"/><path d="M997,440L1000,710L1199,576Z" fill="#8e4035" stroke="#8e4035" stroke-width="1.51"/><path d="M957,-62L840,269L1079,292Z" fill="#9f392f" stroke="#9f392f" stroke-width="1.51"/><path d="M799,898L911,1099L1080,799Z" fill="#844239" stroke="#844239" stroke-width="1.51"/><path d="M1080,799L911,1099L1106,1108Z" fill="#7f433a" stroke="#7f433a" stroke-width="1.51"/><path d="M957,-62L1079,292L1122,-34Z" fill="#a0392e" stroke="#a0392e" stroke-width="1.51"/><path d="M1075,-147L957,-62L1122,-34Z" fill="#a5372c" stroke="#a5372c" stroke-width="1.51"/><path d="M941,347L997,440L1079,292Z" fill="#973d32" stroke="#973d32" stroke-width="1.51"/><path d="M911,1099L1044,1235L1106,1108Z" fill="#7a443c" stroke="#7a443c" stroke-width="1.51"/><path d="M781,-179L957,-62L1075,-147Z" fill="#aa342b" stroke="#aa342b" stroke-width="1.51"/><path d="M840,269L941,347L1079,292Z" fill="#9a3b31" stroke="#9a3b31" stroke-width="1.51"/><path d="M1000,710L799,898L1080,799Z" fill="#894137" stroke="#894137" stroke-width="1.51"/><path d="M-37,1330L-272,1369L368,1388Z" fill="#8a4136" stroke="#8a4136" stroke-width="1.51"/><path d="M997,440L789,722L1000,710Z" fill="#903f35" stroke="#903f35" stroke-width="1.51"/><path d="M911,1099L840,1233L1044,1235Z" fill="#7b443c" stroke="#7b443c" stroke-width="1.51"/><path d="M573,448L789,722L941,347Z" fill="#983d32" stroke="#983d32" stroke-width="1.51"/><path d="M708,-60L840,269L957,-62Z" fill="#a6362d" stroke="#a6362d" stroke-width="1.51"/><path d="M941,347L789,722L997,440Z" fill="#943e33" stroke="#943e33" stroke-width="1.51"/><path d="M789,722L799,898L1000,710Z" fill="#8c4036" stroke="#8c4036" stroke-width="1.51"/><path d="M840,269L573,448L941,347Z" fill="#9d3a30" stroke="#9d3a30" stroke-width="1.51"/><path d="M781,-179L708,-60L957,-62Z" fill="#ac332a" stroke="#ac332a" stroke-width="1.51"/><path d="M708,-60L602,140L840,269Z" fill="#a6362d" stroke="#a6362d" stroke-width="1.51"/><path d="M525,1073L840,1233L911,1099Z" fill="#81433a" stroke="#81433a" stroke-width="1.51"/><path d="M799,898L525,1073L911,1099Z" fill="#864238" stroke="#864238" stroke-width="1.51"/><path d="M573,448L540,606L789,722Z" fill="#983c32" stroke="#983c32" stroke-width="1.51"/><path d="M602,140L573,448L840,269Z" fill="#a2382e" stroke="#a2382e" stroke-width="1.51"/><path d="M525,1073L603,1276L840,1233Z" fill="#814339" stroke="#814339" stroke-width="1.51"/><path d="M789,722L532,818L799,898Z" fill="#8e4035" stroke="#8e4035" stroke-width="1.51"/><path d="M532,818L525,1073L799,898Z" fill="#8c4036" stroke="#8c4036" stroke-width="1.51"/><path d="M540,606L532,818L789,722Z" fill="#943e33" stroke="#943e33" stroke-width="1.51"/><path d="M570,-355L708,-60L781,-179Z" fill="#b22e28" stroke="#b22e28" stroke-width="1.51"/><path d="M-347,-169L3,-222L218,-322Z" fill="#c41e21" stroke="#c41e21" stroke-width="1.51"/><path d="M404,322L573,448L602,140Z" fill="#a4372d" stroke="#a4372d" stroke-width="1.51"/><path d="M570,-355L397,-187L708,-60Z" fill="#b52d27" stroke="#b52d27" stroke-width="1.51"/><path d="M397,-187L421,17L708,-60Z" fill="#b22f28" stroke="#b22f28" stroke-width="1.51"/><path d="M481,98L602,140L708,-60Z" fill="#ab332a" stroke="#ab332a" stroke-width="1.51"/><path d="M421,17L481,98L708,-60Z" fill="#ae3229" stroke="#ae3229" stroke-width="1.51"/><path d="M452,690L532,818L540,606Z" fill="#973d32" stroke="#973d32" stroke-width="1.51"/><path d="M481,98L404,322L602,140Z" fill="#a9342b" stroke="#a9342b" stroke-width="1.51"/><path d="M481,1173L368,1388L603,1276Z" fill="#834339" stroke="#834339" stroke-width="1.51"/><path d="M525,1073L481,1173L603,1276Z" fill="#854238" stroke="#854238" stroke-width="1.51"/><path d="M304,900L525,1073L532,818Z" fill="#903f34" stroke="#903f34" stroke-width="1.51"/><path d="M404,322L540,606L573,448Z" fill="#9f392f" stroke="#9f392f" stroke-width="1.51"/><path d="M218,-322L397,-187L570,-355Z" fill="#bc2724" stroke="#bc2724" stroke-width="1.51"/><path d="M404,322L192,666L452,690Z" fill="#9f392f" stroke="#9f392f" stroke-width="1.51"/><path d="M404,322L452,690L540,606Z" fill="#9e3a30" stroke="#9e3a30" stroke-width="1.51"/><path d="M452,690L304,900L532,818Z" fill="#953d32" stroke="#953d32" stroke-width="1.51"/><path d="M304,900L481,1173L525,1073Z" fill="#8c4036" stroke="#8c4036" stroke-width="1.51"/><path d="M150,1039L255,1243L304,900Z" fill="#903f34" stroke="#903f34" stroke-width="1.51"/><path d="M255,1243L368,1388L481,1173Z" fill="#864238" stroke="#864238" stroke-width="1.51"/><path d="M304,900L255,1243L481,1173Z" fill="#8c4036" stroke="#8c4036" stroke-width="1.51"/><path d="M421,17L274,239L481,98Z" fill="#ae322a" stroke="#ae322a" stroke-width="1.51"/><path d="M274,239L404,322L481,98Z" fill="#ab342b" stroke="#ab342b" stroke-width="1.51"/><path d="M70,406L192,666L404,322Z" fill="#a6362d" stroke="#a6362d" stroke-width="1.51"/><path d="M192,666L304,900L452,690Z" fill="#993c31" stroke="#993c31" stroke-width="1.51"/><path d="M274,239L70,406L404,322Z" fill="#aa342b" stroke="#aa342b" stroke-width="1.51"/><path d="M397,-187L162,-5L421,17Z" fill="#b52c27" stroke="#b52c27" stroke-width="1.51"/><path d="M162,-5L274,239L421,17Z" fill="#b12f28" stroke="#b12f28" stroke-width="1.51"/><path d="M218,-322L162,-5L397,-187Z" fill="#bb2824" stroke="#bb2824" stroke-width="1.51"/><path d="M192,666L175,877L304,900Z" fill="#9a3c31" stroke="#9a3c31" stroke-width="1.51"/><path d="M255,1243L-37,1330L368,1388Z" fill="#884137" stroke="#884137" stroke-width="1.51"/><path d="M3,-222L162,-5L218,-322Z" fill="#be2523" stroke="#be2523" stroke-width="1.51"/><path d="M175,877L150,1039L304,900Z" fill="#953e33" stroke="#953e33" stroke-width="1.51"/><path d="M162,-5L-81,309L274,239Z" fill="#b22e28" stroke="#b22e28" stroke-width="1.51"/><path d="M-81,309L70,406L274,239Z" fill="#ae3129" stroke="#ae3129" stroke-width="1.51"/><path d="M70,406L-24,535L192,666Z" fill="#a7362c" stroke="#a7362c" stroke-width="1.51"/><path d="M150,1039L-37,1330L255,1243Z" fill="#8e3f35" stroke="#8e3f35" stroke-width="1.51"/><path d="M-27,-48L-81,309L162,-5Z" fill="#b72a26" stroke="#b72a26" stroke-width="1.51"/><path d="M3,-222L-27,-48L162,-5Z" fill="#bd2624" stroke="#bd2624" stroke-width="1.51"/><path d="M3,860L175,877L192,666Z" fill="#9d3b30" stroke="#9d3b30" stroke-width="1.51"/><path d="M3,860L150,1039L175,877Z" fill="#983c31" stroke="#983c31" stroke-width="1.51"/><path d="M-87,606L3,860L192,666Z" fill="#a1382e" stroke="#a1382e" stroke-width="1.51"/><path d="M-24,535L-87,606L192,666Z" fill="#a5372c" stroke="#a5372c" stroke-width="1.51"/><path d="M-163,1014L-37,1330L150,1039Z" fill="#943e33" stroke="#943e33" stroke-width="1.51"/><path d="M3,860L-163,1014L150,1039Z" fill="#993c31" stroke="#993c31" stroke-width="1.51"/><path d="M-81,309L-24,535L70,406Z" fill="#ad322a" stroke="#ad322a" stroke-width="1.51"/><path d="M-163,1014L-272,1369L-37,1330Z" fill="#933e33" stroke="#933e33" stroke-width="1.51"/><path d="M-379,185L-81,309L-27,-48Z" fill="#ba2925" stroke="#ba2925" stroke-width="1.51"/><path d="M-276,-130L-379,185L-27,-48Z" fill="#c02322" stroke="#c02322" stroke-width="1.51"/><path d="M-81,309L-216,464L-24,535Z" fill="#ae3129" stroke="#ae3129" stroke-width="1.51"/><path d="M-87,606L-172,940L3,860Z" fill="#a1392e" stroke="#a1392e" stroke-width="1.51"/><path d="M-172,940L-163,1014L3,860Z" fill="#9d3a30" stroke="#9d3a30" stroke-width="1.51"/><path d="M-276,-130L-27,-48L3,-222Z" fill="#c22122" stroke="#c22122" stroke-width="1.51"/><path d="M-347,-169L-276,-130L3,-222Z" fill="#c51b20" stroke="#c51b20" stroke-width="1.51"/><path d="M-339,1077L-272,1369L-163,1014Z" fill="#993c31" stroke="#993c31" stroke-width="1.51"/><path d="M-216,464L-87,606L-24,535Z" fill="#ab332b" stroke="#ab332b" stroke-width="1.51"/><path d="M-385,595L-172,940L-87,606Z" fill="#a7352c" stroke="#a7352c" stroke-width="1.51"/><path d="M-379,185L-216,464L-81,309Z" fill="#b52c26" stroke="#b52c26" stroke-width="1.51"/><path d="M-216,464L-385,595L-87,606Z" fill="#ad3229" stroke="#ad3229" stroke-width="1.51"/><path d="M-385,595L-339,1077L-172,940Z" fill="#a4372d" stroke="#a4372d" stroke-width="1.51"/><path d="M-172,940L-339,1077L-163,1014Z" fill="#9d3a2f" stroke="#9d3a2f" stroke-width="1.51"/><path d="M-347,-169L-379,185L-276,-130Z" fill="#c41e20" stroke="#c41e20" stroke-width="1.51"/><path d="M-379,185L-385,595L-216,464Z" fill="#b42d26" stroke="#b42d26" stroke-width="1.51"/></svg>