<svg xmlns="http://www.w3.org/2000/svg" width="1920" height="1080"><path d="M-72,-205L100,-199L352,-214Z" fill="#3e3e3e" stroke="#3e3e3e" stroke-width="1.51"/><path d="M-167,-209L-72,-205L352,-214Z" fill="#404040" stroke="#404040" stroke-width="1.51"/><path d="M748,1265L467,1268L910,1282Z" fill="#9b862c" stroke="#9b862c" stroke-width="1.51"/><path d="M467,1268L233,1283L910,1282Z" fill="#88792e" stroke="#88792e" stroke-width="1.51"/><path d="M-167,-209L352,-214L1148,-224Z" fill="#363636" stroke="#363636" stroke-width="1.51"/><path d="M352,-214L594,-215L1148,-224Z" fill="#463e36" stroke="#463e36" stroke-width="1.51"/><path d="M594,-215L868,-197L1148,-224Z" fill="#5b4b38" stroke="#5b4b38" stroke-width="1.51"/><path d="M1447,1284L1323,1291L1717,1279Z" fill="#f8c820" stroke="#f8c820" stroke-width="1.51"/><path d="M1556,1274L1447,1284L1717,1279Z" fill="#f8cb20" stroke="#f8cb20" stroke-width="1.51"/><path d="M1148,-224L1549,-193L1721,-227Z" fill="#9d783e" stroke="#9d783e" stroke-width="1.51"/><path d="M1148,-224L1721,-227L1832,-231Z" fill="#9e7c3f" stroke="#9e7c3f" stroke-width="1.51"/><path d="M1858,1277L1717,1279L1950,1281Z" fill="#f8d61f" stroke="#f8d61f" stroke-width="1.51"/><path d="M1717,1279L1323,1291L1950,1281Z" fill="#f8cf1f" stroke="#f8cf1f" stroke-width="1.51"/><path d="M1954,992L1955,1135L2107,984Z" fill="#f8ce20" stroke="#f8ce20" stroke-width="1.51"/><path d="M1978,592L2085,625L2107,475Z" fill="#c3a02a" stroke="#c3a02a" stroke-width="1.51"/><path d="M2085,625L1975,733L2118,758Z" fill="#e1b426" stroke="#e1b426" stroke-width="1.51"/><path d="M1993,847L2088,887L2118,758Z" fill="#f7c421" stroke="#f7c421" stroke-width="1.51"/><path d="M2088,887L2107,984L2118,758Z" fill="#f8c821" stroke="#f8c821" stroke-width="1.51"/><path d="M2107,475L2085,625L2118,758Z" fill="#cfa928" stroke="#cfa928" stroke-width="1.51"/><path d="M2107,984L1955,1135L2118,1173Z" fill="#f8d41f" stroke="#f8d41f" stroke-width="1.51"/><path d="M2118,758L2107,984L2118,1173Z" fill="#f8ce20" stroke="#f8ce20" stroke-width="1.51"/><path d="M2078,70L1959,181L2128,209Z" fill="#8c7e32" stroke="#8c7e32" stroke-width="1.51"/><path d="M1959,181L1965,356L2128,209Z" fill="#88782e" stroke="#88782e" stroke-width="1.51"/><path d="M1987,449L2107,475L2134,315Z" fill="#a48c2c" stroke="#a48c2c" stroke-width="1.51"/><path d="M1965,356L1987,449L2134,315Z" fill="#9c852c" stroke="#9c852c" stroke-width="1.51"/><path d="M2118,758L2118,1173L2134,315Z" fill="#eabc24" stroke="#eabc24" stroke-width="1.51"/><path d="M2128,209L1965,356L2134,315Z" fill="#8c7c2d" stroke="#8c7c2d" stroke-width="1.51"/><path d="M2107,475L2118,758L2134,315Z" fill="#b99c2b" stroke="#b99c2b" stroke-width="1.51"/><path d="M2099,-200L2001,-82L2137,-73Z" fill="#998a3d" stroke="#998a3d" stroke-width="1.51"/><path d="M2001,-82L2078,70L2137,-73Z" fill="#95863a" stroke="#95863a" stroke-width="1.51"/><path d="M2078,70L2128,209L2137,-73Z" fill="#908335" stroke="#908335" stroke-width="1.51"/><path d="M2128,209L2134,315L2137,-73Z" fill="#8c8032" stroke="#8c8032" stroke-width="1.51"/><path d="M2001,-82L1968,49L2078,70Z" fill="#938237" stroke="#938237" stroke-width="1.51"/><path d="M1955,1135L1950,1281L2104,1262Z" fill="#f8d91e" stroke="#f8d91e" stroke-width="1.51"/><path d="M1987,449L1978,592L2107,475Z" fill="#b7972b" stroke="#b7972b" stroke-width="1.51"/><path d="M1975,733L1993,847L2118,758Z" fill="#f1bd23" stroke="#f1bd23" stroke-width="1.51"/><path d="M1955,1135L2104,1262L2118,1173Z" fill="#f8d91f" stroke="#f8d91f" stroke-width="1.51"/><path d="M1971,-226L2001,-82L2099,-200Z" fill="#9b8a3f" stroke="#9b8a3f" stroke-width="1.51"/><path d="M2088,887L1954,992L2107,984Z" fill="#f8cb20" stroke="#f8cb20" stroke-width="1.51"/><path d="M1993,847L1954,992L2088,887Z" fill="#f7c620" stroke="#f7c620" stroke-width="1.51"/><path d="M1148,-224L1287,-186L1549,-193Z" fill="#97703d" stroke="#97703d" stroke-width="1.51"/><path d="M1968,49L1959,181L2078,70Z" fill="#8f7e34" stroke="#8f7e34" stroke-width="1.51"/><path d="M1978,592L1975,733L2085,625Z" fill="#d5aa28" stroke="#d5aa28" stroke-width="1.51"/><path d="M1959,181L1847,214L1965,356Z" fill="#88752d" stroke="#88752d" stroke-width="1.51"/><path d="M1847,214L1850,340L1965,356Z" fill="#8e772d" stroke="#8e772d" stroke-width="1.51"/><path d="M1840,635L1853,727L1975,733Z" fill="#dfac26" stroke="#dfac26" stroke-width="1.51"/><path d="M1840,635L1975,733L1978,592Z" fill="#d5a728" stroke="#d5a728" stroke-width="1.51"/><path d="M1821,502L1978,592L1987,449Z" fill="#b8942b" stroke="#b8942b" stroke-width="1.51"/><path d="M1837,905L1954,992L1993,847Z" fill="#f7c321" stroke="#f7c321" stroke-width="1.51"/><path d="M1975,733L1853,727L1993,847Z" fill="#eeb824" stroke="#eeb824" stroke-width="1.51"/><path d="M1971,-226L1857,-81L2001,-82Z" fill="#99863d" stroke="#99863d" stroke-width="1.51"/><path d="M1857,-81L1968,49L2001,-82Z" fill="#958239" stroke="#958239" stroke-width="1.51"/><path d="M1850,1158L1950,1281L1955,1135Z" fill="#f8d41f" stroke="#f8d41f" stroke-width="1.51"/><path d="M1954,992L1861,1008L1955,1135Z" fill="#f8cb20" stroke="#f8cb20" stroke-width="1.51"/><path d="M1854,54L1959,181L1968,49Z" fill="#8f7b34" stroke="#8f7b34" stroke-width="1.51"/><path d="M1857,-81L1854,54L1968,49Z" fill="#937e37" stroke="#937e37" stroke-width="1.51"/><path d="M1832,-231L1857,-81L1971,-226Z" fill="#9c863f" stroke="#9c863f" stroke-width="1.51"/><path d="M1853,727L1837,905L1993,847Z" fill="#f7bd21" stroke="#f7bd21" stroke-width="1.51"/><path d="M1965,356L1850,340L1987,449Z" fill="#9e832c" stroke="#9e832c" stroke-width="1.51"/><path d="M1850,340L1821,502L1987,449Z" fill="#a7882b" stroke="#a7882b" stroke-width="1.51"/><path d="M1850,1158L1858,1277L1950,1281Z" fill="#f8d51f" stroke="#f8d51f" stroke-width="1.51"/><path d="M1821,502L1840,635L1978,592Z" fill="#c69b29" stroke="#c69b29" stroke-width="1.51"/><path d="M1837,905L1861,1008L1954,992Z" fill="#f8c521" stroke="#f8c521" stroke-width="1.51"/><path d="M1861,1008L1850,1158L1955,1135Z" fill="#f8cd20" stroke="#f8cd20" stroke-width="1.51"/><path d="M1854,54L1847,214L1959,181Z" fill="#8c7731" stroke="#8c7731" stroke-width="1.51"/><path d="M1162,1261L910,1282L1323,1291Z" fill="#d6ad27" stroke="#d6ad27" stroke-width="1.51"/><path d="M1287,-186L1450,-174L1549,-193Z" fill="#9c753d" stroke="#9c753d" stroke-width="1.51"/><path d="M1711,343L1724,503L1821,502Z" fill="#ab852b" stroke="#ab852b" stroke-width="1.51"/><path d="M1721,-227L1708,-91L1832,-231Z" fill="#9c813e" stroke="#9c813e" stroke-width="1.51"/><path d="M1708,752L1710,882L1837,905Z" fill="#f6b822" stroke="#f6b822" stroke-width="1.51"/><path d="M1821,502L1704,625L1840,635Z" fill="#c89929" stroke="#c89929" stroke-width="1.51"/><path d="M1717,46L1725,222L1847,214Z" fill="#8c7331" stroke="#8c7331" stroke-width="1.51"/><path d="M1699,1011L1708,1164L1850,1158Z" fill="#f8c821" stroke="#f8c821" stroke-width="1.51"/><path d="M1708,1164L1717,1279L1850,1158Z" fill="#f8ce20" stroke="#f8ce20" stroke-width="1.51"/><path d="M1711,343L1821,502L1850,340Z" fill="#a07f2c" stroke="#a07f2c" stroke-width="1.51"/><path d="M1847,214L1725,222L1850,340Z" fill="#88702d" stroke="#88702d" stroke-width="1.51"/><path d="M1725,222L1711,343L1850,340Z" fill="#8d722c" stroke="#8d722c" stroke-width="1.51"/><path d="M1708,752L1837,905L1853,727Z" fill="#f3b622" stroke="#f3b622" stroke-width="1.51"/><path d="M1717,46L1847,214L1854,54Z" fill="#8f7733" stroke="#8f7733" stroke-width="1.51"/><path d="M1832,-231L1708,-91L1857,-81Z" fill="#9a813d" stroke="#9a813d" stroke-width="1.51"/><path d="M1717,46L1854,54L1857,-81Z" fill="#937b37" stroke="#937b37" stroke-width="1.51"/><path d="M1708,-91L1717,46L1857,-81Z" fill="#957c39" stroke="#957c39" stroke-width="1.51"/><path d="M1850,1158L1717,1279L1858,1277Z" fill="#f8d21f" stroke="#f8d21f" stroke-width="1.51"/><path d="M1699,1011L1850,1158L1861,1008Z" fill="#f8c721" stroke="#f8c721" stroke-width="1.51"/><path d="M1837,905L1699,1011L1861,1008Z" fill="#f8c221" stroke="#f8c221" stroke-width="1.51"/><path d="M1724,503L1704,625L1821,502Z" fill="#be912a" stroke="#be912a" stroke-width="1.51"/><path d="M1840,635L1708,752L1853,727Z" fill="#e0a926" stroke="#e0a926" stroke-width="1.51"/><path d="M1704,625L1708,752L1840,635Z" fill="#d8a228" stroke="#d8a228" stroke-width="1.51"/><path d="M1710,882L1699,1011L1837,905Z" fill="#f7bd22" stroke="#f7bd22" stroke-width="1.51"/><path d="M592,1258L467,1268L748,1265Z" fill="#8e7d2d" stroke="#8e7d2d" stroke-width="1.51"/><path d="M1550,1022L1558,1158L1699,1011Z" fill="#f7bf22" stroke="#f7bf22" stroke-width="1.51"/><path d="M1699,1011L1558,1158L1708,1164Z" fill="#f8c521" stroke="#f8c521" stroke-width="1.51"/><path d="M1549,-193L1574,-88L1708,-91Z" fill="#99793b" stroke="#99793b" stroke-width="1.51"/><path d="M1574,-88L1578,51L1708,-91Z" fill="#967738" stroke="#967738" stroke-width="1.51"/><path d="M1704,625L1583,724L1708,752Z" fill="#dfa326" stroke="#dfa326" stroke-width="1.51"/><path d="M1550,1022L1699,1011L1710,882Z" fill="#f7bc22" stroke="#f7bc22" stroke-width="1.51"/><path d="M1708,752L1547,848L1710,882Z" fill="#f6b322" stroke="#f6b322" stroke-width="1.51"/><path d="M1579,359L1582,454L1711,343Z" fill="#9e782b" stroke="#9e782b" stroke-width="1.51"/><path d="M1554,229L1579,359L1711,343Z" fill="#8f6e2b" stroke="#8f6e2b" stroke-width="1.51"/><path d="M1708,-91L1578,51L1717,46Z" fill="#937636" stroke="#937636" stroke-width="1.51"/><path d="M1708,1164L1556,1274L1717,1279Z" fill="#f8cc20" stroke="#f8cc20" stroke-width="1.51"/><path d="M1549,-193L1708,-91L1721,-227Z" fill="#9b7d3d" stroke="#9b7d3d" stroke-width="1.51"/><path d="M1550,597L1704,625L1724,503Z" fill="#c49229" stroke="#c49229" stroke-width="1.51"/><path d="M1582,454L1550,597L1724,503Z" fill="#b9892a" stroke="#b9892a" stroke-width="1.51"/><path d="M1711,343L1582,454L1724,503Z" fill="#a8802b" stroke="#a8802b" stroke-width="1.51"/><path d="M1554,229L1711,343L1725,222Z" fill="#876b2b" stroke="#876b2b" stroke-width="1.51"/><path d="M1717,46L1578,51L1725,222Z" fill="#8f7232" stroke="#8f7232" stroke-width="1.51"/><path d="M1578,51L1554,229L1725,222Z" fill="#8b6d2f" stroke="#8b6d2f" stroke-width="1.51"/><path d="M1558,1158L1556,1274L1708,1164Z" fill="#f8c821" stroke="#f8c821" stroke-width="1.51"/><path d="M1583,724L1547,848L1708,752Z" fill="#efab24" stroke="#efab24" stroke-width="1.51"/><path d="M1547,848L1550,1022L1710,882Z" fill="#f7b622" stroke="#f7b622" stroke-width="1.51"/><path d="M-35,1273L-160,1283L233,1283Z" fill="#98893c" stroke="#98893c" stroke-width="1.51"/><path d="M1550,597L1583,724L1704,625Z" fill="#d49a28" stroke="#d49a28" stroke-width="1.51"/><path d="M1547,848L1419,867L1550,1022Z" fill="#f6b222" stroke="#f6b222" stroke-width="1.51"/><path d="M1419,867L1446,1039L1550,1022Z" fill="#f7b522" stroke="#f7b522" stroke-width="1.51"/><path d="M1403,70L1430,224L1554,229Z" fill="#8b682f" stroke="#8b682f" stroke-width="1.51"/><path d="M1550,1022L1446,1039L1558,1158Z" fill="#f7bd22" stroke="#f7bd22" stroke-width="1.51"/><path d="M1549,-193L1450,-174L1574,-88Z" fill="#9a773c" stroke="#9a773c" stroke-width="1.51"/><path d="M1574,-88L1404,-55L1578,51Z" fill="#957237" stroke="#957237" stroke-width="1.51"/><path d="M1404,-55L1403,70L1578,51Z" fill="#926e35" stroke="#926e35" stroke-width="1.51"/><path d="M1403,70L1554,229L1578,51Z" fill="#8e6c31" stroke="#8e6c31" stroke-width="1.51"/><path d="M1554,229L1445,343L1579,359Z" fill="#8f6b2b" stroke="#8f6b2b" stroke-width="1.51"/><path d="M1454,499L1550,597L1582,454Z" fill="#b8852a" stroke="#b8852a" stroke-width="1.51"/><path d="M1579,359L1445,343L1582,454Z" fill="#9d752b" stroke="#9d752b" stroke-width="1.51"/><path d="M1445,343L1454,499L1582,454Z" fill="#a7792a" stroke="#a7792a" stroke-width="1.51"/><path d="M1550,597L1453,715L1583,724Z" fill="#da9b27" stroke="#da9b27" stroke-width="1.51"/><path d="M1453,715L1547,848L1583,724Z" fill="#eba624" stroke="#eba624" stroke-width="1.51"/><path d="M1447,1284L1556,1274L1558,1158Z" fill="#f7c720" stroke="#f7c720" stroke-width="1.51"/><path d="M1446,1039L1414,1128L1558,1158Z" fill="#f7bd21" stroke="#f7bd21" stroke-width="1.51"/><path d="M1450,-174L1404,-55L1574,-88Z" fill="#987339" stroke="#987339" stroke-width="1.51"/><path d="M1453,715L1419,867L1547,848Z" fill="#f6ab23" stroke="#f6ab23" stroke-width="1.51"/><path d="M1454,499L1431,586L1550,597Z" fill="#c18929" stroke="#c18929" stroke-width="1.51"/><path d="M1431,586L1453,715L1550,597Z" fill="#d09328" stroke="#d09328" stroke-width="1.51"/><path d="M1430,224L1445,343L1554,229Z" fill="#87642b" stroke="#87642b" stroke-width="1.51"/><path d="M1414,1128L1447,1284L1558,1158Z" fill="#f7c221" stroke="#f7c221" stroke-width="1.51"/><path d="M1000,1255L910,1282L1162,1261Z" fill="#c7a229" stroke="#c7a229" stroke-width="1.51"/><path d="M1291,1153L1323,1291L1414,1128Z" fill="#f4bb22" stroke="#f4bb22" stroke-width="1.51"/><path d="M1278,902L1315,1034L1419,867Z" fill="#f2ab23" stroke="#f2ab23" stroke-width="1.51"/><path d="M1403,70L1281,217L1430,224Z" fill="#8b642e" stroke="#8b642e" stroke-width="1.51"/><path d="M1430,224L1316,343L1445,343Z" fill="#8d652b" stroke="#8d652b" stroke-width="1.51"/><path d="M1316,343L1315,461L1445,343Z" fill="#9c6d2b" stroke="#9c6d2b" stroke-width="1.51"/><path d="M1419,867L1315,1034L1446,1039Z" fill="#f6b223" stroke="#f6b223" stroke-width="1.51"/><path d="M1414,1128L1323,1291L1447,1284Z" fill="#f7c121" stroke="#f7c121" stroke-width="1.51"/><path d="M1287,-186L1404,-55L1450,-174Z" fill="#99713b" stroke="#99713b" stroke-width="1.51"/><path d="M1290,762L1419,867L1453,715Z" fill="#efa324" stroke="#efa324" stroke-width="1.51"/><path d="M1431,586L1311,603L1453,715Z" fill="#d09028" stroke="#d09028" stroke-width="1.51"/><path d="M1311,603L1290,762L1453,715Z" fill="#da9527" stroke="#da9527" stroke-width="1.51"/><path d="M1445,343L1315,461L1454,499Z" fill="#a7762a" stroke="#a7762a" stroke-width="1.51"/><path d="M1315,461L1431,586L1454,499Z" fill="#b7802a" stroke="#b7802a" stroke-width="1.51"/><path d="M1315,1034L1414,1128L1446,1039Z" fill="#f6b722" stroke="#f6b722" stroke-width="1.51"/><path d="M1315,461L1311,603L1431,586Z" fill="#bc8229" stroke="#bc8229" stroke-width="1.51"/><path d="M1290,44L1403,70L1404,-55Z" fill="#926a34" stroke="#926a34" stroke-width="1.51"/><path d="M1287,-186L1284,-74L1404,-55Z" fill="#926c39" stroke="#926c39" stroke-width="1.51"/><path d="M1281,217L1316,343L1430,224Z" fill="#845f2b" stroke="#845f2b" stroke-width="1.51"/><path d="M1290,44L1281,217L1403,70Z" fill="#886330" stroke="#886330" stroke-width="1.51"/><path d="M1290,762L1278,902L1419,867Z" fill="#f0a424" stroke="#f0a424" stroke-width="1.51"/><path d="M1315,1034L1291,1153L1414,1128Z" fill="#f3b622" stroke="#f3b622" stroke-width="1.51"/><path d="M1284,-74L1290,44L1404,-55Z" fill="#8f6936" stroke="#8f6936" stroke-width="1.51"/><path d="M594,-215L771,-189L868,-197Z" fill="#4c4136" stroke="#4c4136" stroke-width="1.51"/><path d="M1169,93L1177,201L1281,217Z" fill="#77572e" stroke="#77572e" stroke-width="1.51"/><path d="M1169,93L1281,217L1290,44Z" fill="#7e5d30" stroke="#7e5d30" stroke-width="1.51"/><path d="M1184,858L1278,902L1290,762Z" fill="#e59e25" stroke="#e59e25" stroke-width="1.51"/><path d="M1181,1158L1162,1261L1291,1153Z" fill="#e1af26" stroke="#e1af26" stroke-width="1.51"/><path d="M1181,756L1290,762L1311,603Z" fill="#d08e28" stroke="#d08e28" stroke-width="1.51"/><path d="M1136,596L1181,756L1311,603Z" fill="#be832a" stroke="#be832a" stroke-width="1.51"/><path d="M1157,483L1136,596L1311,603Z" fill="#aa772a" stroke="#aa772a" stroke-width="1.51"/><path d="M1157,483L1311,603L1315,461Z" fill="#aa762a" stroke="#aa762a" stroke-width="1.51"/><path d="M1190,1040L1291,1153L1315,1034Z" fill="#e8ad25" stroke="#e8ad25" stroke-width="1.51"/><path d="M1278,902L1190,1040L1315,1034Z" fill="#e7a725" stroke="#e7a725" stroke-width="1.51"/><path d="M1179,358L1315,461L1316,343Z" fill="#91672a" stroke="#91672a" stroke-width="1.51"/><path d="M1281,217L1179,358L1316,343Z" fill="#7f5c2a" stroke="#7f5c2a" stroke-width="1.51"/><path d="M1291,1153L1162,1261L1323,1291Z" fill="#e8b624" stroke="#e8b624" stroke-width="1.51"/><path d="M1179,358L1157,483L1315,461Z" fill="#93682a" stroke="#93682a" stroke-width="1.51"/><path d="M1284,-74L1169,-55L1290,44Z" fill="#856336" stroke="#856336" stroke-width="1.51"/><path d="M1177,201L1179,358L1281,217Z" fill="#73542a" stroke="#73542a" stroke-width="1.51"/><path d="M1169,-55L1284,-74L1287,-186Z" fill="#886538" stroke="#886538" stroke-width="1.51"/><path d="M1148,-224L1169,-55L1287,-186Z" fill="#84643a" stroke="#84643a" stroke-width="1.51"/><path d="M1169,-55L1169,93L1290,44Z" fill="#7d5d33" stroke="#7d5d33" stroke-width="1.51"/><path d="M1181,756L1184,858L1290,762Z" fill="#dc9626" stroke="#dc9626" stroke-width="1.51"/><path d="M1190,1040L1181,1158L1291,1153Z" fill="#e2ab26" stroke="#e2ab26" stroke-width="1.51"/><path d="M1184,858L1190,1040L1278,902Z" fill="#e0a026" stroke="#e0a026" stroke-width="1.51"/><path d="M868,-197L1041,-177L1148,-224Z" fill="#6f573a" stroke="#6f573a" stroke-width="1.51"/><path d="M1148,-224L1041,-177L1169,-55Z" fill="#7a5d39" stroke="#7a5d39" stroke-width="1.51"/><path d="M1169,-55L1053,-38L1169,93Z" fill="#745833" stroke="#745833" stroke-width="1.51"/><path d="M1169,93L1057,197L1177,201Z" fill="#6d512d" stroke="#6d512d" stroke-width="1.51"/><path d="M1177,201L1057,197L1179,358Z" fill="#6a4e2a" stroke="#6a4e2a" stroke-width="1.51"/><path d="M1057,197L1017,317L1179,358Z" fill="#674c29" stroke="#674c29" stroke-width="1.51"/><path d="M1136,596L1014,731L1181,756Z" fill="#b9802a" stroke="#b9802a" stroke-width="1.51"/><path d="M1048,1155L1162,1261L1181,1158Z" fill="#d6a828" stroke="#d6a828" stroke-width="1.51"/><path d="M1181,756L1046,888L1184,858Z" fill="#d59328" stroke="#d59328" stroke-width="1.51"/><path d="M1048,1155L1181,1158L1190,1040Z" fill="#d7a428" stroke="#d7a428" stroke-width="1.51"/><path d="M1004,1037L1048,1155L1190,1040Z" fill="#ce9c28" stroke="#ce9c28" stroke-width="1.51"/><path d="M1184,858L1046,888L1190,1040Z" fill="#d69928" stroke="#d69928" stroke-width="1.51"/><path d="M1046,888L1004,1037L1190,1040Z" fill="#ce9728" stroke="#ce9728" stroke-width="1.51"/><path d="M1022,620L1014,731L1136,596Z" fill="#a9752a" stroke="#a9752a" stroke-width="1.51"/><path d="M1017,317L997,480L1157,483Z" fill="#7d5a2a" stroke="#7d5a2a" stroke-width="1.51"/><path d="M1041,-177L1053,-38L1169,-55Z" fill="#735836" stroke="#735836" stroke-width="1.51"/><path d="M1053,-38L1011,44L1169,93Z" fill="#6c5231" stroke="#6c5231" stroke-width="1.51"/><path d="M1017,317L1157,483L1179,358Z" fill="#7d5a2a" stroke="#7d5a2a" stroke-width="1.51"/><path d="M1014,731L1046,888L1181,756Z" fill="#c98a28" stroke="#c98a28" stroke-width="1.51"/><path d="M359,1266L233,1283L467,1268Z" fill="#8e7f33" stroke="#8e7f33" stroke-width="1.51"/><path d="M1011,44L1057,197L1169,93Z" fill="#694f2e" stroke="#694f2e" stroke-width="1.51"/><path d="M997,480L1136,596L1157,483Z" fill="#94692a" stroke="#94692a" stroke-width="1.51"/><path d="M1048,1155L1000,1255L1162,1261Z" fill="#cda428" stroke="#cda428" stroke-width="1.51"/><path d="M997,480L1022,620L1136,596Z" fill="#976a2a" stroke="#976a2a" stroke-width="1.51"/><path d="M884,885L1004,1037L1046,888Z" fill="#bf8b29" stroke="#bf8b29" stroke-width="1.51"/><path d="M1014,731L909,766L1046,888Z" fill="#bd8329" stroke="#bd8329" stroke-width="1.51"/><path d="M909,766L884,885L1046,888Z" fill="#bb832a" stroke="#bb832a" stroke-width="1.51"/><path d="M1041,-177L917,-41L1053,-38Z" fill="#685135" stroke="#685135" stroke-width="1.51"/><path d="M1011,44L878,85L1057,197Z" fill="#5c472d" stroke="#5c472d" stroke-width="1.51"/><path d="M878,85L881,232L1057,197Z" fill="#55422b" stroke="#55422b" stroke-width="1.51"/><path d="M881,232L1017,317L1057,197Z" fill="#574228" stroke="#574228" stroke-width="1.51"/><path d="M889,448L997,480L1017,317Z" fill="#6f5129" stroke="#6f5129" stroke-width="1.51"/><path d="M997,480L921,612L1022,620Z" fill="#8e652a" stroke="#8e652a" stroke-width="1.51"/><path d="M1004,1037L866,1147L1048,1155Z" fill="#c0952a" stroke="#c0952a" stroke-width="1.51"/><path d="M917,-41L1011,44L1053,-38Z" fill="#634d32" stroke="#634d32" stroke-width="1.51"/><path d="M875,353L889,448L1017,317Z" fill="#624928" stroke="#624928" stroke-width="1.51"/><path d="M868,-197L917,-41L1041,-177Z" fill="#624e36" stroke="#624e36" stroke-width="1.51"/><path d="M866,1147L1000,1255L1048,1155Z" fill="#bf992a" stroke="#bf992a" stroke-width="1.51"/><path d="M884,885L891,1037L1004,1037Z" fill="#b9892a" stroke="#b9892a" stroke-width="1.51"/><path d="M921,612L1014,731L1022,620Z" fill="#a0702a" stroke="#a0702a" stroke-width="1.51"/><path d="M891,1037L866,1147L1004,1037Z" fill="#b88e2b" stroke="#b88e2b" stroke-width="1.51"/><path d="M921,612L909,766L1014,731Z" fill="#a5732a" stroke="#a5732a" stroke-width="1.51"/><path d="M866,1147L910,1282L1000,1255Z" fill="#b9972b" stroke="#b9972b" stroke-width="1.51"/><path d="M881,232L875,353L1017,317Z" fill="#544027" stroke="#544027" stroke-width="1.51"/><path d="M917,-41L878,85L1011,44Z" fill="#5a4730" stroke="#5a4730" stroke-width="1.51"/><path d="M889,448L921,612L997,480Z" fill="#7e5a2a" stroke="#7e5a2a" stroke-width="1.51"/><path d="M774,885L744,1000L884,885Z" fill="#a77b2a" stroke="#a77b2a" stroke-width="1.51"/><path d="M884,885L744,1000L891,1037Z" fill="#ad812b" stroke="#ad812b" stroke-width="1.51"/><path d="M785,743L884,885L909,766Z" fill="#ac782a" stroke="#ac782a" stroke-width="1.51"/><path d="M866,1147L748,1265L910,1282Z" fill="#ae902b" stroke="#ae902b" stroke-width="1.51"/><path d="M775,-49L878,85L917,-41Z" fill="#524230" stroke="#524230" stroke-width="1.51"/><path d="M868,-197L775,-49L917,-41Z" fill="#554634" stroke="#554634" stroke-width="1.51"/><path d="M889,448L781,498L921,612Z" fill="#76552a" stroke="#76552a" stroke-width="1.51"/><path d="M781,498L771,626L921,612Z" fill="#7c592a" stroke="#7c592a" stroke-width="1.51"/><path d="M785,743L909,766L921,612Z" fill="#9c6d2a" stroke="#9c6d2a" stroke-width="1.51"/><path d="M771,626L785,743L921,612Z" fill="#8c632b" stroke="#8c632b" stroke-width="1.51"/><path d="M775,-49L770,66L878,85Z" fill="#4a3d2e" stroke="#4a3d2e" stroke-width="1.51"/><path d="M771,-189L775,-49L868,-197Z" fill="#514334" stroke="#514334" stroke-width="1.51"/><path d="M878,85L741,194L881,232Z" fill="#483a2a" stroke="#483a2a" stroke-width="1.51"/><path d="M785,743L774,885L884,885Z" fill="#a8772b" stroke="#a8772b" stroke-width="1.51"/><path d="M744,1000L739,1148L866,1147Z" fill="#a5832b" stroke="#a5832b" stroke-width="1.51"/><path d="M770,66L741,194L878,85Z" fill="#45392b" stroke="#45392b" stroke-width="1.51"/><path d="M766,345L875,353L881,232Z" fill="#4c3b27" stroke="#4c3b27" stroke-width="1.51"/><path d="M875,353L766,345L889,448Z" fill="#594328" stroke="#594328" stroke-width="1.51"/><path d="M766,345L781,498L889,448Z" fill="#5e4728" stroke="#5e4728" stroke-width="1.51"/><path d="M744,1000L866,1147L891,1037Z" fill="#ac862b" stroke="#ac862b" stroke-width="1.51"/><path d="M739,1148L748,1265L866,1147Z" fill="#a6882c" stroke="#a6882c" stroke-width="1.51"/><path d="M741,194L766,345L881,232Z" fill="#403426" stroke="#403426" stroke-width="1.51"/><path d="M352,-214L474,-195L594,-215Z" fill="#353535" stroke="#353535" stroke-width="1.51"/><path d="M651,1122L739,1148L744,1000Z" fill="#9c7d2b" stroke="#9c7d2b" stroke-width="1.51"/><path d="M741,194L639,212L766,345Z" fill="#362e25" stroke="#362e25" stroke-width="1.51"/><path d="M639,212L625,349L766,345Z" fill="#372e25" stroke="#372e25" stroke-width="1.51"/><path d="M647,454L599,634L771,626Z" fill="#684d29" stroke="#684d29" stroke-width="1.51"/><path d="M599,634L607,746L771,626Z" fill="#78572a" stroke="#78572a" stroke-width="1.51"/><path d="M645,877L744,1000L774,885Z" fill="#9c742b" stroke="#9c742b" stroke-width="1.51"/><path d="M608,47L770,66L775,-49Z" fill="#3f372e" stroke="#3f372e" stroke-width="1.51"/><path d="M642,-85L608,47L775,-49Z" fill="#3c352f" stroke="#3c352f" stroke-width="1.51"/><path d="M771,-189L642,-85L775,-49Z" fill="#453c32" stroke="#453c32" stroke-width="1.51"/><path d="M647,454L771,626L781,498Z" fill="#674c29" stroke="#674c29" stroke-width="1.51"/><path d="M766,345L647,454L781,498Z" fill="#554128" stroke="#554128" stroke-width="1.51"/><path d="M771,626L607,746L785,743Z" fill="#87612b" stroke="#87612b" stroke-width="1.51"/><path d="M645,877L774,885L785,743Z" fill="#9e702b" stroke="#9e702b" stroke-width="1.51"/><path d="M607,746L645,877L785,743Z" fill="#92672b" stroke="#92672b" stroke-width="1.51"/><path d="M608,47L741,194L770,66Z" fill="#3b332a" stroke="#3b332a" stroke-width="1.51"/><path d="M625,349L647,454L766,345Z" fill="#453727" stroke="#453727" stroke-width="1.51"/><path d="M608,47L639,212L741,194Z" fill="#332d28" stroke="#332d28" stroke-width="1.51"/><path d="M594,-215L642,-85L771,-189Z" fill="#413a33" stroke="#413a33" stroke-width="1.51"/><path d="M100,-199L223,-192L352,-214Z" fill="#3b3b3b" stroke="#3b3b3b" stroke-width="1.51"/><path d="M598,1043L651,1122L744,1000Z" fill="#95772c" stroke="#95772c" stroke-width="1.51"/><path d="M645,877L598,1043L744,1000Z" fill="#95722b" stroke="#95722b" stroke-width="1.51"/><path d="M739,1148L651,1122L748,1265Z" fill="#9c822d" stroke="#9c822d" stroke-width="1.51"/><path d="M651,1122L592,1258L748,1265Z" fill="#957f2c" stroke="#957f2c" stroke-width="1.51"/><path d="M490,484L483,583L599,634Z" fill="#594428" stroke="#594428" stroke-width="1.51"/><path d="M492,-93L506,41L608,47Z" fill="#2c2c2c" stroke="#2c2c2c" stroke-width="1.51"/><path d="M506,41L495,226L608,47Z" fill="#282828" stroke="#282828" stroke-width="1.51"/><path d="M495,226L625,349L639,212Z" fill="#272423" stroke="#272423" stroke-width="1.51"/><path d="M608,47L495,226L639,212Z" fill="#292826" stroke="#292826" stroke-width="1.51"/><path d="M492,-93L608,47L642,-85Z" fill="#302f2e" stroke="#302f2e" stroke-width="1.51"/><path d="M594,-215L492,-93L642,-85Z" fill="#333231" stroke="#333231" stroke-width="1.51"/><path d="M490,997L598,1043L645,877Z" fill="#8a6b2c" stroke="#8a6b2c" stroke-width="1.51"/><path d="M509,847L490,997L645,877Z" fill="#87652b" stroke="#87652b" stroke-width="1.51"/><path d="M607,746L509,847L645,877Z" fill="#8a632b" stroke="#8a632b" stroke-width="1.51"/><path d="M625,349L490,484L647,454Z" fill="#433626" stroke="#433626" stroke-width="1.51"/><path d="M490,484L599,634L647,454Z" fill="#533f28" stroke="#533f28" stroke-width="1.51"/><path d="M598,1043L499,1156L651,1122Z" fill="#8b722c" stroke="#8b722c" stroke-width="1.51"/><path d="M499,1156L592,1258L651,1122Z" fill="#8a762d" stroke="#8a762d" stroke-width="1.51"/><path d="M476,345L490,484L625,349Z" fill="#393025" stroke="#393025" stroke-width="1.51"/><path d="M495,226L476,345L625,349Z" fill="#292624" stroke="#292624" stroke-width="1.51"/><path d="M599,634L492,725L607,746Z" fill="#735429" stroke="#735429" stroke-width="1.51"/><path d="M474,-195L492,-93L594,-215Z" fill="#333333" stroke="#333333" stroke-width="1.51"/><path d="M492,725L509,847L607,746Z" fill="#805c2b" stroke="#805c2b" stroke-width="1.51"/><path d="M499,1156L467,1268L592,1258Z" fill="#88772e" stroke="#88772e" stroke-width="1.51"/><path d="M490,997L499,1156L598,1043Z" fill="#876e2d" stroke="#876e2d" stroke-width="1.51"/><path d="M483,583L492,725L599,634Z" fill="#684d2a" stroke="#684d2a" stroke-width="1.51"/><path d="M99,1257L-35,1273L233,1283Z" fill="#95863a" stroke="#95863a" stroke-width="1.51"/><path d="M476,345L326,497L490,484Z" fill="#453829" stroke="#453829" stroke-width="1.51"/><path d="M483,583L381,636L492,725Z" fill="#6a4f2c" stroke="#6a4f2c" stroke-width="1.51"/><path d="M353,231L476,345L495,226Z" fill="#242424" stroke="#242424" stroke-width="1.51"/><path d="M340,96L353,231L495,226Z" fill="#282828" stroke="#282828" stroke-width="1.51"/><path d="M490,997L335,1040L499,1156Z" fill="#8a712f" stroke="#8a712f" stroke-width="1.51"/><path d="M335,1040L341,1155L499,1156Z" fill="#8c7531" stroke="#8c7531" stroke-width="1.51"/><path d="M492,-93L339,-62L506,41Z" fill="#2f2f2f" stroke="#2f2f2f" stroke-width="1.51"/><path d="M340,96L495,226L506,41Z" fill="#2a2a2a" stroke="#2a2a2a" stroke-width="1.51"/><path d="M347,886L490,997L509,847Z" fill="#8a682e" stroke="#8a682e" stroke-width="1.51"/><path d="M492,725L367,745L509,847Z" fill="#825e2d" stroke="#825e2d" stroke-width="1.51"/><path d="M367,745L347,886L509,847Z" fill="#8b652e" stroke="#8b652e" stroke-width="1.51"/><path d="M341,1155L467,1268L499,1156Z" fill="#8b7830" stroke="#8b7830" stroke-width="1.51"/><path d="M339,-62L340,96L506,41Z" fill="#2f2f2f" stroke="#2f2f2f" stroke-width="1.51"/><path d="M341,1155L359,1266L467,1268Z" fill="#8c7b31" stroke="#8c7b31" stroke-width="1.51"/><path d="M334,323L326,497L476,345Z" fill="#3c3329" stroke="#3c3329" stroke-width="1.51"/><path d="M326,497L483,583L490,484Z" fill="#53412a" stroke="#53412a" stroke-width="1.51"/><path d="M474,-195L339,-62L492,-93Z" fill="#333333" stroke="#333333" stroke-width="1.51"/><path d="M352,-214L339,-62L474,-195Z" fill="#353535" stroke="#353535" stroke-width="1.51"/><path d="M353,231L334,323L476,345Z" fill="#2c2926" stroke="#2c2926" stroke-width="1.51"/><path d="M381,636L367,745L492,725Z" fill="#76572d" stroke="#76572d" stroke-width="1.51"/><path d="M347,886L335,1040L490,997Z" fill="#8c6d30" stroke="#8c6d30" stroke-width="1.51"/><path d="M326,497L381,636L483,583Z" fill="#5d472b" stroke="#5d472b" stroke-width="1.51"/><path d="M339,-62L212,61L340,96Z" fill="#303030" stroke="#303030" stroke-width="1.51"/><path d="M222,1000L335,1040L347,886Z" fill="#8f7032" stroke="#8f7032" stroke-width="1.51"/><path d="M223,-192L339,-62L352,-214Z" fill="#373737" stroke="#373737" stroke-width="1.51"/><path d="M245,589L189,725L367,745Z" fill="#775931" stroke="#775931" stroke-width="1.51"/><path d="M218,864L347,886L367,745Z" fill="#8e6831" stroke="#8e6831" stroke-width="1.51"/><path d="M245,589L367,745L381,636Z" fill="#70532f" stroke="#70532f" stroke-width="1.51"/><path d="M326,497L245,589L381,636Z" fill="#60492e" stroke="#60492e" stroke-width="1.51"/><path d="M187,454L326,497L334,323Z" fill="#45392c" stroke="#45392c" stroke-width="1.51"/><path d="M241,307L187,454L334,323Z" fill="#3a332b" stroke="#3a332b" stroke-width="1.51"/><path d="M223,-192L218,-84L339,-62Z" fill="#373737" stroke="#373737" stroke-width="1.51"/><path d="M340,96L201,175L353,231Z" fill="#2b2b2b" stroke="#2b2b2b" stroke-width="1.51"/><path d="M341,1155L240,1175L359,1266Z" fill="#8e7b33" stroke="#8e7b33" stroke-width="1.51"/><path d="M189,725L218,864L367,745Z" fill="#896432" stroke="#896432" stroke-width="1.51"/><path d="M335,1040L240,1175L341,1155Z" fill="#8f7833" stroke="#8f7833" stroke-width="1.51"/><path d="M218,864L222,1000L347,886Z" fill="#906e33" stroke="#906e33" stroke-width="1.51"/><path d="M241,307L334,323L353,231Z" fill="#2b2a28" stroke="#2b2a28" stroke-width="1.51"/><path d="M240,1175L233,1283L359,1266Z" fill="#8f7f34" stroke="#8f7f34" stroke-width="1.51"/><path d="M218,-84L212,61L339,-62Z" fill="#343434" stroke="#343434" stroke-width="1.51"/><path d="M201,175L241,307L353,231Z" fill="#2a2a2a" stroke="#2a2a2a" stroke-width="1.51"/><path d="M222,1000L240,1175L335,1040Z" fill="#907634" stroke="#907634" stroke-width="1.51"/><path d="M212,61L201,175L340,96Z" fill="#2e2e2e" stroke="#2e2e2e" stroke-width="1.51"/><path d="M187,454L245,589L326,497Z" fill="#56442e" stroke="#56442e" stroke-width="1.51"/><path d="M61,475L61,624L187,454Z" fill="#5c4932" stroke="#5c4932" stroke-width="1.51"/><path d="M98,-69L212,61L218,-84Z" fill="#363636" stroke="#363636" stroke-width="1.51"/><path d="M218,864L106,982L222,1000Z" fill="#937235" stroke="#937235" stroke-width="1.51"/><path d="M106,982L77,1120L222,1000Z" fill="#947837" stroke="#947837" stroke-width="1.51"/><path d="M222,1000L77,1120L240,1175Z" fill="#937a36" stroke="#937a36" stroke-width="1.51"/><path d="M99,1257L233,1283L240,1175Z" fill="#928137" stroke="#928137" stroke-width="1.51"/><path d="M201,175L76,327L241,307Z" fill="#2b2b2b" stroke="#2b2b2b" stroke-width="1.51"/><path d="M76,327L187,454L241,307Z" fill="#3d352e" stroke="#3d352e" stroke-width="1.51"/><path d="M61,624L189,725L245,589Z" fill="#725733" stroke="#725733" stroke-width="1.51"/><path d="M187,454L61,624L245,589Z" fill="#614c31" stroke="#614c31" stroke-width="1.51"/><path d="M96,878L106,982L218,864Z" fill="#937136" stroke="#937136" stroke-width="1.51"/><path d="M100,-199L218,-84L223,-192Z" fill="#3a3a3a" stroke="#3a3a3a" stroke-width="1.51"/><path d="M77,1120L99,1257L240,1175Z" fill="#948038" stroke="#948038" stroke-width="1.51"/><path d="M110,85L201,175L212,61Z" fill="#313131" stroke="#313131" stroke-width="1.51"/><path d="M100,-199L98,-69L218,-84Z" fill="#3a3a3a" stroke="#3a3a3a" stroke-width="1.51"/><path d="M189,725L96,878L218,864Z" fill="#936c35" stroke="#936c35" stroke-width="1.51"/><path d="M75,738L96,878L189,725Z" fill="#8e6836" stroke="#8e6836" stroke-width="1.51"/><path d="M58,180L76,327L201,175Z" fill="#2e2e2e" stroke="#2e2e2e" stroke-width="1.51"/><path d="M98,-69L110,85L212,61Z" fill="#353535" stroke="#353535" stroke-width="1.51"/><path d="M76,327L61,475L187,454Z" fill="#483d30" stroke="#483d30" stroke-width="1.51"/><path d="M61,624L75,738L189,725Z" fill="#7d5d35" stroke="#7d5d35" stroke-width="1.51"/><path d="M110,85L58,180L201,175Z" fill="#313131" stroke="#313131" stroke-width="1.51"/><path d="M75,738L-59,901L96,878Z" fill="#967038" stroke="#967038" stroke-width="1.51"/><path d="M-83,-43L-60,53L98,-69Z" fill="#3a3a3a" stroke="#3a3a3a" stroke-width="1.51"/><path d="M77,1120L-30,1147L99,1257Z" fill="#96823a" stroke="#96823a" stroke-width="1.51"/><path d="M-30,1147L-35,1273L99,1257Z" fill="#98853c" stroke="#98853c" stroke-width="1.51"/><path d="M-72,-205L98,-69L100,-199Z" fill="#3e3e3e" stroke="#3e3e3e" stroke-width="1.51"/><path d="M96,878L-59,901L106,982Z" fill="#977439" stroke="#977439" stroke-width="1.51"/><path d="M-59,901L-42,1001L106,982Z" fill="#98783a" stroke="#98783a" stroke-width="1.51"/><path d="M-42,1001L77,1120L106,982Z" fill="#977a3a" stroke="#977a3a" stroke-width="1.51"/><path d="M98,-69L-60,53L110,85Z" fill="#373737" stroke="#373737" stroke-width="1.51"/><path d="M-60,53L58,180L110,85Z" fill="#343434" stroke="#343434" stroke-width="1.51"/><path d="M61,475L-33,603L61,624Z" fill="#675035" stroke="#675035" stroke-width="1.51"/><path d="M-80,744L-59,901L75,738Z" fill="#956e39" stroke="#956e39" stroke-width="1.51"/><path d="M58,180L-42,198L76,327Z" fill="#2f2f2f" stroke="#2f2f2f" stroke-width="1.51"/><path d="M-44,332L61,475L76,327Z" fill="#433a31" stroke="#433a31" stroke-width="1.51"/><path d="M-72,-205L-83,-43L98,-69Z" fill="#3d3d3d" stroke="#3d3d3d" stroke-width="1.51"/><path d="M-42,198L-44,332L76,327Z" fill="#323130" stroke="#323130" stroke-width="1.51"/><path d="M-60,53L-42,198L58,180Z" fill="#343434" stroke="#343434" stroke-width="1.51"/><path d="M-54,496L-33,603L61,475Z" fill="#604c35" stroke="#604c35" stroke-width="1.51"/><path d="M-44,332L-54,496L61,475Z" fill="#4f4233" stroke="#4f4233" stroke-width="1.51"/><path d="M61,624L-33,603L75,738Z" fill="#785b36" stroke="#785b36" stroke-width="1.51"/><path d="M-33,603L-80,744L75,738Z" fill="#826138" stroke="#826138" stroke-width="1.51"/><path d="M-42,1001L-30,1147L77,1120Z" fill="#987f3b" stroke="#987f3b" stroke-width="1.51"/><path d="M-168,-74L-83,-43L-72,-205Z" fill="#3f3f3f" stroke="#3f3f3f" stroke-width="1.51"/><path d="M-174,67L-184,181L-60,53Z" fill="#393939" stroke="#393939" stroke-width="1.51"/><path d="M-80,744L-181,890L-59,901Z" fill="#9b743c" stroke="#9b743c" stroke-width="1.51"/><path d="M-184,466L-54,496L-44,332Z" fill="#514435" stroke="#514435" stroke-width="1.51"/><path d="M-161,320L-184,466L-44,332Z" fill="#463e35" stroke="#463e35" stroke-width="1.51"/><path d="M-60,53L-184,181L-42,198Z" fill="#363636" stroke="#363636" stroke-width="1.51"/><path d="M-161,320L-44,332L-42,198Z" fill="#343332" stroke="#343332" stroke-width="1.51"/><path d="M-200,1030L-176,1131L-42,1001Z" fill="#9c813f" stroke="#9c813f" stroke-width="1.51"/><path d="M-54,496L-163,580L-33,603Z" fill="#695337" stroke="#695337" stroke-width="1.51"/><path d="M-163,580L-80,744L-33,603Z" fill="#795d39" stroke="#795d39" stroke-width="1.51"/><path d="M-42,1001L-176,1131L-30,1147Z" fill="#9b813d" stroke="#9b813d" stroke-width="1.51"/><path d="M-160,1283L-35,1273L-30,1147Z" fill="#9b893e" stroke="#9b893e" stroke-width="1.51"/><path d="M-176,1131L-160,1283L-30,1147Z" fill="#9c883f" stroke="#9c883f" stroke-width="1.51"/><path d="M-184,181L-161,320L-42,198Z" fill="#343434" stroke="#343434" stroke-width="1.51"/><path d="M-59,901L-181,890L-42,1001Z" fill="#9b793d" stroke="#9b793d" stroke-width="1.51"/><path d="M-167,-209L-168,-74L-72,-205Z" fill="#434343" stroke="#434343" stroke-width="1.51"/><path d="M-181,890L-200,1030L-42,1001Z" fill="#9c7c3e" stroke="#9c7c3e" stroke-width="1.51"/><path d="M-213,769L-181,890L-80,744Z" fill="#9b733d" stroke="#9b733d" stroke-width="1.51"/><path d="M-83,-43L-174,67L-60,53Z" fill="#3b3b3b" stroke="#3b3b3b" stroke-width="1.51"/><path d="M-184,466L-163,580L-54,496Z" fill="#614e38" stroke="#614e38" stroke-width="1.51"/><path d="M-163,580L-213,769L-80,744Z" fill="#86653c" stroke="#86653c" stroke-width="1.51"/><path d="M-168,-74L-174,67L-83,-43Z" fill="#3d3d3d" stroke="#3d3d3d" stroke-width="1.51"/><path d="M-176,1131L-200,1030L-160,1283Z" fill="#9e8741" stroke="#9e8741" stroke-width="1.51"/><path d="M-184,181L-184,466L-161,320Z" fill="#3e3935" stroke="#3e3935" stroke-width="1.51"/><path d="M-184,466L-213,769L-163,580Z" fill="#745b3b" stroke="#745b3b" stroke-width="1.51"/><path d="M-184,181L-168,-74L-167,-209Z" fill="#3f3f3f" stroke="#3f3f3f" stroke-width="1.51"/><path d="M-184,181L-174,67L-168,-74Z" fill="#3b3b3b" stroke="#3b3b3b" stroke-width="1.51"/><path d="M-184,181L-213,769L-184,466Z" fill="#5b4b39" stroke="#5b4b39" stroke-width="1.51"/><path d="M-213,769L-200,1030L-181,890Z" fill="#9e7a3f" stroke="#9e7a3f" stroke-width="1.51"/></svg>