<svg xmlns="http://www.w3.org/2000/svg" width="1920" height="1080"><path d="M-136,-215L284,-217L629,-220Z" fill="#d52a1c" stroke="#d52a1c" stroke-width="1.51"/><path d="M629,-220L859,-183L1099,-178Z" fill="#da441d" stroke="#da441d" stroke-width="1.51"/><path d="M707,1244L443,1297L1225,1294Z" fill="#ec8321" stroke="#ec8321" stroke-width="1.51"/><path d="M1099,-178L1305,-145L1589,-145Z" fill="#df551e" stroke="#df551e" stroke-width="1.51"/><path d="M1401,1254L1225,1294L1765,1250Z" fill="#f09422" stroke="#f09422" stroke-width="1.51"/><path d="M1099,-178L1589,-145L2093,-171Z" fill="#e15c1e" stroke="#e15c1e" stroke-width="1.51"/><path d="M629,-220L1099,-178L2093,-171Z" fill="#de521e" stroke="#de521e" stroke-width="1.51"/><path d="M1763,-116L1967,-91L2093,-171Z" fill="#e4681f" stroke="#e4681f" stroke-width="1.51"/><path d="M1589,-145L1763,-116L2093,-171Z" fill="#e3631f" stroke="#e3631f" stroke-width="1.51"/><path d="M1765,1250L1225,1294L2104,1289Z" fill="#f29a23" stroke="#f29a23" stroke-width="1.51"/><path d="M1917,1223L1765,1250L2104,1289Z" fill="#f39f22" stroke="#f39f22" stroke-width="1.51"/><path d="M2100,377L1998,489L2112,534Z" fill="#ec8421" stroke="#ec8421" stroke-width="1.51"/><path d="M2093,-171L1967,-91L2123,41Z" fill="#e66e20" stroke="#e66e20" stroke-width="1.51"/><path d="M2100,377L2112,534L2133,172Z" fill="#eb8021" stroke="#eb8021" stroke-width="1.51"/><path d="M2104,273L2100,377L2133,172Z" fill="#ea7d21" stroke="#ea7d21" stroke-width="1.51"/><path d="M2123,41L1962,65L2133,172Z" fill="#e87520" stroke="#e87520" stroke-width="1.51"/><path d="M2052,1097L2104,1289L2146,677Z" fill="#f29a23" stroke="#f29a23" stroke-width="1.51"/><path d="M2053,896L2052,1097L2146,677Z" fill="#f19522" stroke="#f19522" stroke-width="1.51"/><path d="M2112,534L1980,732L2146,677Z" fill="#ee8b22" stroke="#ee8b22" stroke-width="1.51"/><path d="M1980,732L2052,751L2146,677Z" fill="#ef8d22" stroke="#ef8d22" stroke-width="1.51"/><path d="M2052,751L2053,896L2146,677Z" fill="#ef9022" stroke="#ef9022" stroke-width="1.51"/><path d="M2133,172L2112,534L2146,677Z" fill="#ed8521" stroke="#ed8521" stroke-width="1.51"/><path d="M1978,1079L2052,1097L2053,896Z" fill="#f29823" stroke="#f29823" stroke-width="1.51"/><path d="M2052,1097L1917,1223L2104,1289Z" fill="#f39f23" stroke="#f39f23" stroke-width="1.51"/><path d="M1998,489L1980,732L2112,534Z" fill="#ed8721" stroke="#ed8721" stroke-width="1.51"/><path d="M1967,-91L1962,65L2123,41Z" fill="#e66f20" stroke="#e66f20" stroke-width="1.51"/><path d="M1879,231L2104,273L2133,172Z" fill="#e97921" stroke="#e97921" stroke-width="1.51"/><path d="M1962,65L1879,231L2133,172Z" fill="#e87520" stroke="#e87520" stroke-width="1.51"/><path d="M1934,957L1978,1079L2053,896Z" fill="#f19522" stroke="#f19522" stroke-width="1.51"/><path d="M1882,351L2100,377L2104,273Z" fill="#ea7d21" stroke="#ea7d21" stroke-width="1.51"/><path d="M1879,231L1882,351L2104,273Z" fill="#e97920" stroke="#e97920" stroke-width="1.51"/><path d="M1882,351L1998,489L2100,377Z" fill="#eb7f21" stroke="#eb7f21" stroke-width="1.51"/><path d="M1917,-18L1962,65L1967,-91Z" fill="#e66d1f" stroke="#e66d1f" stroke-width="1.51"/><path d="M1818,629L1980,732L1998,489Z" fill="#ec8621" stroke="#ec8621" stroke-width="1.51"/><path d="M1978,1079L1917,1223L2052,1097Z" fill="#f39c22" stroke="#f39c22" stroke-width="1.51"/><path d="M1980,732L1924,848L2052,751Z" fill="#ef8e21" stroke="#ef8e21" stroke-width="1.51"/><path d="M2052,751L1924,848L2053,896Z" fill="#ef9022" stroke="#ef9022" stroke-width="1.51"/><path d="M1924,848L1934,957L2053,896Z" fill="#f09222" stroke="#f09222" stroke-width="1.51"/><path d="M1856,1146L1917,1223L1978,1079Z" fill="#f29b22" stroke="#f29b22" stroke-width="1.51"/><path d="M1882,351L1764,425L1998,489Z" fill="#ea7d21" stroke="#ea7d21" stroke-width="1.51"/><path d="M1764,425L1818,629L1998,489Z" fill="#eb8021" stroke="#eb8021" stroke-width="1.51"/><path d="M1934,957L1868,975L1978,1079Z" fill="#f19522" stroke="#f19522" stroke-width="1.51"/><path d="M1818,629L1924,848L1980,732Z" fill="#ee8a21" stroke="#ee8a21" stroke-width="1.51"/><path d="M1785,64L1879,231L1962,65Z" fill="#e77020" stroke="#e77020" stroke-width="1.51"/><path d="M1868,975L1856,1146L1978,1079Z" fill="#f19722" stroke="#f19722" stroke-width="1.51"/><path d="M1817,21L1785,64L1962,65Z" fill="#e56d20" stroke="#e56d20" stroke-width="1.51"/><path d="M1763,-116L1917,-18L1967,-91Z" fill="#e4681f" stroke="#e4681f" stroke-width="1.51"/><path d="M1818,629L1779,867L1924,848Z" fill="#ee8a21" stroke="#ee8a21" stroke-width="1.51"/><path d="M1917,-18L1817,21L1962,65Z" fill="#e66d1f" stroke="#e66d1f" stroke-width="1.51"/><path d="M1764,425L1731,579L1818,629Z" fill="#eb7f21" stroke="#eb7f21" stroke-width="1.51"/><path d="M1779,867L1868,975L1924,848Z" fill="#ef8f22" stroke="#ef8f22" stroke-width="1.51"/><path d="M1924,848L1868,975L1934,957Z" fill="#f09222" stroke="#f09222" stroke-width="1.51"/><path d="M1613,1201L1401,1254L1765,1250Z" fill="#f19522" stroke="#f19522" stroke-width="1.51"/><path d="M1702,697L1779,867L1818,629Z" fill="#ed8621" stroke="#ed8621" stroke-width="1.51"/><path d="M1763,-116L1817,21L1917,-18Z" fill="#e5681f" stroke="#e5681f" stroke-width="1.51"/><path d="M1856,1146L1765,1250L1917,1223Z" fill="#f29b22" stroke="#f29b22" stroke-width="1.51"/><path d="M1305,-145L1420,-123L1589,-145Z" fill="#e0591f" stroke="#e0591f" stroke-width="1.51"/><path d="M1702,697L1693,819L1779,867Z" fill="#ed8822" stroke="#ed8822" stroke-width="1.51"/><path d="M1715,1071L1856,1146L1868,975Z" fill="#f19422" stroke="#f19422" stroke-width="1.51"/><path d="M1709,989L1715,1071L1868,975Z" fill="#f09122" stroke="#f09122" stroke-width="1.51"/><path d="M1785,64L1702,202L1879,231Z" fill="#e67020" stroke="#e67020" stroke-width="1.51"/><path d="M1702,202L1732,267L1879,231Z" fill="#e77220" stroke="#e77220" stroke-width="1.51"/><path d="M1879,231L1732,267L1882,351Z" fill="#e87620" stroke="#e87620" stroke-width="1.51"/><path d="M1732,267L1764,425L1882,351Z" fill="#e97720" stroke="#e97720" stroke-width="1.51"/><path d="M1490,1211L1401,1254L1613,1201Z" fill="#f09322" stroke="#f09322" stroke-width="1.51"/><path d="M1779,867L1709,989L1868,975Z" fill="#ef8f21" stroke="#ef8f21" stroke-width="1.51"/><path d="M1715,1071L1765,1250L1856,1146Z" fill="#f19722" stroke="#f19722" stroke-width="1.51"/><path d="M1704,441L1731,579L1764,425Z" fill="#ea7b21" stroke="#ea7b21" stroke-width="1.51"/><path d="M1661,111L1702,202L1785,64Z" fill="#e66c20" stroke="#e66c20" stroke-width="1.51"/><path d="M1705,-84L1785,64L1817,21Z" fill="#e4691f" stroke="#e4691f" stroke-width="1.51"/><path d="M1763,-116L1705,-84L1817,21Z" fill="#e4661f" stroke="#e4661f" stroke-width="1.51"/><path d="M1731,579L1721,603L1818,629Z" fill="#eb8121" stroke="#eb8121" stroke-width="1.51"/><path d="M1721,603L1702,697L1818,629Z" fill="#ec8221" stroke="#ec8221" stroke-width="1.51"/><path d="M1589,-145L1594,-135L1705,-84Z" fill="#e25f1f" stroke="#e25f1f" stroke-width="1.51"/><path d="M1589,-145L1705,-84L1763,-116Z" fill="#e2611f" stroke="#e2611f" stroke-width="1.51"/><path d="M1732,267L1704,441L1764,425Z" fill="#e97720" stroke="#e97720" stroke-width="1.51"/><path d="M1715,1071L1613,1201L1765,1250Z" fill="#f19622" stroke="#f19622" stroke-width="1.51"/><path d="M1693,819L1709,989L1779,867Z" fill="#ef8c21" stroke="#ef8c21" stroke-width="1.51"/><path d="M1705,-84L1661,111L1785,64Z" fill="#e4681f" stroke="#e4681f" stroke-width="1.51"/><path d="M1573,38L1661,111L1705,-84Z" fill="#e4661f" stroke="#e4661f" stroke-width="1.51"/><path d="M1693,819L1558,917L1709,989Z" fill="#ee8a21" stroke="#ee8a21" stroke-width="1.51"/><path d="M1571,1130L1613,1201L1715,1071Z" fill="#f09322" stroke="#f09322" stroke-width="1.51"/><path d="M1568,549L1721,603L1731,579Z" fill="#ea7d20" stroke="#ea7d20" stroke-width="1.51"/><path d="M1704,441L1568,549L1731,579Z" fill="#ea7b21" stroke="#ea7b21" stroke-width="1.51"/><path d="M1702,202L1470,252L1732,267Z" fill="#e66f20" stroke="#e66f20" stroke-width="1.51"/><path d="M1460,374L1704,441L1732,267Z" fill="#e77320" stroke="#e77320" stroke-width="1.51"/><path d="M1470,252L1460,374L1732,267Z" fill="#e66f20" stroke="#e66f20" stroke-width="1.51"/><path d="M1568,549L1702,697L1721,603Z" fill="#eb7f21" stroke="#eb7f21" stroke-width="1.51"/><path d="M1518,744L1693,819L1702,697Z" fill="#ec8421" stroke="#ec8421" stroke-width="1.51"/><path d="M1709,989L1571,1130L1715,1071Z" fill="#f09122" stroke="#f09122" stroke-width="1.51"/><path d="M1505,161L1470,252L1702,202Z" fill="#e56c1f" stroke="#e56c1f" stroke-width="1.51"/><path d="M1594,-135L1573,38L1705,-84Z" fill="#e2621f" stroke="#e2621f" stroke-width="1.51"/><path d="M1558,917L1571,1130L1709,989Z" fill="#ef8d21" stroke="#ef8d21" stroke-width="1.51"/><path d="M1568,549L1518,744L1702,697Z" fill="#eb7f21" stroke="#eb7f21" stroke-width="1.51"/><path d="M1460,374L1568,549L1704,441Z" fill="#e87720" stroke="#e87720" stroke-width="1.51"/><path d="M1661,111L1505,161L1702,202Z" fill="#e56b1f" stroke="#e56b1f" stroke-width="1.51"/><path d="M1518,744L1558,917L1693,819Z" fill="#ed8621" stroke="#ed8621" stroke-width="1.51"/><path d="M1573,38L1505,161L1661,111Z" fill="#e4681f" stroke="#e4681f" stroke-width="1.51"/><path d="M552,1265L443,1297L707,1244Z" fill="#ea7d21" stroke="#ea7d21" stroke-width="1.51"/><path d="M1518,744L1464,874L1558,917Z" fill="#ed8421" stroke="#ed8421" stroke-width="1.51"/><path d="M1460,374L1427,467L1568,549Z" fill="#e87420" stroke="#e87420" stroke-width="1.51"/><path d="M1444,634L1518,744L1568,549Z" fill="#ea7c21" stroke="#ea7c21" stroke-width="1.51"/><path d="M1558,917L1385,1124L1571,1130Z" fill="#ef8d21" stroke="#ef8d21" stroke-width="1.51"/><path d="M1420,-123L1573,38L1594,-135Z" fill="#e25e1f" stroke="#e25e1f" stroke-width="1.51"/><path d="M1571,1130L1490,1211L1613,1201Z" fill="#f09322" stroke="#f09322" stroke-width="1.51"/><path d="M1355,928L1385,1124L1558,917Z" fill="#ee8821" stroke="#ee8821" stroke-width="1.51"/><path d="M1420,-123L1388,24L1573,38Z" fill="#e25f1f" stroke="#e25f1f" stroke-width="1.51"/><path d="M1589,-145L1420,-123L1594,-135Z" fill="#e15c1f" stroke="#e15c1f" stroke-width="1.51"/><path d="M1464,874L1355,928L1558,917Z" fill="#ed8621" stroke="#ed8621" stroke-width="1.51"/><path d="M1427,467L1419,527L1568,549Z" fill="#e87620" stroke="#e87620" stroke-width="1.51"/><path d="M1388,24L1505,161L1573,38Z" fill="#e3641f" stroke="#e3641f" stroke-width="1.51"/><path d="M1385,1124L1490,1211L1571,1130Z" fill="#ef9022" stroke="#ef9022" stroke-width="1.51"/><path d="M1419,527L1444,634L1568,549Z" fill="#e97820" stroke="#e97820" stroke-width="1.51"/><path d="M1024,1223L707,1244L1225,1294Z" fill="#ed8721" stroke="#ed8721" stroke-width="1.51"/><path d="M1422,185L1470,252L1505,161Z" fill="#e4691f" stroke="#e4691f" stroke-width="1.51"/><path d="M1388,24L1422,185L1505,161Z" fill="#e3641f" stroke="#e3641f" stroke-width="1.51"/><path d="M1337,879L1464,874L1518,744Z" fill="#ec8221" stroke="#ec8221" stroke-width="1.51"/><path d="M1444,634L1337,879L1518,744Z" fill="#eb7f20" stroke="#eb7f20" stroke-width="1.51"/><path d="M1262,846L1337,879L1444,634Z" fill="#ea7e21" stroke="#ea7e21" stroke-width="1.51"/><path d="M1346,302L1460,374L1470,252Z" fill="#e66c20" stroke="#e66c20" stroke-width="1.51"/><path d="M1385,1124L1401,1254L1490,1211Z" fill="#f09022" stroke="#f09022" stroke-width="1.51"/><path d="M1422,185L1346,302L1470,252Z" fill="#e46920" stroke="#e46920" stroke-width="1.51"/><path d="M1205,628L1262,846L1444,634Z" fill="#e97920" stroke="#e97920" stroke-width="1.51"/><path d="M1337,879L1355,928L1464,874Z" fill="#ec8321" stroke="#ec8321" stroke-width="1.51"/><path d="M1388,24L1289,115L1422,185Z" fill="#e3621f" stroke="#e3621f" stroke-width="1.51"/><path d="M1346,302L1427,467L1460,374Z" fill="#e66f1f" stroke="#e66f1f" stroke-width="1.51"/><path d="M1355,928L1303,934L1385,1124Z" fill="#ed8622" stroke="#ed8622" stroke-width="1.51"/><path d="M1273,-41L1388,24L1420,-123Z" fill="#e15a1f" stroke="#e15a1f" stroke-width="1.51"/><path d="M1419,527L1205,628L1444,634Z" fill="#e97621" stroke="#e97621" stroke-width="1.51"/><path d="M1193,567L1205,628L1419,527Z" fill="#e77320" stroke="#e77320" stroke-width="1.51"/><path d="M1305,-145L1273,-41L1420,-123Z" fill="#e0571e" stroke="#e0571e" stroke-width="1.51"/><path d="M1195,430L1419,527L1427,467Z" fill="#e77120" stroke="#e77120" stroke-width="1.51"/><path d="M1346,302L1195,430L1427,467Z" fill="#e66d20" stroke="#e66d20" stroke-width="1.51"/><path d="M1289,115L1346,302L1422,185Z" fill="#e3651f" stroke="#e3651f" stroke-width="1.51"/><path d="M1195,430L1193,567L1419,527Z" fill="#e77020" stroke="#e77020" stroke-width="1.51"/><path d="M887,1207L707,1244L1024,1223Z" fill="#ec8321" stroke="#ec8321" stroke-width="1.51"/><path d="M1303,934L1177,1091L1385,1124Z" fill="#ed8721" stroke="#ed8721" stroke-width="1.51"/><path d="M1385,1124L1225,1294L1401,1254Z" fill="#ef8e21" stroke="#ef8e21" stroke-width="1.51"/><path d="M1177,1091L1225,1294L1385,1124Z" fill="#ee8a21" stroke="#ee8a21" stroke-width="1.51"/><path d="M1273,-41L1289,115L1388,24Z" fill="#e15d1f" stroke="#e15d1f" stroke-width="1.51"/><path d="M1289,115L1194,270L1346,302Z" fill="#e3651f" stroke="#e3651f" stroke-width="1.51"/><path d="M1177,1091L1142,1226L1225,1294Z" fill="#ee8a22" stroke="#ee8a22" stroke-width="1.51"/><path d="M1194,270L1195,430L1346,302Z" fill="#e4681f" stroke="#e4681f" stroke-width="1.51"/><path d="M1337,879L1303,934L1355,928Z" fill="#ec8320" stroke="#ec8320" stroke-width="1.51"/><path d="M1147,1037L1177,1091L1303,934Z" fill="#ec8421" stroke="#ec8421" stroke-width="1.51"/><path d="M859,-183L919,-166L1099,-178Z" fill="#dc481d" stroke="#dc481d" stroke-width="1.51"/><path d="M1262,846L1303,934L1337,879Z" fill="#eb8020" stroke="#eb8020" stroke-width="1.51"/><path d="M1205,628L1097,711L1262,846Z" fill="#e97720" stroke="#e97720" stroke-width="1.51"/><path d="M1109,19L1119,92L1273,-41Z" fill="#e0581e" stroke="#e0581e" stroke-width="1.51"/><path d="M1273,-41L1119,92L1289,115Z" fill="#e15b1f" stroke="#e15b1f" stroke-width="1.51"/><path d="M1160,871L1147,1037L1303,934Z" fill="#eb8021" stroke="#eb8021" stroke-width="1.51"/><path d="M1099,-178L1273,-41L1305,-145Z" fill="#df531e" stroke="#df531e" stroke-width="1.51"/><path d="M1262,846L1160,871L1303,934Z" fill="#eb7f20" stroke="#eb7f20" stroke-width="1.51"/><path d="M1097,711L1160,871L1262,846Z" fill="#ea7a20" stroke="#ea7a20" stroke-width="1.51"/><path d="M1119,92L1194,270L1289,115Z" fill="#e25f1f" stroke="#e25f1f" stroke-width="1.51"/><path d="M1096,961L1147,1037L1160,871Z" fill="#eb7f21" stroke="#eb7f21" stroke-width="1.51"/><path d="M1099,-178L1109,19L1273,-41Z" fill="#df541e" stroke="#df541e" stroke-width="1.51"/><path d="M1166,434L1079,497L1193,567Z" fill="#e66d1f" stroke="#e66d1f" stroke-width="1.51"/><path d="M1119,92L1144,277L1194,270Z" fill="#e2601f" stroke="#e2601f" stroke-width="1.51"/><path d="M1166,434L1193,567L1195,430Z" fill="#e66d20" stroke="#e66d20" stroke-width="1.51"/><path d="M1194,270L1144,277L1195,430Z" fill="#e4661f" stroke="#e4661f" stroke-width="1.51"/><path d="M1144,277L1166,434L1195,430Z" fill="#e5681f" stroke="#e5681f" stroke-width="1.51"/><path d="M1142,1226L1024,1223L1225,1294Z" fill="#ee8a22" stroke="#ee8a22" stroke-width="1.51"/><path d="M1193,567L1097,711L1205,628Z" fill="#e87320" stroke="#e87320" stroke-width="1.51"/><path d="M1144,277L1009,317L1166,434Z" fill="#e4651f" stroke="#e4651f" stroke-width="1.51"/><path d="M1022,551L1097,711L1193,567Z" fill="#e77020" stroke="#e77020" stroke-width="1.51"/><path d="M1079,497L1022,551L1193,567Z" fill="#e66d1f" stroke="#e66d1f" stroke-width="1.51"/><path d="M1024,1223L1142,1226L1177,1091Z" fill="#ed8721" stroke="#ed8721" stroke-width="1.51"/><path d="M1147,1037L1001,1055L1177,1091Z" fill="#ec8221" stroke="#ec8221" stroke-width="1.51"/><path d="M1001,1055L1024,1223L1177,1091Z" fill="#ec8421" stroke="#ec8421" stroke-width="1.51"/><path d="M1119,92L1009,317L1144,277Z" fill="#e25f1f" stroke="#e25f1f" stroke-width="1.51"/><path d="M1097,711L973,859L1160,871Z" fill="#e97821" stroke="#e97821" stroke-width="1.51"/><path d="M1009,317L1079,497L1166,434Z" fill="#e46720" stroke="#e46720" stroke-width="1.51"/><path d="M1016,933L1096,961L1160,871Z" fill="#ea7c21" stroke="#ea7c21" stroke-width="1.51"/><path d="M973,859L1016,933L1160,871Z" fill="#ea7a21" stroke="#ea7a21" stroke-width="1.51"/><path d="M1022,551L980,610L1097,711Z" fill="#e76f1f" stroke="#e76f1f" stroke-width="1.51"/><path d="M1099,-178L910,-69L1109,19Z" fill="#dd4f1e" stroke="#dd4f1e" stroke-width="1.51"/><path d="M901,110L1009,317L1119,92Z" fill="#e05a1e" stroke="#e05a1e" stroke-width="1.51"/><path d="M1096,961L1001,1055L1147,1037Z" fill="#eb8021" stroke="#eb8021" stroke-width="1.51"/><path d="M1009,317L946,418L1079,497Z" fill="#e3651f" stroke="#e3651f" stroke-width="1.51"/><path d="M919,-166L910,-69L1099,-178Z" fill="#dc4b1e" stroke="#dc4b1e" stroke-width="1.51"/><path d="M1109,19L901,110L1119,92Z" fill="#e0571f" stroke="#e0571f" stroke-width="1.51"/><path d="M910,-69L901,110L1109,19Z" fill="#de521e" stroke="#de521e" stroke-width="1.51"/><path d="M1016,933L1001,1055L1096,961Z" fill="#eb7d21" stroke="#eb7d21" stroke-width="1.51"/><path d="M980,610L973,859L1097,711Z" fill="#e77320" stroke="#e77320" stroke-width="1.51"/><path d="M877,83L901,110L910,-69Z" fill="#de511e" stroke="#de511e" stroke-width="1.51"/><path d="M946,418L1022,551L1079,497Z" fill="#e4691f" stroke="#e4691f" stroke-width="1.51"/><path d="M836,645L869,880L973,859Z" fill="#e77220" stroke="#e77220" stroke-width="1.51"/><path d="M836,645L973,859L980,610Z" fill="#e66f20" stroke="#e66f20" stroke-width="1.51"/><path d="M849,1158L887,1207L1001,1055Z" fill="#eb8121" stroke="#eb8121" stroke-width="1.51"/><path d="M901,110L837,334L1009,317Z" fill="#e15b1f" stroke="#e15b1f" stroke-width="1.51"/><path d="M825,1021L1001,1055L1016,933Z" fill="#ea7b21" stroke="#ea7b21" stroke-width="1.51"/><path d="M946,418L980,610L1022,551Z" fill="#e5691f" stroke="#e5691f" stroke-width="1.51"/><path d="M1001,1055L887,1207L1024,1223Z" fill="#ec8321" stroke="#ec8321" stroke-width="1.51"/><path d="M869,880L825,1021L1016,933Z" fill="#e97820" stroke="#e97820" stroke-width="1.51"/><path d="M973,859L869,880L1016,933Z" fill="#e97820" stroke="#e97820" stroke-width="1.51"/><path d="M946,418L836,645L980,610Z" fill="#e5691f" stroke="#e5691f" stroke-width="1.51"/><path d="M837,334L946,418L1009,317Z" fill="#e2611f" stroke="#e2611f" stroke-width="1.51"/><path d="M838,3L877,83L910,-69Z" fill="#dd4e1e" stroke="#dd4e1e" stroke-width="1.51"/><path d="M825,1021L849,1158L1001,1055Z" fill="#eb7d21" stroke="#eb7d21" stroke-width="1.51"/><path d="M757,225L837,334L901,110Z" fill="#e0571f" stroke="#e0571f" stroke-width="1.51"/><path d="M742,593L836,645L946,418Z" fill="#e4671f" stroke="#e4671f" stroke-width="1.51"/><path d="M739,395L742,593L946,418Z" fill="#e3621f" stroke="#e3621f" stroke-width="1.51"/><path d="M837,334L739,395L946,418Z" fill="#e25f1e" stroke="#e25f1e" stroke-width="1.51"/><path d="M742,593L753,608L836,645Z" fill="#e46720" stroke="#e46720" stroke-width="1.51"/><path d="M836,645L650,768L869,880Z" fill="#e66e20" stroke="#e66e20" stroke-width="1.51"/><path d="M859,-183L910,-69L919,-166Z" fill="#dc481e" stroke="#dc481e" stroke-width="1.51"/><path d="M877,83L757,225L901,110Z" fill="#df541e" stroke="#df541e" stroke-width="1.51"/><path d="M859,-183L838,3L910,-69Z" fill="#dc4a1e" stroke="#dc4a1e" stroke-width="1.51"/><path d="M722,-37L838,3L859,-183Z" fill="#dc491e" stroke="#dc491e" stroke-width="1.51"/><path d="M695,135L757,225L877,83Z" fill="#df531e" stroke="#df531e" stroke-width="1.51"/><path d="M849,1158L707,1244L887,1207Z" fill="#eb8121" stroke="#eb8121" stroke-width="1.51"/><path d="M660,984L825,1021L869,880Z" fill="#e87620" stroke="#e87620" stroke-width="1.51"/><path d="M838,3L695,135L877,83Z" fill="#de501e" stroke="#de501e" stroke-width="1.51"/><path d="M737,617L650,768L836,645Z" fill="#e56920" stroke="#e56920" stroke-width="1.51"/><path d="M650,768L660,984L869,880Z" fill="#e77120" stroke="#e77120" stroke-width="1.51"/><path d="M825,1021L678,1138L849,1158Z" fill="#ea7b21" stroke="#ea7b21" stroke-width="1.51"/><path d="M629,-220L722,-37L859,-183Z" fill="#da421d" stroke="#da421d" stroke-width="1.51"/><path d="M722,-37L695,135L838,3Z" fill="#dc4c1e" stroke="#dc4c1e" stroke-width="1.51"/><path d="M678,1138L707,1244L849,1158Z" fill="#eb7e21" stroke="#eb7e21" stroke-width="1.51"/><path d="M753,608L737,617L836,645Z" fill="#e56820" stroke="#e56820" stroke-width="1.51"/><path d="M757,225L739,395L837,334Z" fill="#e15a1e" stroke="#e15a1e" stroke-width="1.51"/><path d="M660,984L678,1138L825,1021Z" fill="#e97820" stroke="#e97820" stroke-width="1.51"/><path d="M194,1239L-71,1301L443,1297Z" fill="#e77420" stroke="#e77420" stroke-width="1.51"/><path d="M629,-220L577,-141L722,-37Z" fill="#d9401d" stroke="#d9401d" stroke-width="1.51"/><path d="M739,395L520,455L742,593Z" fill="#e25e1e" stroke="#e25e1e" stroke-width="1.51"/><path d="M625,316L739,395L757,225Z" fill="#e0581e" stroke="#e0581e" stroke-width="1.51"/><path d="M695,135L625,316L757,225Z" fill="#df541e" stroke="#df541e" stroke-width="1.51"/><path d="M540,18L695,135L722,-37Z" fill="#dc491e" stroke="#dc491e" stroke-width="1.51"/><path d="M742,593L737,617L753,608Z" fill="#e46620" stroke="#e46620" stroke-width="1.51"/><path d="M515,682L650,768L737,617Z" fill="#e4671f" stroke="#e4671f" stroke-width="1.51"/><path d="M625,316L520,455L739,395Z" fill="#e0591e" stroke="#e0591e" stroke-width="1.51"/><path d="M481,592L737,617L742,593Z" fill="#e3631f" stroke="#e3631f" stroke-width="1.51"/><path d="M520,455L481,592L742,593Z" fill="#e25f1f" stroke="#e25f1f" stroke-width="1.51"/><path d="M650,768L556,794L660,984Z" fill="#e66d20" stroke="#e66d20" stroke-width="1.51"/><path d="M541,239L625,316L695,135Z" fill="#de521e" stroke="#de521e" stroke-width="1.51"/><path d="M550,170L541,239L695,135Z" fill="#dd4e1d" stroke="#dd4e1d" stroke-width="1.51"/><path d="M481,592L515,682L737,617Z" fill="#e3621f" stroke="#e3621f" stroke-width="1.51"/><path d="M577,-141L540,18L722,-37Z" fill="#da431d" stroke="#da431d" stroke-width="1.51"/><path d="M678,1138L552,1265L707,1244Z" fill="#ea7d21" stroke="#ea7d21" stroke-width="1.51"/><path d="M484,1012L475,1104L660,984Z" fill="#e87320" stroke="#e87320" stroke-width="1.51"/><path d="M660,984L475,1104L678,1138Z" fill="#e87620" stroke="#e87620" stroke-width="1.51"/><path d="M540,18L550,170L695,135Z" fill="#dd4a1e" stroke="#dd4a1e" stroke-width="1.51"/><path d="M556,794L484,1012L660,984Z" fill="#e66f20" stroke="#e66f20" stroke-width="1.51"/><path d="M475,1104L552,1265L678,1138Z" fill="#e97920" stroke="#e97920" stroke-width="1.51"/><path d="M515,682L556,794L650,768Z" fill="#e4671f" stroke="#e4671f" stroke-width="1.51"/><path d="M435,957L484,1012L556,794Z" fill="#e56d20" stroke="#e56d20" stroke-width="1.51"/><path d="M-136,-215L138,-180L284,-217Z" fill="#d4231c" stroke="#d4231c" stroke-width="1.51"/><path d="M541,239L417,379L625,316Z" fill="#df531e" stroke="#df531e" stroke-width="1.51"/><path d="M417,379L520,455L625,316Z" fill="#df561e" stroke="#df561e" stroke-width="1.51"/><path d="M451,-112L577,-141L629,-220Z" fill="#d83b1c" stroke="#d83b1c" stroke-width="1.51"/><path d="M284,-217L451,-112L629,-220Z" fill="#d7351c" stroke="#d7351c" stroke-width="1.51"/><path d="M540,18L434,46L550,170Z" fill="#db461e" stroke="#db461e" stroke-width="1.51"/><path d="M475,1104L412,1161L552,1265Z" fill="#e87720" stroke="#e87720" stroke-width="1.51"/><path d="M451,-112L540,18L577,-141Z" fill="#d93e1d" stroke="#d93e1d" stroke-width="1.51"/><path d="M390,268L417,379L541,239Z" fill="#dd4f1d" stroke="#dd4f1d" stroke-width="1.51"/><path d="M434,46L392,122L550,170Z" fill="#db471d" stroke="#db471d" stroke-width="1.51"/><path d="M412,1161L443,1297L552,1265Z" fill="#e97921" stroke="#e97921" stroke-width="1.51"/><path d="M515,682L331,783L556,794Z" fill="#e4651f" stroke="#e4651f" stroke-width="1.51"/><path d="M331,783L435,957L556,794Z" fill="#e4681f" stroke="#e4681f" stroke-width="1.51"/><path d="M395,664L331,783L515,682Z" fill="#e3611f" stroke="#e3611f" stroke-width="1.51"/><path d="M451,-112L434,46L540,18Z" fill="#da401d" stroke="#da401d" stroke-width="1.51"/><path d="M392,122L541,239L550,170Z" fill="#dc4b1d" stroke="#dc4b1d" stroke-width="1.51"/><path d="M392,122L390,268L541,239Z" fill="#dc4b1d" stroke="#dc4b1d" stroke-width="1.51"/><path d="M481,592L395,664L515,682Z" fill="#e2601f" stroke="#e2601f" stroke-width="1.51"/><path d="M364,604L481,592L520,455Z" fill="#e15b1f" stroke="#e15b1f" stroke-width="1.51"/><path d="M417,379L364,604L520,455Z" fill="#e0571e" stroke="#e0571e" stroke-width="1.51"/><path d="M327,-14L434,46L451,-112Z" fill="#d93d1d" stroke="#d93d1d" stroke-width="1.51"/><path d="M364,604L395,664L481,592Z" fill="#e15d1e" stroke="#e15d1e" stroke-width="1.51"/><path d="M326,1074L475,1104L484,1012Z" fill="#e77120" stroke="#e77120" stroke-width="1.51"/><path d="M435,957L326,1074L484,1012Z" fill="#e66e20" stroke="#e66e20" stroke-width="1.51"/><path d="M326,1074L412,1161L475,1104Z" fill="#e77220" stroke="#e77220" stroke-width="1.51"/><path d="M198,494L364,604L417,379Z" fill="#df551e" stroke="#df551e" stroke-width="1.51"/><path d="M331,783L320,974L435,957Z" fill="#e5681f" stroke="#e5681f" stroke-width="1.51"/><path d="M320,974L326,1074L435,957Z" fill="#e66c20" stroke="#e66c20" stroke-width="1.51"/><path d="M284,-217L327,-14L451,-112Z" fill="#d7361d" stroke="#d7361d" stroke-width="1.51"/><path d="M294,210L390,268L392,122Z" fill="#dc481d" stroke="#dc481d" stroke-width="1.51"/><path d="M412,1161L194,1239L443,1297Z" fill="#e97520" stroke="#e97520" stroke-width="1.51"/><path d="M327,-14L392,122L434,46Z" fill="#da411d" stroke="#da411d" stroke-width="1.51"/><path d="M189,1223L194,1239L412,1161Z" fill="#e77220" stroke="#e77220" stroke-width="1.51"/><path d="M240,335L198,494L417,379Z" fill="#dd4f1e" stroke="#dd4f1e" stroke-width="1.51"/><path d="M390,268L240,335L417,379Z" fill="#dd4d1e" stroke="#dd4d1e" stroke-width="1.51"/><path d="M326,1074L189,1223L412,1161Z" fill="#e77120" stroke="#e77120" stroke-width="1.51"/><path d="M203,883L320,974L331,783Z" fill="#e3651f" stroke="#e3651f" stroke-width="1.51"/><path d="M198,494L244,610L364,604Z" fill="#df571e" stroke="#df571e" stroke-width="1.51"/><path d="M327,-14L206,113L392,122Z" fill="#da401d" stroke="#da401d" stroke-width="1.51"/><path d="M364,604L244,610L395,664Z" fill="#e15b1f" stroke="#e15b1f" stroke-width="1.51"/><path d="M244,610L331,783L395,664Z" fill="#e15e1f" stroke="#e15e1f" stroke-width="1.51"/><path d="M294,210L240,335L390,268Z" fill="#dc491e" stroke="#dc491e" stroke-width="1.51"/><path d="M206,113L294,210L392,122Z" fill="#db431d" stroke="#db431d" stroke-width="1.51"/><path d="M116,1052L189,1223L326,1074Z" fill="#e56d20" stroke="#e56d20" stroke-width="1.51"/><path d="M320,974L159,976L326,1074Z" fill="#e56a20" stroke="#e56a20" stroke-width="1.51"/><path d="M284,-217L138,-180L327,-14Z" fill="#d6301d" stroke="#d6301d" stroke-width="1.51"/><path d="M138,-180L92,-34L327,-14Z" fill="#d6311c" stroke="#d6311c" stroke-width="1.51"/><path d="M244,610L150,642L331,783Z" fill="#e15b1f" stroke="#e15b1f" stroke-width="1.51"/><path d="M150,642L203,883L331,783Z" fill="#e15f1f" stroke="#e15f1f" stroke-width="1.51"/><path d="M150,642L168,878L203,883Z" fill="#e25e1f" stroke="#e25e1f" stroke-width="1.51"/><path d="M92,-34L206,113L327,-14Z" fill="#d8381c" stroke="#d8381c" stroke-width="1.51"/><path d="M159,976L116,1052L326,1074Z" fill="#e56920" stroke="#e56920" stroke-width="1.51"/><path d="M203,883L159,976L320,974Z" fill="#e4661f" stroke="#e4661f" stroke-width="1.51"/><path d="M148,178L240,335L294,210Z" fill="#db451e" stroke="#db451e" stroke-width="1.51"/><path d="M206,113L148,178L294,210Z" fill="#da411d" stroke="#da411d" stroke-width="1.51"/><path d="M150,642L23,704L168,878Z" fill="#e05a1e" stroke="#e05a1e" stroke-width="1.51"/><path d="M148,178L75,194L240,335Z" fill="#da431d" stroke="#da431d" stroke-width="1.51"/><path d="M75,194L33,232L240,335Z" fill="#da421d" stroke="#da421d" stroke-width="1.51"/><path d="M65,422L198,494L240,335Z" fill="#dd4c1d" stroke="#dd4c1d" stroke-width="1.51"/><path d="M198,494L150,642L244,610Z" fill="#df551e" stroke="#df551e" stroke-width="1.51"/><path d="M33,232L65,422L240,335Z" fill="#db461d" stroke="#db461d" stroke-width="1.51"/><path d="M-136,-215L48,-142L138,-180Z" fill="#d3211b" stroke="#d3211b" stroke-width="1.51"/><path d="M92,-34L-4,123L148,178Z" fill="#d8371c" stroke="#d8371c" stroke-width="1.51"/><path d="M62,526L150,642L198,494Z" fill="#de521e" stroke="#de521e" stroke-width="1.51"/><path d="M168,878L159,976L203,883Z" fill="#e3631f" stroke="#e3631f" stroke-width="1.51"/><path d="M92,-34L148,178L206,113Z" fill="#d83a1c" stroke="#d83a1c" stroke-width="1.51"/><path d="M65,422L62,526L198,494Z" fill="#dd4d1e" stroke="#dd4d1e" stroke-width="1.51"/><path d="M116,1052L-90,1130L189,1223Z" fill="#e56a1f" stroke="#e56a1f" stroke-width="1.51"/><path d="M189,1223L-71,1301L194,1239Z" fill="#e67020" stroke="#e67020" stroke-width="1.51"/><path d="M48,-142L92,-34L138,-180Z" fill="#d52a1c" stroke="#d52a1c" stroke-width="1.51"/><path d="M-4,123L75,194L148,178Z" fill="#d93b1d" stroke="#d93b1d" stroke-width="1.51"/><path d="M-90,1130L-71,1301L189,1223Z" fill="#e56c20" stroke="#e56c20" stroke-width="1.51"/><path d="M-18,40L-4,123L92,-34Z" fill="#d7321c" stroke="#d7321c" stroke-width="1.51"/><path d="M-90,917L159,976L168,878Z" fill="#e2611f" stroke="#e2611f" stroke-width="1.51"/><path d="M23,704L-90,917L168,878Z" fill="#e15c1f" stroke="#e15c1f" stroke-width="1.51"/><path d="M-80,755L-90,917L23,704Z" fill="#df581f" stroke="#df581f" stroke-width="1.51"/><path d="M-90,917L116,1052L159,976Z" fill="#e3631f" stroke="#e3631f" stroke-width="1.51"/><path d="M62,526L-20,606L150,642Z" fill="#de511e" stroke="#de511e" stroke-width="1.51"/><path d="M-20,606L23,704L150,642Z" fill="#de541e" stroke="#de541e" stroke-width="1.51"/><path d="M-90,917L-93,1026L116,1052Z" fill="#e3621f" stroke="#e3621f" stroke-width="1.51"/><path d="M-93,1026L-90,1130L116,1052Z" fill="#e3651f" stroke="#e3651f" stroke-width="1.51"/><path d="M-160,323L-88,456L33,232Z" fill="#da401d" stroke="#da401d" stroke-width="1.51"/><path d="M33,232L-88,456L65,422Z" fill="#da441d" stroke="#da441d" stroke-width="1.51"/><path d="M48,-142L-94,-22L92,-34Z" fill="#d52a1c" stroke="#d52a1c" stroke-width="1.51"/><path d="M-94,-22L-18,40L92,-34Z" fill="#d52d1c" stroke="#d52d1c" stroke-width="1.51"/><path d="M-88,456L62,526L65,422Z" fill="#dc4a1e" stroke="#dc4a1e" stroke-width="1.51"/><path d="M-4,123L33,232L75,194Z" fill="#d93b1d" stroke="#d93b1d" stroke-width="1.51"/><path d="M-88,456L-20,606L62,526Z" fill="#dc4c1e" stroke="#dc4c1e" stroke-width="1.51"/><path d="M-136,-215L-94,-22L48,-142Z" fill="#d3211c" stroke="#d3211c" stroke-width="1.51"/><path d="M-88,456L-121,570L-20,606Z" fill="#dc4b1e" stroke="#dc4b1e" stroke-width="1.51"/><path d="M-4,123L-160,323L33,232Z" fill="#d83b1d" stroke="#d83b1d" stroke-width="1.51"/><path d="M-20,606L-116,681L23,704Z" fill="#de521e" stroke="#de521e" stroke-width="1.51"/><path d="M-116,681L-80,755L23,704Z" fill="#df541e" stroke="#df541e" stroke-width="1.51"/><path d="M-18,40L-229,138L-4,123Z" fill="#d6321d" stroke="#d6321d" stroke-width="1.51"/><path d="M-229,138L-160,323L-4,123Z" fill="#d7361c" stroke="#d7361c" stroke-width="1.51"/><path d="M-121,570L-116,681L-20,606Z" fill="#dd4e1e" stroke="#dd4e1e" stroke-width="1.51"/><path d="M-94,-22L-229,138L-18,40Z" fill="#d52d1c" stroke="#d52d1c" stroke-width="1.51"/><path d="M-93,1026L-131,1072L-90,1130Z" fill="#e2631f" stroke="#e2631f" stroke-width="1.51"/><path d="M-193,466L-121,570L-88,456Z" fill="#db471d" stroke="#db471d" stroke-width="1.51"/><path d="M-160,323L-193,466L-88,456Z" fill="#da411d" stroke="#da411d" stroke-width="1.51"/><path d="M-176,772L-90,917L-80,755Z" fill="#df571e" stroke="#df571e" stroke-width="1.51"/><path d="M-90,1130L-210,1197L-71,1301Z" fill="#e4681f" stroke="#e4681f" stroke-width="1.51"/><path d="M-131,1072L-93,1026L-90,917Z" fill="#e2601f" stroke="#e2601f" stroke-width="1.51"/><path d="M-116,681L-176,772L-80,755Z" fill="#de521e" stroke="#de521e" stroke-width="1.51"/><path d="M-136,-215L-229,138L-94,-22Z" fill="#d4241c" stroke="#d4241c" stroke-width="1.51"/><path d="M-176,772L-131,1072L-90,917Z" fill="#e15b1e" stroke="#e15b1e" stroke-width="1.51"/><path d="M-131,1072L-210,1197L-90,1130Z" fill="#e4641f" stroke="#e4641f" stroke-width="1.51"/><path d="M-176,772L-210,1197L-131,1072Z" fill="#e15e1f" stroke="#e15e1f" stroke-width="1.51"/><path d="M-193,466L-176,772L-121,570Z" fill="#dc4b1e" stroke="#dc4b1e" stroke-width="1.51"/><path d="M-121,570L-176,772L-116,681Z" fill="#de4f1e" stroke="#de4f1e" stroke-width="1.51"/><path d="M-229,138L-193,466L-160,323Z" fill="#d83a1d" stroke="#d83a1d" stroke-width="1.51"/><path d="M-193,466L-210,1197L-176,772Z" fill="#df541e" stroke="#df541e" stroke-width="1.51"/><path d="M-229,138L-210,1197L-193,466Z" fill="#dc491e" stroke="#dc491e" stroke-width="1.51"/></svg>