<svg xmlns="http://www.w3.org/2000/svg" width="1920" height="1080"><path d="M-136,-215L284,-217L629,-220Z" fill="#4d880a" stroke="#4d880a" stroke-width="1.51"/><path d="M629,-220L859,-183L1099,-178Z" fill="#5ea112" stroke="#5ea112" stroke-width="1.51"/><path d="M707,1244L443,1297L1225,1294Z" fill="#97d755" stroke="#97d755" stroke-width="1.51"/><path d="M1099,-178L1305,-145L1589,-145Z" fill="#6cab2a" stroke="#6cab2a" stroke-width="1.51"/><path d="M1401,1254L1225,1294L1765,1250Z" fill="#a7e26b" stroke="#a7e26b" stroke-width="1.51"/><path d="M1099,-178L1589,-145L2093,-171Z" fill="#71ad35" stroke="#71ad35" stroke-width="1.51"/><path d="M629,-220L1099,-178L2093,-171Z" fill="#69a826" stroke="#69a826" stroke-width="1.51"/><path d="M1763,-116L1967,-91L2093,-171Z" fill="#7bb244" stroke="#7bb244" stroke-width="1.51"/><path d="M1589,-145L1763,-116L2093,-171Z" fill="#77b03f" stroke="#77b03f" stroke-width="1.51"/><path d="M1765,1250L1225,1294L2104,1289Z" fill="#ade574" stroke="#ade574" stroke-width="1.51"/><path d="M1917,1223L1765,1250L2104,1289Z" fill="#b1e67b" stroke="#b1e67b" stroke-width="1.51"/><path d="M2100,377L1998,489L2112,534Z" fill="#97d955" stroke="#97d955" stroke-width="1.51"/><path d="M2093,-171L1967,-91L2123,41Z" fill="#80b64a" stroke="#80b64a" stroke-width="1.51"/><path d="M2100,377L2112,534L2133,172Z" fill="#94d254" stroke="#94d254" stroke-width="1.51"/><path d="M2104,273L2100,377L2133,172Z" fill="#90cc53" stroke="#90cc53" stroke-width="1.51"/><path d="M2123,41L1962,65L2133,172Z" fill="#88c14d" stroke="#88c14d" stroke-width="1.51"/><path d="M2052,1097L2104,1289L2146,677Z" fill="#ade574" stroke="#ade574" stroke-width="1.51"/><path d="M2053,896L2052,1097L2146,677Z" fill="#a8e36c" stroke="#a8e36c" stroke-width="1.51"/><path d="M2112,534L1980,732L2146,677Z" fill="#9fdf5e" stroke="#9fdf5e" stroke-width="1.51"/><path d="M1980,732L2052,751L2146,677Z" fill="#a1e061" stroke="#a1e061" stroke-width="1.51"/><path d="M2052,751L2053,896L2146,677Z" fill="#a4e165" stroke="#a4e165" stroke-width="1.51"/><path d="M2133,172L2112,534L2146,677Z" fill="#98d958" stroke="#98d958" stroke-width="1.51"/><path d="M1978,1079L2052,1097L2053,896Z" fill="#ace472" stroke="#ace472" stroke-width="1.51"/><path d="M2052,1097L1917,1223L2104,1289Z" fill="#b2e67c" stroke="#b2e67c" stroke-width="1.51"/><path d="M1998,489L1980,732L2112,534Z" fill="#9cde58" stroke="#9cde58" stroke-width="1.51"/><path d="M1967,-91L1962,65L2123,41Z" fill="#82bb49" stroke="#82bb49" stroke-width="1.51"/><path d="M1879,231L2104,273L2133,172Z" fill="#8cc94f" stroke="#8cc94f" stroke-width="1.51"/><path d="M1962,65L1879,231L2133,172Z" fill="#88c44c" stroke="#88c44c" stroke-width="1.51"/><path d="M1934,957L1978,1079L2053,896Z" fill="#a9e36d" stroke="#a9e36d" stroke-width="1.51"/><path d="M1882,351L2100,377L2104,273Z" fill="#91d051" stroke="#91d051" stroke-width="1.51"/><path d="M1879,231L1882,351L2104,273Z" fill="#8dcc4d" stroke="#8dcc4d" stroke-width="1.51"/><path d="M1882,351L1998,489L2100,377Z" fill="#93d451" stroke="#93d451" stroke-width="1.51"/><path d="M1917,-18L1962,65L1967,-91Z" fill="#80b946" stroke="#80b946" stroke-width="1.51"/><path d="M1818,629L1980,732L1998,489Z" fill="#9add56" stroke="#9add56" stroke-width="1.51"/><path d="M1978,1079L1917,1223L2052,1097Z" fill="#afe576" stroke="#afe576" stroke-width="1.51"/><path d="M1980,732L1924,848L2052,751Z" fill="#a1e062" stroke="#a1e062" stroke-width="1.51"/><path d="M2052,751L1924,848L2053,896Z" fill="#a4e166" stroke="#a4e166" stroke-width="1.51"/><path d="M1924,848L1934,957L2053,896Z" fill="#a6e268" stroke="#a6e268" stroke-width="1.51"/><path d="M1856,1146L1917,1223L1978,1079Z" fill="#ade474" stroke="#ade474" stroke-width="1.51"/><path d="M1882,351L1764,425L1998,489Z" fill="#91d44d" stroke="#91d44d" stroke-width="1.51"/><path d="M1764,425L1818,629L1998,489Z" fill="#94da4e" stroke="#94da4e" stroke-width="1.51"/><path d="M1934,957L1868,975L1978,1079Z" fill="#a8e36d" stroke="#a8e36d" stroke-width="1.51"/><path d="M1818,629L1924,848L1980,732Z" fill="#9edf5c" stroke="#9edf5c" stroke-width="1.51"/><path d="M1785,64L1879,231L1962,65Z" fill="#84c046" stroke="#84c046" stroke-width="1.51"/><path d="M1868,975L1856,1146L1978,1079Z" fill="#aae370" stroke="#aae370" stroke-width="1.51"/><path d="M1817,21L1785,64L1962,65Z" fill="#80bc44" stroke="#80bc44" stroke-width="1.51"/><path d="M1763,-116L1917,-18L1967,-91Z" fill="#7cb443" stroke="#7cb443" stroke-width="1.51"/><path d="M1818,629L1779,867L1924,848Z" fill="#9edf5d" stroke="#9edf5d" stroke-width="1.51"/><path d="M1917,-18L1817,21L1962,65Z" fill="#80bb45" stroke="#80bb45" stroke-width="1.51"/><path d="M1764,425L1731,579L1818,629Z" fill="#93db4b" stroke="#93db4b" stroke-width="1.51"/><path d="M1779,867L1868,975L1924,848Z" fill="#a3e164" stroke="#a3e164" stroke-width="1.51"/><path d="M1924,848L1868,975L1934,957Z" fill="#a5e268" stroke="#a5e268" stroke-width="1.51"/><path d="M1613,1201L1401,1254L1765,1250Z" fill="#a9e36e" stroke="#a9e36e" stroke-width="1.51"/><path d="M1702,697L1779,867L1818,629Z" fill="#9bde56" stroke="#9bde56" stroke-width="1.51"/><path d="M1763,-116L1817,21L1917,-18Z" fill="#7db741" stroke="#7db741" stroke-width="1.51"/><path d="M1856,1146L1765,1250L1917,1223Z" fill="#aee575" stroke="#aee575" stroke-width="1.51"/><path d="M1305,-145L1420,-123L1589,-145Z" fill="#6fad2f" stroke="#6fad2f" stroke-width="1.51"/><path d="M1702,697L1693,819L1779,867Z" fill="#9cde59" stroke="#9cde59" stroke-width="1.51"/><path d="M1715,1071L1856,1146L1868,975Z" fill="#a8e36c" stroke="#a8e36c" stroke-width="1.51"/><path d="M1709,989L1715,1071L1868,975Z" fill="#a5e267" stroke="#a5e267" stroke-width="1.51"/><path d="M1785,64L1702,202L1879,231Z" fill="#84c344" stroke="#84c344" stroke-width="1.51"/><path d="M1702,202L1732,267L1879,231Z" fill="#86c744" stroke="#86c744" stroke-width="1.51"/><path d="M1879,231L1732,267L1882,351Z" fill="#8acb48" stroke="#8acb48" stroke-width="1.51"/><path d="M1732,267L1764,425L1882,351Z" fill="#8cce48" stroke="#8cce48" stroke-width="1.51"/><path d="M1490,1211L1401,1254L1613,1201Z" fill="#a6e269" stroke="#a6e269" stroke-width="1.51"/><path d="M1779,867L1709,989L1868,975Z" fill="#a3e164" stroke="#a3e164" stroke-width="1.51"/><path d="M1715,1071L1765,1250L1856,1146Z" fill="#aae470" stroke="#aae470" stroke-width="1.51"/><path d="M1704,441L1731,579L1764,425Z" fill="#90d748" stroke="#90d748" stroke-width="1.51"/><path d="M1661,111L1702,202L1785,64Z" fill="#80c040" stroke="#80c040" stroke-width="1.51"/><path d="M1705,-84L1785,64L1817,21Z" fill="#7db83f" stroke="#7db83f" stroke-width="1.51"/><path d="M1763,-116L1705,-84L1817,21Z" fill="#7ab53e" stroke="#7ab53e" stroke-width="1.51"/><path d="M1731,579L1721,603L1818,629Z" fill="#95dc4e" stroke="#95dc4e" stroke-width="1.51"/><path d="M1721,603L1702,697L1818,629Z" fill="#97dc50" stroke="#97dc50" stroke-width="1.51"/><path d="M1589,-145L1594,-135L1705,-84Z" fill="#74af38" stroke="#74af38" stroke-width="1.51"/><path d="M1589,-145L1705,-84L1763,-116Z" fill="#76b03a" stroke="#76b03a" stroke-width="1.51"/><path d="M1732,267L1704,441L1764,425Z" fill="#8ccf46" stroke="#8ccf46" stroke-width="1.51"/><path d="M1715,1071L1613,1201L1765,1250Z" fill="#a9e36e" stroke="#a9e36e" stroke-width="1.51"/><path d="M1693,819L1709,989L1779,867Z" fill="#a0df5f" stroke="#a0df5f" stroke-width="1.51"/><path d="M1705,-84L1661,111L1785,64Z" fill="#7cba3e" stroke="#7cba3e" stroke-width="1.51"/><path d="M1573,38L1661,111L1705,-84Z" fill="#7ab93b" stroke="#7ab93b" stroke-width="1.51"/><path d="M1693,819L1558,917L1709,989Z" fill="#9edf5d" stroke="#9edf5d" stroke-width="1.51"/><path d="M1571,1130L1613,1201L1715,1071Z" fill="#a6e269" stroke="#a6e269" stroke-width="1.51"/><path d="M1568,549L1721,603L1731,579Z" fill="#92da49" stroke="#92da49" stroke-width="1.51"/><path d="M1704,441L1568,549L1731,579Z" fill="#90d946" stroke="#90d946" stroke-width="1.51"/><path d="M1702,202L1470,252L1732,267Z" fill="#83c63f" stroke="#83c63f" stroke-width="1.51"/><path d="M1460,374L1704,441L1732,267Z" fill="#88ce41" stroke="#88ce41" stroke-width="1.51"/><path d="M1470,252L1460,374L1732,267Z" fill="#84c93c" stroke="#84c93c" stroke-width="1.51"/><path d="M1568,549L1702,697L1721,603Z" fill="#93db4b" stroke="#93db4b" stroke-width="1.51"/><path d="M1518,744L1693,819L1702,697Z" fill="#98dd52" stroke="#98dd52" stroke-width="1.51"/><path d="M1709,989L1571,1130L1715,1071Z" fill="#a5e166" stroke="#a5e166" stroke-width="1.51"/><path d="M1505,161L1470,252L1702,202Z" fill="#80c33b" stroke="#80c33b" stroke-width="1.51"/><path d="M1594,-135L1573,38L1705,-84Z" fill="#77b338" stroke="#77b338" stroke-width="1.51"/><path d="M1558,917L1571,1130L1709,989Z" fill="#a1e061" stroke="#a1e061" stroke-width="1.51"/><path d="M1568,549L1518,744L1702,697Z" fill="#94db4b" stroke="#94db4b" stroke-width="1.51"/><path d="M1460,374L1568,549L1704,441Z" fill="#8bd341" stroke="#8bd341" stroke-width="1.51"/><path d="M1661,111L1505,161L1702,202Z" fill="#80c13d" stroke="#80c13d" stroke-width="1.51"/><path d="M1518,744L1558,917L1693,819Z" fill="#9add56" stroke="#9add56" stroke-width="1.51"/><path d="M1573,38L1505,161L1661,111Z" fill="#7cbd3a" stroke="#7cbd3a" stroke-width="1.51"/><path d="M552,1265L443,1297L707,1244Z" fill="#90cd52" stroke="#90cd52" stroke-width="1.51"/><path d="M1518,744L1464,874L1558,917Z" fill="#99dd54" stroke="#99dd54" stroke-width="1.51"/><path d="M1460,374L1427,467L1568,549Z" fill="#89d33c" stroke="#89d33c" stroke-width="1.51"/><path d="M1444,634L1518,744L1568,549Z" fill="#91da46" stroke="#91da46" stroke-width="1.51"/><path d="M1558,917L1385,1124L1571,1130Z" fill="#a0e060" stroke="#a0e060" stroke-width="1.51"/><path d="M1420,-123L1573,38L1594,-135Z" fill="#73b234" stroke="#73b234" stroke-width="1.51"/><path d="M1571,1130L1490,1211L1613,1201Z" fill="#a6e269" stroke="#a6e269" stroke-width="1.51"/><path d="M1355,928L1385,1124L1558,917Z" fill="#9cde59" stroke="#9cde59" stroke-width="1.51"/><path d="M1420,-123L1388,24L1573,38Z" fill="#74b432" stroke="#74b432" stroke-width="1.51"/><path d="M1589,-145L1420,-123L1594,-135Z" fill="#71ae33" stroke="#71ae33" stroke-width="1.51"/><path d="M1464,874L1355,928L1558,917Z" fill="#9add55" stroke="#9add55" stroke-width="1.51"/><path d="M1427,467L1419,527L1568,549Z" fill="#8ad73d" stroke="#8ad73d" stroke-width="1.51"/><path d="M1388,24L1505,161L1573,38Z" fill="#78ba35" stroke="#78ba35" stroke-width="1.51"/><path d="M1385,1124L1490,1211L1571,1130Z" fill="#a3e165" stroke="#a3e165" stroke-width="1.51"/><path d="M1419,527L1444,634L1568,549Z" fill="#8dd940" stroke="#8dd940" stroke-width="1.51"/><path d="M1024,1223L707,1244L1225,1294Z" fill="#9bdd58" stroke="#9bdd58" stroke-width="1.51"/><path d="M1422,185L1470,252L1505,161Z" fill="#7dc236" stroke="#7dc236" stroke-width="1.51"/><path d="M1388,24L1422,185L1505,161Z" fill="#79bd34" stroke="#79bd34" stroke-width="1.51"/><path d="M1337,879L1464,874L1518,744Z" fill="#97db50" stroke="#97db50" stroke-width="1.51"/><path d="M1444,634L1337,879L1518,744Z" fill="#93db4a" stroke="#93db4a" stroke-width="1.51"/><path d="M1262,846L1337,879L1444,634Z" fill="#92da49" stroke="#92da49" stroke-width="1.51"/><path d="M1346,302L1460,374L1470,252Z" fill="#81c937" stroke="#81c937" stroke-width="1.51"/><path d="M1385,1124L1401,1254L1490,1211Z" fill="#a3e165" stroke="#a3e165" stroke-width="1.51"/><path d="M1422,185L1346,302L1470,252Z" fill="#7ec435" stroke="#7ec435" stroke-width="1.51"/><path d="M1205,628L1262,846L1444,634Z" fill="#8ed941" stroke="#8ed941" stroke-width="1.51"/><path d="M1337,879L1355,928L1464,874Z" fill="#97dc51" stroke="#97dc51" stroke-width="1.51"/><path d="M1388,24L1289,115L1422,185Z" fill="#77bc30" stroke="#77bc30" stroke-width="1.51"/><path d="M1346,302L1427,467L1460,374Z" fill="#84cd37" stroke="#84cd37" stroke-width="1.51"/><path d="M1355,928L1303,934L1385,1124Z" fill="#9add56" stroke="#9add56" stroke-width="1.51"/><path d="M1273,-41L1388,24L1420,-123Z" fill="#70b12d" stroke="#70b12d" stroke-width="1.51"/><path d="M1419,527L1205,628L1444,634Z" fill="#8bd83c" stroke="#8bd83c" stroke-width="1.51"/><path d="M1193,567L1205,628L1419,527Z" fill="#88d737" stroke="#88d737" stroke-width="1.51"/><path d="M1305,-145L1273,-41L1420,-123Z" fill="#6eae2b" stroke="#6eae2b" stroke-width="1.51"/><path d="M1195,430L1419,527L1427,467Z" fill="#86d236" stroke="#86d236" stroke-width="1.51"/><path d="M1346,302L1195,430L1427,467Z" fill="#82cd34" stroke="#82cd34" stroke-width="1.51"/><path d="M1289,115L1346,302L1422,185Z" fill="#7ac131" stroke="#7ac131" stroke-width="1.51"/><path d="M1195,430L1193,567L1419,527Z" fill="#85d433" stroke="#85d433" stroke-width="1.51"/><path d="M887,1207L707,1244L1024,1223Z" fill="#97da54" stroke="#97da54" stroke-width="1.51"/><path d="M1303,934L1177,1091L1385,1124Z" fill="#9bde57" stroke="#9bde57" stroke-width="1.51"/><path d="M1385,1124L1225,1294L1401,1254Z" fill="#a2e163" stroke="#a2e163" stroke-width="1.51"/><path d="M1177,1091L1225,1294L1385,1124Z" fill="#9edf5d" stroke="#9edf5d" stroke-width="1.51"/><path d="M1273,-41L1289,115L1388,24Z" fill="#73b62c" stroke="#73b62c" stroke-width="1.51"/><path d="M1289,115L1194,270L1346,302Z" fill="#7ac22e" stroke="#7ac22e" stroke-width="1.51"/><path d="M1177,1091L1142,1226L1225,1294Z" fill="#9edf5c" stroke="#9edf5c" stroke-width="1.51"/><path d="M1194,270L1195,430L1346,302Z" fill="#7dc82e" stroke="#7dc82e" stroke-width="1.51"/><path d="M1337,879L1303,934L1355,928Z" fill="#97dc51" stroke="#97dc51" stroke-width="1.51"/><path d="M1147,1037L1177,1091L1303,934Z" fill="#98dd52" stroke="#98dd52" stroke-width="1.51"/><path d="M859,-183L919,-166L1099,-178Z" fill="#61a614" stroke="#61a614" stroke-width="1.51"/><path d="M1262,846L1303,934L1337,879Z" fill="#95db4d" stroke="#95db4d" stroke-width="1.51"/><path d="M1205,628L1097,711L1262,846Z" fill="#8cd83e" stroke="#8cd83e" stroke-width="1.51"/><path d="M1109,19L1119,92L1273,-41Z" fill="#6eb425" stroke="#6eb425" stroke-width="1.51"/><path d="M1273,-41L1119,92L1289,115Z" fill="#71b728" stroke="#71b728" stroke-width="1.51"/><path d="M1160,871L1147,1037L1303,934Z" fill="#95dc4d" stroke="#95dc4d" stroke-width="1.51"/><path d="M1099,-178L1273,-41L1305,-145Z" fill="#6aac25" stroke="#6aac25" stroke-width="1.51"/><path d="M1262,846L1160,871L1303,934Z" fill="#93db4b" stroke="#93db4b" stroke-width="1.51"/><path d="M1097,711L1160,871L1262,846Z" fill="#8fd942" stroke="#8fd942" stroke-width="1.51"/><path d="M1119,92L1194,270L1289,115Z" fill="#75bd29" stroke="#75bd29" stroke-width="1.51"/><path d="M1096,961L1147,1037L1160,871Z" fill="#93db4b" stroke="#93db4b" stroke-width="1.51"/><path d="M1099,-178L1109,19L1273,-41Z" fill="#6aaf22" stroke="#6aaf22" stroke-width="1.51"/><path d="M1166,434L1079,497L1193,567Z" fill="#82d22c" stroke="#82d22c" stroke-width="1.51"/><path d="M1119,92L1144,277L1194,270Z" fill="#75c027" stroke="#75c027" stroke-width="1.51"/><path d="M1166,434L1193,567L1195,430Z" fill="#82d12e" stroke="#82d12e" stroke-width="1.51"/><path d="M1194,270L1144,277L1195,430Z" fill="#7bc72b" stroke="#7bc72b" stroke-width="1.51"/><path d="M1144,277L1166,434L1195,430Z" fill="#7dcb2b" stroke="#7dcb2b" stroke-width="1.51"/><path d="M1142,1226L1024,1223L1225,1294Z" fill="#9edf5d" stroke="#9edf5d" stroke-width="1.51"/><path d="M1193,567L1097,711L1205,628Z" fill="#88d736" stroke="#88d736" stroke-width="1.51"/><path d="M1144,277L1009,317L1166,434Z" fill="#7ac827" stroke="#7ac827" stroke-width="1.51"/><path d="M1022,551L1097,711L1193,567Z" fill="#85d630" stroke="#85d630" stroke-width="1.51"/><path d="M1079,497L1022,551L1193,567Z" fill="#82d52a" stroke="#82d52a" stroke-width="1.51"/><path d="M1024,1223L1142,1226L1177,1091Z" fill="#9bde58" stroke="#9bde58" stroke-width="1.51"/><path d="M1147,1037L1001,1055L1177,1091Z" fill="#97dc51" stroke="#97dc51" stroke-width="1.51"/><path d="M1001,1055L1024,1223L1177,1091Z" fill="#98dd53" stroke="#98dd53" stroke-width="1.51"/><path d="M1119,92L1009,317L1144,277Z" fill="#75c024" stroke="#75c024" stroke-width="1.51"/><path d="M1097,711L973,859L1160,871Z" fill="#8cd83e" stroke="#8cd83e" stroke-width="1.51"/><path d="M1009,317L1079,497L1166,434Z" fill="#7ccc27" stroke="#7ccc27" stroke-width="1.51"/><path d="M1016,933L1096,961L1160,871Z" fill="#91da47" stroke="#91da47" stroke-width="1.51"/><path d="M973,859L1016,933L1160,871Z" fill="#8fd942" stroke="#8fd942" stroke-width="1.51"/><path d="M1022,551L980,610L1097,711Z" fill="#84d52e" stroke="#84d52e" stroke-width="1.51"/><path d="M1099,-178L910,-69L1109,19Z" fill="#67ad1b" stroke="#67ad1b" stroke-width="1.51"/><path d="M901,110L1009,317L1119,92Z" fill="#70bc1e" stroke="#70bc1e" stroke-width="1.51"/><path d="M1096,961L1001,1055L1147,1037Z" fill="#94db4d" stroke="#94db4d" stroke-width="1.51"/><path d="M1009,317L946,418L1079,497Z" fill="#7acb22" stroke="#7acb22" stroke-width="1.51"/><path d="M919,-166L910,-69L1099,-178Z" fill="#63a916" stroke="#63a916" stroke-width="1.51"/><path d="M1109,19L901,110L1119,92Z" fill="#6db71e" stroke="#6db71e" stroke-width="1.51"/><path d="M910,-69L901,110L1109,19Z" fill="#69b219" stroke="#69b219" stroke-width="1.51"/><path d="M1016,933L1001,1055L1096,961Z" fill="#92da49" stroke="#92da49" stroke-width="1.51"/><path d="M980,610L973,859L1097,711Z" fill="#87d635" stroke="#87d635" stroke-width="1.51"/><path d="M877,83L901,110L910,-69Z" fill="#68b116" stroke="#68b116" stroke-width="1.51"/><path d="M946,418L1022,551L1079,497Z" fill="#7dd024" stroke="#7dd024" stroke-width="1.51"/><path d="M836,645L869,880L973,859Z" fill="#87d437" stroke="#87d437" stroke-width="1.51"/><path d="M836,645L973,859L980,610Z" fill="#84d430" stroke="#84d430" stroke-width="1.51"/><path d="M849,1158L887,1207L1001,1055Z" fill="#95da4f" stroke="#95da4f" stroke-width="1.51"/><path d="M901,110L837,334L1009,317Z" fill="#71bf1b" stroke="#71bf1b" stroke-width="1.51"/><path d="M825,1021L1001,1055L1016,933Z" fill="#90d946" stroke="#90d946" stroke-width="1.51"/><path d="M946,418L980,610L1022,551Z" fill="#7ed222" stroke="#7ed222" stroke-width="1.51"/><path d="M1001,1055L887,1207L1024,1223Z" fill="#98dc51" stroke="#98dc51" stroke-width="1.51"/><path d="M869,880L825,1021L1016,933Z" fill="#8dd742" stroke="#8dd742" stroke-width="1.51"/><path d="M973,859L869,880L1016,933Z" fill="#8cd83f" stroke="#8cd83f" stroke-width="1.51"/><path d="M946,418L836,645L980,610Z" fill="#7ed223" stroke="#7ed223" stroke-width="1.51"/><path d="M837,334L946,418L1009,317Z" fill="#75c61d" stroke="#75c61d" stroke-width="1.51"/><path d="M838,3L877,83L910,-69Z" fill="#66ae16" stroke="#66ae16" stroke-width="1.51"/><path d="M825,1021L849,1158L1001,1055Z" fill="#92d84a" stroke="#92d84a" stroke-width="1.51"/><path d="M757,225L837,334L901,110Z" fill="#6db919" stroke="#6db919" stroke-width="1.51"/><path d="M742,593L836,645L946,418Z" fill="#7bce21" stroke="#7bce21" stroke-width="1.51"/><path d="M739,395L742,593L946,418Z" fill="#77c81d" stroke="#77c81d" stroke-width="1.51"/><path d="M837,334L739,395L946,418Z" fill="#74c41c" stroke="#74c41c" stroke-width="1.51"/><path d="M742,593L753,608L836,645Z" fill="#7ccc26" stroke="#7ccc26" stroke-width="1.51"/><path d="M836,645L650,768L869,880Z" fill="#83cf34" stroke="#83cf34" stroke-width="1.51"/><path d="M859,-183L910,-69L919,-166Z" fill="#61a613" stroke="#61a613" stroke-width="1.51"/><path d="M877,83L757,225L901,110Z" fill="#6ab518" stroke="#6ab518" stroke-width="1.51"/><path d="M859,-183L838,3L910,-69Z" fill="#62a815" stroke="#62a815" stroke-width="1.51"/><path d="M722,-37L838,3L859,-183Z" fill="#61a614" stroke="#61a614" stroke-width="1.51"/><path d="M695,135L757,225L877,83Z" fill="#69b318" stroke="#69b318" stroke-width="1.51"/><path d="M849,1158L707,1244L887,1207Z" fill="#95d751" stroke="#95d751" stroke-width="1.51"/><path d="M660,984L825,1021L869,880Z" fill="#8ad241" stroke="#8ad241" stroke-width="1.51"/><path d="M838,3L695,135L877,83Z" fill="#67af16" stroke="#67af16" stroke-width="1.51"/><path d="M737,617L650,768L836,645Z" fill="#7ecc2c" stroke="#7ecc2c" stroke-width="1.51"/><path d="M650,768L660,984L869,880Z" fill="#86ce3b" stroke="#86ce3b" stroke-width="1.51"/><path d="M825,1021L678,1138L849,1158Z" fill="#90d34b" stroke="#90d34b" stroke-width="1.51"/><path d="M629,-220L722,-37L859,-183Z" fill="#5c9f12" stroke="#5c9f12" stroke-width="1.51"/><path d="M722,-37L695,135L838,3Z" fill="#64ab15" stroke="#64ab15" stroke-width="1.51"/><path d="M678,1138L707,1244L849,1158Z" fill="#91d34f" stroke="#91d34f" stroke-width="1.51"/><path d="M753,608L737,617L836,645Z" fill="#7ccc28" stroke="#7ccc28" stroke-width="1.51"/><path d="M757,225L739,395L837,334Z" fill="#70bd1b" stroke="#70bd1b" stroke-width="1.51"/><path d="M660,984L678,1138L825,1021Z" fill="#8cd046" stroke="#8cd046" stroke-width="1.51"/><path d="M194,1239L-71,1301L443,1297Z" fill="#86be4d" stroke="#86be4d" stroke-width="1.51"/><path d="M629,-220L577,-141L722,-37Z" fill="#5a9c10" stroke="#5a9c10" stroke-width="1.51"/><path d="M739,395L520,455L742,593Z" fill="#73c31c" stroke="#73c31c" stroke-width="1.51"/><path d="M625,316L739,395L757,225Z" fill="#6dba1a" stroke="#6dba1a" stroke-width="1.51"/><path d="M695,135L625,316L757,225Z" fill="#6ab418" stroke="#6ab418" stroke-width="1.51"/><path d="M540,18L695,135L722,-37Z" fill="#62a714" stroke="#62a714" stroke-width="1.51"/><path d="M742,593L737,617L753,608Z" fill="#7bcb25" stroke="#7bcb25" stroke-width="1.51"/><path d="M515,682L650,768L737,617Z" fill="#7bc72b" stroke="#7bc72b" stroke-width="1.51"/><path d="M625,316L520,455L739,395Z" fill="#6ebc1a" stroke="#6ebc1a" stroke-width="1.51"/><path d="M481,592L737,617L742,593Z" fill="#78c724" stroke="#78c724" stroke-width="1.51"/><path d="M520,455L481,592L742,593Z" fill="#74c31d" stroke="#74c31d" stroke-width="1.51"/><path d="M650,768L556,794L660,984Z" fill="#82c938" stroke="#82c938" stroke-width="1.51"/><path d="M541,239L625,316L695,135Z" fill="#68b117" stroke="#68b117" stroke-width="1.51"/><path d="M550,170L541,239L695,135Z" fill="#66ad16" stroke="#66ad16" stroke-width="1.51"/><path d="M481,592L515,682L737,617Z" fill="#78c526" stroke="#78c526" stroke-width="1.51"/><path d="M577,-141L540,18L722,-37Z" fill="#5da012" stroke="#5da012" stroke-width="1.51"/><path d="M678,1138L552,1265L707,1244Z" fill="#90cf50" stroke="#90cf50" stroke-width="1.51"/><path d="M484,1012L475,1104L660,984Z" fill="#87c943" stroke="#87c943" stroke-width="1.51"/><path d="M660,984L475,1104L678,1138Z" fill="#8acc47" stroke="#8acc47" stroke-width="1.51"/><path d="M540,18L550,170L695,135Z" fill="#63a914" stroke="#63a914" stroke-width="1.51"/><path d="M556,794L484,1012L660,984Z" fill="#83c83d" stroke="#83c83d" stroke-width="1.51"/><path d="M475,1104L552,1265L678,1138Z" fill="#8ccc4c" stroke="#8ccc4c" stroke-width="1.51"/><path d="M515,682L556,794L650,768Z" fill="#7cc62f" stroke="#7cc62f" stroke-width="1.51"/><path d="M435,957L484,1012L556,794Z" fill="#81c53b" stroke="#81c53b" stroke-width="1.51"/><path d="M-136,-215L138,-180L284,-217Z" fill="#4a8309" stroke="#4a8309" stroke-width="1.51"/><path d="M541,239L417,379L625,316Z" fill="#69b317" stroke="#69b317" stroke-width="1.51"/><path d="M417,379L520,455L625,316Z" fill="#6cb718" stroke="#6cb718" stroke-width="1.51"/><path d="M451,-112L577,-141L629,-220Z" fill="#57970f" stroke="#57970f" stroke-width="1.51"/><path d="M284,-217L451,-112L629,-220Z" fill="#54920d" stroke="#54920d" stroke-width="1.51"/><path d="M540,18L434,46L550,170Z" fill="#5fa313" stroke="#5fa313" stroke-width="1.51"/><path d="M475,1104L412,1161L552,1265Z" fill="#8bc84b" stroke="#8bc84b" stroke-width="1.51"/><path d="M451,-112L540,18L577,-141Z" fill="#599b10" stroke="#599b10" stroke-width="1.51"/><path d="M390,268L417,379L541,239Z" fill="#66ae16" stroke="#66ae16" stroke-width="1.51"/><path d="M434,46L392,122L550,170Z" fill="#5fa413" stroke="#5fa413" stroke-width="1.51"/><path d="M412,1161L443,1297L552,1265Z" fill="#8cc94f" stroke="#8cc94f" stroke-width="1.51"/><path d="M515,682L331,783L556,794Z" fill="#79c22e" stroke="#79c22e" stroke-width="1.51"/><path d="M331,783L435,957L556,794Z" fill="#7dc235" stroke="#7dc235" stroke-width="1.51"/><path d="M395,664L331,783L515,682Z" fill="#76bf2a" stroke="#76bf2a" stroke-width="1.51"/><path d="M451,-112L434,46L540,18Z" fill="#5a9c11" stroke="#5a9c11" stroke-width="1.51"/><path d="M392,122L541,239L550,170Z" fill="#62a915" stroke="#62a915" stroke-width="1.51"/><path d="M392,122L390,268L541,239Z" fill="#63a915" stroke="#63a915" stroke-width="1.51"/><path d="M481,592L395,664L515,682Z" fill="#75c025" stroke="#75c025" stroke-width="1.51"/><path d="M364,604L481,592L520,455Z" fill="#71be1c" stroke="#71be1c" stroke-width="1.51"/><path d="M417,379L364,604L520,455Z" fill="#6db919" stroke="#6db919" stroke-width="1.51"/><path d="M327,-14L434,46L451,-112Z" fill="#589910" stroke="#589910" stroke-width="1.51"/><path d="M364,604L395,664L481,592Z" fill="#73be23" stroke="#73be23" stroke-width="1.51"/><path d="M326,1074L475,1104L484,1012Z" fill="#85c543" stroke="#85c543" stroke-width="1.51"/><path d="M435,957L326,1074L484,1012Z" fill="#82c440" stroke="#82c440" stroke-width="1.51"/><path d="M326,1074L412,1161L475,1104Z" fill="#86c446" stroke="#86c446" stroke-width="1.51"/><path d="M198,494L364,604L417,379Z" fill="#6bb618" stroke="#6bb618" stroke-width="1.51"/><path d="M331,783L320,974L435,957Z" fill="#7dc038" stroke="#7dc038" stroke-width="1.51"/><path d="M320,974L326,1074L435,957Z" fill="#80c13f" stroke="#80c13f" stroke-width="1.51"/><path d="M284,-217L327,-14L451,-112Z" fill="#54920d" stroke="#54920d" stroke-width="1.51"/><path d="M294,210L390,268L392,122Z" fill="#60a513" stroke="#60a513" stroke-width="1.51"/><path d="M412,1161L194,1239L443,1297Z" fill="#89c44d" stroke="#89c44d" stroke-width="1.51"/><path d="M327,-14L392,122L434,46Z" fill="#5b9d11" stroke="#5b9d11" stroke-width="1.51"/><path d="M189,1223L194,1239L412,1161Z" fill="#86c04a" stroke="#86c04a" stroke-width="1.51"/><path d="M240,335L198,494L417,379Z" fill="#67af16" stroke="#67af16" stroke-width="1.51"/><path d="M390,268L240,335L417,379Z" fill="#65ac15" stroke="#65ac15" stroke-width="1.51"/><path d="M326,1074L189,1223L412,1161Z" fill="#85c147" stroke="#85c147" stroke-width="1.51"/><path d="M203,883L320,974L331,783Z" fill="#7abc35" stroke="#7abc35" stroke-width="1.51"/><path d="M198,494L244,610L364,604Z" fill="#6db71c" stroke="#6db71c" stroke-width="1.51"/><path d="M327,-14L206,113L392,122Z" fill="#5a9b10" stroke="#5a9b10" stroke-width="1.51"/><path d="M364,604L244,610L395,664Z" fill="#71ba22" stroke="#71ba22" stroke-width="1.51"/><path d="M244,610L331,783L395,664Z" fill="#73bb27" stroke="#73bb27" stroke-width="1.51"/><path d="M294,210L240,335L390,268Z" fill="#62a714" stroke="#62a714" stroke-width="1.51"/><path d="M206,113L294,210L392,122Z" fill="#5c9f11" stroke="#5c9f11" stroke-width="1.51"/><path d="M116,1052L189,1223L326,1074Z" fill="#81bd44" stroke="#81bd44" stroke-width="1.51"/><path d="M320,974L159,976L326,1074Z" fill="#7ebd3e" stroke="#7ebd3e" stroke-width="1.51"/><path d="M284,-217L138,-180L327,-14Z" fill="#508d0c" stroke="#508d0c" stroke-width="1.51"/><path d="M138,-180L92,-34L327,-14Z" fill="#518e0c" stroke="#518e0c" stroke-width="1.51"/><path d="M244,610L150,642L331,783Z" fill="#70b826" stroke="#70b826" stroke-width="1.51"/><path d="M150,642L203,883L331,783Z" fill="#74b82d" stroke="#74b82d" stroke-width="1.51"/><path d="M150,642L168,878L203,883Z" fill="#74b72e" stroke="#74b72e" stroke-width="1.51"/><path d="M92,-34L206,113L327,-14Z" fill="#55940f" stroke="#55940f" stroke-width="1.51"/><path d="M159,976L116,1052L326,1074Z" fill="#7dbb3f" stroke="#7dbb3f" stroke-width="1.51"/><path d="M203,883L159,976L320,974Z" fill="#7bbb39" stroke="#7bbb39" stroke-width="1.51"/><path d="M148,178L240,335L294,210Z" fill="#5fa213" stroke="#5fa213" stroke-width="1.51"/><path d="M206,113L148,178L294,210Z" fill="#5b9d11" stroke="#5b9d11" stroke-width="1.51"/><path d="M150,642L23,704L168,878Z" fill="#70b329" stroke="#70b329" stroke-width="1.51"/><path d="M148,178L75,194L240,335Z" fill="#5c9f12" stroke="#5c9f12" stroke-width="1.51"/><path d="M75,194L33,232L240,335Z" fill="#5c9f11" stroke="#5c9f11" stroke-width="1.51"/><path d="M65,422L198,494L240,335Z" fill="#64ab15" stroke="#64ab15" stroke-width="1.51"/><path d="M198,494L150,642L244,610Z" fill="#6cb51c" stroke="#6cb51c" stroke-width="1.51"/><path d="M33,232L65,422L240,335Z" fill="#5fa313" stroke="#5fa313" stroke-width="1.51"/><path d="M-136,-215L48,-142L138,-180Z" fill="#498108" stroke="#498108" stroke-width="1.51"/><path d="M92,-34L-4,123L148,178Z" fill="#54930e" stroke="#54930e" stroke-width="1.51"/><path d="M62,526L150,642L198,494Z" fill="#69b119" stroke="#69b119" stroke-width="1.51"/><path d="M168,878L159,976L203,883Z" fill="#78b836" stroke="#78b836" stroke-width="1.51"/><path d="M92,-34L148,178L206,113Z" fill="#56960f" stroke="#56960f" stroke-width="1.51"/><path d="M65,422L62,526L198,494Z" fill="#65ad16" stroke="#65ad16" stroke-width="1.51"/><path d="M116,1052L-90,1130L189,1223Z" fill="#7eb743" stroke="#7eb743" stroke-width="1.51"/><path d="M189,1223L-71,1301L194,1239Z" fill="#82ba4b" stroke="#82ba4b" stroke-width="1.51"/><path d="M48,-142L92,-34L138,-180Z" fill="#4d870a" stroke="#4d870a" stroke-width="1.51"/><path d="M-4,123L75,194L148,178Z" fill="#579810" stroke="#579810" stroke-width="1.51"/><path d="M-90,1130L-71,1301L189,1223Z" fill="#7fb547" stroke="#7fb547" stroke-width="1.51"/><path d="M-18,40L-4,123L92,-34Z" fill="#518e0c" stroke="#518e0c" stroke-width="1.51"/><path d="M-90,917L159,976L168,878Z" fill="#76b436" stroke="#76b436" stroke-width="1.51"/><path d="M23,704L-90,917L168,878Z" fill="#71b130" stroke="#71b130" stroke-width="1.51"/><path d="M-80,755L-90,917L23,704Z" fill="#6dae2b" stroke="#6dae2b" stroke-width="1.51"/><path d="M-90,917L116,1052L159,976Z" fill="#78b53a" stroke="#78b53a" stroke-width="1.51"/><path d="M62,526L-20,606L150,642Z" fill="#68af1b" stroke="#68af1b" stroke-width="1.51"/><path d="M-20,606L23,704L150,642Z" fill="#6aaf21" stroke="#6aaf21" stroke-width="1.51"/><path d="M-90,917L-93,1026L116,1052Z" fill="#76b13a" stroke="#76b13a" stroke-width="1.51"/><path d="M-93,1026L-90,1130L116,1052Z" fill="#79b23e" stroke="#79b23e" stroke-width="1.51"/><path d="M-160,323L-88,456L33,232Z" fill="#5b9d10" stroke="#5b9d10" stroke-width="1.51"/><path d="M33,232L-88,456L65,422Z" fill="#5ea213" stroke="#5ea213" stroke-width="1.51"/><path d="M48,-142L-94,-22L92,-34Z" fill="#4d880a" stroke="#4d880a" stroke-width="1.51"/><path d="M-94,-22L-18,40L92,-34Z" fill="#4f8a0c" stroke="#4f8a0c" stroke-width="1.51"/><path d="M-88,456L62,526L65,422Z" fill="#62a814" stroke="#62a814" stroke-width="1.51"/><path d="M-4,123L33,232L75,194Z" fill="#579710" stroke="#579710" stroke-width="1.51"/><path d="M-88,456L-20,606L62,526Z" fill="#63ab15" stroke="#63ab15" stroke-width="1.51"/><path d="M-136,-215L-94,-22L48,-142Z" fill="#498108" stroke="#498108" stroke-width="1.51"/><path d="M-88,456L-121,570L-20,606Z" fill="#62a915" stroke="#62a915" stroke-width="1.51"/><path d="M-4,123L-160,323L33,232Z" fill="#57970f" stroke="#57970f" stroke-width="1.51"/><path d="M-20,606L-116,681L23,704Z" fill="#68ac21" stroke="#68ac21" stroke-width="1.51"/><path d="M-116,681L-80,755L23,704Z" fill="#6aac25" stroke="#6aac25" stroke-width="1.51"/><path d="M-18,40L-229,138L-4,123Z" fill="#518e0c" stroke="#518e0c" stroke-width="1.51"/><path d="M-229,138L-160,323L-4,123Z" fill="#54920d" stroke="#54920d" stroke-width="1.51"/><path d="M-121,570L-116,681L-20,606Z" fill="#66aa1d" stroke="#66aa1d" stroke-width="1.51"/><path d="M-94,-22L-229,138L-18,40Z" fill="#4f8a0b" stroke="#4f8a0b" stroke-width="1.51"/><path d="M-93,1026L-131,1072L-90,1130Z" fill="#77af3d" stroke="#77af3d" stroke-width="1.51"/><path d="M-193,466L-121,570L-88,456Z" fill="#5fa413" stroke="#5fa413" stroke-width="1.51"/><path d="M-160,323L-193,466L-88,456Z" fill="#5c9e11" stroke="#5c9e11" stroke-width="1.51"/><path d="M-176,772L-90,917L-80,755Z" fill="#6dab2c" stroke="#6dab2c" stroke-width="1.51"/><path d="M-90,1130L-210,1197L-71,1301Z" fill="#7bb045" stroke="#7bb045" stroke-width="1.51"/><path d="M-131,1072L-93,1026L-90,917Z" fill="#74ae39" stroke="#74ae39" stroke-width="1.51"/><path d="M-116,681L-176,772L-80,755Z" fill="#69aa26" stroke="#69aa26" stroke-width="1.51"/><path d="M-136,-215L-229,138L-94,-22Z" fill="#4a8309" stroke="#4a8309" stroke-width="1.51"/><path d="M-176,772L-131,1072L-90,917Z" fill="#70ac33" stroke="#70ac33" stroke-width="1.51"/><path d="M-131,1072L-210,1197L-90,1130Z" fill="#78ae40" stroke="#78ae40" stroke-width="1.51"/><path d="M-176,772L-210,1197L-131,1072Z" fill="#73ac38" stroke="#73ac38" stroke-width="1.51"/><path d="M-193,466L-176,772L-121,570Z" fill="#63a61a" stroke="#63a61a" stroke-width="1.51"/><path d="M-121,570L-176,772L-116,681Z" fill="#66a821" stroke="#66a821" stroke-width="1.51"/><path d="M-229,138L-193,466L-160,323Z" fill="#57960f" stroke="#57960f" stroke-width="1.51"/><path d="M-193,466L-210,1197L-176,772Z" fill="#6ba82b" stroke="#6ba82b" stroke-width="1.51"/><path d="M-229,138L-210,1197L-193,466Z" fill="#62a419" stroke="#62a419" stroke-width="1.51"/></svg>